<svg width="200" height="167" viewBox="0 0 200 167" fill="none" xmlns="http://www.w3.org/2000/svg">
<g clip-path="url(#clip0)">
<path fill-rule="evenodd" clip-rule="evenodd" d="M75.4968 76.374C76.2103 72.3182 78.4366 62.1216 83.8881 54.5813C90.8523 44.9559 105.095 40.9858 105.095 40.9858C105.095 40.9858 116.654 51.3824 126.929 58.2372C137.204 65.0921 163.32 83.3145 163.32 83.3145C163.32 83.3145 161.922 87.0847 161.008 88.7413C160.095 90.3979 159.781 90.712 159.781 90.712C159.781 90.712 161.693 92.9113 163.263 95.2248C164.833 97.5383 165.29 98.9379 165.29 98.9379C165.29 98.9379 163.006 99.9947 162.264 100.366C161.522 100.737 161.465 100.766 161.465 100.766C161.465 100.766 164.89 103.279 166.688 104.964C168.515 106.65 169 107.306 169 107.306C169 107.306 159.067 106.792 146.595 117.132C134.122 127.471 131.867 131.87 131.867 131.87C131.867 131.87 125.388 130.47 112.858 142.78C100.328 155.09 97.5597 165.601 97.5597 165.601C97.5597 165.601 85.886 153.491 67.7049 143.123C49.5237 132.727 39.8765 130.07 39.8765 130.07C39.8765 130.07 40.3047 128.585 41.1609 126.986C42.0172 125.386 42.5595 124.901 42.5595 124.901L34.739 122.387C34.739 122.387 35.0244 120.816 37.5932 116.361C40.1619 111.905 41.4463 110.905 41.4463 110.905L31 107.306C31 107.306 34.8532 97.624 47.9253 89.5696C60.969 81.5437 73.613 80.3726 74.4693 80.0299C75.297 79.7157 75.3541 77.2023 75.4968 76.374Z" fill="#111927"/>
<path fill-rule="evenodd" clip-rule="evenodd" d="M37.5075 105.565C57.8864 112.248 79.778 127.586 88.4547 137.811C88.4547 137.811 97.0173 128.614 106.978 124.415C116.94 120.245 123.19 121.159 123.19 121.159C123.19 121.159 111.088 106.707 96.6463 96.4248C82.2041 86.1425 77.0665 84.2003 77.0665 84.2003C77.0665 84.2003 56.4022 82.7151 37.5075 105.565Z" fill="#CED8F0"/>
<path fill-rule="evenodd" clip-rule="evenodd" d="M82.3469 131.67C84.773 133.841 86.8565 135.897 88.4549 137.811C88.4549 137.811 97.0174 128.614 106.979 124.415C116.94 120.245 123.19 121.159 123.19 121.159C123.19 121.159 111.089 106.707 96.6464 96.4246C95.7901 95.7962 94.9339 95.225 94.1347 94.6537C101.013 99.5949 116.826 118.646 116.826 118.646C116.826 118.646 109.433 119.503 101.213 124.33C92.9645 129.156 88.3122 133.584 87.6272 133.584C86.9136 133.584 82.3469 131.67 82.3469 131.67ZM93.7351 94.3681C93.3926 94.1396 93.0787 93.9111 92.7362 93.6826C93.0216 93.8826 93.3641 94.111 93.7351 94.3681Z" fill="#8594B5"/>
<path fill-rule="evenodd" clip-rule="evenodd" d="M80.0064 82.2293C80.0064 82.2293 96.4465 90.6265 107.892 100.166C119.337 109.706 126.301 119.445 126.301 119.445C126.301 119.445 129.955 114.104 134.864 109.477C139.773 104.879 145.453 100.709 151.133 95.6534C156.813 90.6265 158.411 86.228 158.411 86.228C148.849 78.9162 109.148 51.7538 104.039 45.5845C104.039 45.5845 88.8829 51.6967 84.3448 63.5213C79.7781 75.3745 80.0064 82.2293 80.0064 82.2293Z" fill="#CED8F0"/>
<path fill-rule="evenodd" clip-rule="evenodd" d="M80.0064 82.2296C80.0064 82.2296 80.777 82.6294 82.09 83.3435C82.4896 79.659 84.1735 66.4634 88.4263 60.2369C89.5109 58.666 89.568 57.2951 89.0257 56.124C87.1133 58.2662 85.4294 60.751 84.3448 63.5501C79.7781 75.3747 80.0064 82.2296 80.0064 82.2296Z" fill="white"/>
<path fill-rule="evenodd" clip-rule="evenodd" d="M105.009 97.8816C105.98 98.6242 106.95 99.3954 107.892 100.167C119.337 109.706 126.301 119.446 126.301 119.446C126.301 119.446 129.955 114.105 134.864 109.478C139.773 104.879 145.453 100.709 151.133 95.6538C156.813 90.6269 158.411 86.2283 158.411 86.2283C157.412 85.4572 156.042 84.4575 154.444 83.2865C154.387 84.686 153.901 86.8567 152.103 89.1702C148.992 93.1403 142.313 97.9387 132.524 99.8238C122.734 101.709 105.009 97.8816 105.009 97.8816ZM121.563 59.6658C114 54.0962 107.578 49.155 104.866 46.4702C104.438 57.6093 103.639 81.8012 104.781 81.8869C106.265 81.9726 110.575 79.859 113.343 76.5459C116.112 73.2327 116.226 68.4057 116.226 68.4057C116.226 68.4057 116.968 68.2915 117.625 67.1205C118.253 65.9494 117.511 64.7784 119.451 61.7794C119.851 61.151 120.622 60.4084 121.563 59.6658Z" fill="#8594B5"/>
<path fill-rule="evenodd" clip-rule="evenodd" d="M157.012 93.0835C157.012 93.0835 158.297 94.683 159.182 95.7969C160.038 96.9108 160.409 97.5106 160.409 97.5106C160.409 97.5106 147.365 103.451 138.803 111.592C130.24 119.732 128.356 123.416 128.356 123.416C128.356 123.416 129.898 118.018 135.463 112.963C141.029 107.936 145.738 104.08 150.134 100.538C154.529 96.9965 157.012 93.0835 157.012 93.0835Z" fill="#8594B5"/>
<path fill-rule="evenodd" clip-rule="evenodd" d="M159.21 102.965L161.094 104.336C161.094 104.336 153.987 105.45 145.082 112.419C136.205 119.388 130.84 127.3 130.84 127.3C130.84 127.3 130.725 123.558 140.144 114.876C149.563 106.193 159.21 102.965 159.21 102.965Z" fill="#677592"/>
<path fill-rule="evenodd" clip-rule="evenodd" d="M127.129 128.385C127.129 128.385 114.713 130.156 105.409 143.123C96.104 156.09 95.9898 158.004 95.9898 158.004C95.9898 158.004 87.2274 150.521 70.1879 140.124C53.1484 129.728 45.3565 127.814 45.3565 127.814C45.3565 127.814 54.8895 129.842 69.0177 137.896C83.146 145.922 95.1335 154.919 95.1335 154.919C95.1335 154.919 110.632 126.5 127.129 128.385Z" fill="#677592"/>
<path fill-rule="evenodd" clip-rule="evenodd" d="M125.502 125.1C125.502 125.1 119.623 125.1 110.832 130.784C102.069 136.468 94.3344 149.521 94.3344 149.521C94.3344 149.521 79.5497 139.238 64.9934 130.556C50.437 121.873 39.4199 119.959 39.4199 119.959C39.4199 119.959 41.532 114.961 42.7593 113.933C43.9866 112.904 46.013 112.79 46.4697 112.876C46.9264 112.99 59.4277 118.046 69.9026 125.757C80.406 133.469 88.1979 142.78 88.1979 142.78C88.1979 142.78 96.6463 131.87 107.778 127.785C118.995 123.729 125.502 125.1 125.502 125.1Z" fill="#8594B5"/>
<path fill-rule="evenodd" clip-rule="evenodd" d="M77.6659 135.211C78.5507 137.125 78.4936 138.153 78.094 138.696C87.2845 144.608 94.3629 149.549 94.3629 149.549C94.3629 149.549 102.069 136.497 110.86 130.813C119.651 125.129 125.531 125.129 125.531 125.129C125.531 125.129 118.995 123.758 107.863 127.842C96.7319 131.927 88.2835 142.837 88.2835 142.837C88.2835 142.837 80.463 133.526 69.9881 125.814C68.4183 124.672 66.82 123.587 65.1931 122.558C65.1931 122.501 75.4967 130.584 77.6659 135.211Z" fill="#677592"/>
<path fill-rule="evenodd" clip-rule="evenodd" d="M49.8376 106.45C49.8376 106.45 57.3441 110.192 62.8527 113.362C69.8454 117.418 70.3021 119.103 73.0707 117.075C81.2622 111.163 87.1704 107.507 97.845 103.708C98.844 103.365 99.0723 102.166 97.9021 101.08C96.7319 100.024 86.8849 93.1117 83.517 91.1695C80.1491 89.2273 79.407 88.656 77.8372 88.4846C76.2959 88.3133 73.1848 88.6846 66.506 91.3694C59.8272 94.0542 52.7489 98.4242 50.123 100.738C47.4971 103.051 47.5542 104.108 47.9824 104.965C48.4105 105.822 49.8376 106.45 49.8376 106.45Z" fill="#111927"/>
<path fill-rule="evenodd" clip-rule="evenodd" d="M83.7739 93.3975C85.8575 94.7399 88.1408 96.2822 89.9389 97.4818C92.2508 99.0241 93.7065 99.9952 94.5913 100.652C95.9042 101.623 96.6177 102.166 94.7054 102.966C94.2488 103.166 93.6208 103.366 92.7931 103.651C89.0541 104.879 84.0593 107.621 80.3203 109.649C76.5813 111.677 72.614 114.905 71.929 115.162C71.244 115.419 70.7017 115.647 69.6742 115.047C68.7038 114.505 62.396 110.477 54.6326 106.679C57.1729 104.822 62.6244 100.966 68.6752 98.0816C75.6395 94.7684 81.9758 93.6545 83.7739 93.3975Z" fill="white"/>
<path fill-rule="evenodd" clip-rule="evenodd" d="M52.9202 105.851L50.694 104.765C50.694 104.765 50.1231 104.394 50.3229 103.68C50.5227 102.937 54.5186 99.0244 63.0812 94.9115C68.5612 92.2838 72.9852 91.0556 75.6396 90.5415C77.2665 90.2273 78.4082 90.0845 79.8923 90.9699C80.4061 91.2841 81.034 91.6554 81.6905 92.0839C78.7792 92.6551 73.5275 93.9118 67.9333 96.5966C61.1689 99.7955 55.0609 104.223 52.9202 105.851Z" fill="#677592"/>
<path d="M53.8619 104.051C54.5713 104.051 55.1463 103.603 55.1463 103.051C55.1463 102.499 54.5713 102.051 53.8619 102.051C53.1526 102.051 52.5775 102.499 52.5775 103.051C52.5775 103.603 53.1526 104.051 53.8619 104.051Z" fill="#FC4A2E"/>
<path d="M56.4594 101.994C57.1214 101.994 57.6581 101.572 57.6581 101.052C57.6581 100.531 57.1214 100.109 56.4594 100.109C55.7973 100.109 55.2606 100.531 55.2606 101.052C55.2606 101.572 55.7973 101.994 56.4594 101.994Z" fill="#FFDC58"/>
<path d="M59.1709 100.309C59.8487 100.309 60.3982 99.8874 60.3982 99.3669C60.3982 98.8463 59.8487 98.4243 59.1709 98.4243C58.4931 98.4243 57.9436 98.8463 57.9436 99.3669C57.9436 99.8874 58.4931 100.309 59.1709 100.309Z" fill="#A1F100"/>
<path d="M60.4552 106.707C60.0841 106.964 59.5989 106.879 59.3421 106.507C59.0852 106.136 59.1708 105.65 59.5418 105.393C59.5704 105.393 64.4796 101.966 71.4152 98.9955C76.2959 96.9105 79.6924 95.8823 81.0339 95.5395C82.8891 95.054 83.4599 96.1393 82.2611 96.5677C80.6913 97.1104 77.1236 98.31 72.0717 100.481C65.2502 103.394 60.4837 106.707 60.4552 106.707Z" fill="#D9E3EF"/>
<path d="M63.9089 108.22C63.5378 108.477 63.0526 108.392 62.7957 108.02C62.5389 107.649 62.6245 107.164 62.9955 106.907C63.0241 106.907 67.9333 103.479 74.8689 100.509C79.7496 98.4237 83.1461 97.3955 84.4875 97.0527C86.3428 96.5672 86.9136 97.6525 85.7148 98.0809C84.145 98.6236 80.5773 99.8232 75.5254 101.994C68.7039 104.907 63.9374 108.22 63.9089 108.22Z" fill="#D9E3EF"/>
<path d="M67.2197 109.906C66.8486 110.163 66.3634 110.077 66.1065 109.706C65.8496 109.335 65.9353 108.849 66.3063 108.592C66.3348 108.592 71.2441 105.165 78.1797 102.194C83.0604 100.109 86.4569 99.081 87.7984 98.7383C89.6536 98.2527 90.2244 99.3381 89.0257 99.7665C87.4559 100.309 83.8881 101.509 78.8362 103.679C72.0432 106.564 67.2482 109.877 67.2197 109.906Z" fill="#D9E3EF"/>
<path fill-rule="evenodd" clip-rule="evenodd" d="M70.0738 109.878C70.0738 109.878 71.6436 108.964 72.5284 108.507C72.9566 108.278 73.3276 108.25 73.7843 108.478C74.3551 108.764 75.0972 109.249 75.4397 109.706C75.7251 110.049 75.4682 110.506 75.1257 110.677C74.5834 111.02 73.6987 111.534 73.0707 111.877C72.3572 112.248 72.3001 112.305 71.558 111.934C71.0443 111.677 70.4449 111.306 70.0453 111.02C69.503 110.649 69.2176 110.363 70.0738 109.878Z" fill="#677592"/>
<path d="M77.3519 106.621C78.4079 106.078 79.5496 105.507 80.7198 104.936C85.6005 102.651 88.997 101.537 90.3385 101.109C92.1937 100.537 92.7645 101.623 91.5658 102.08C89.9959 102.679 86.4282 104.022 81.3763 106.364C80.52 106.764 79.6923 107.164 78.8932 107.564C77.78 108.135 76.8381 107.763 76.8381 107.306C76.8381 106.935 77.3234 106.65 77.3519 106.621Z" fill="#D9E3EF"/>
<path d="M75.925 119.246C76.8384 118.56 77.8373 117.846 78.8934 117.16C81.0625 115.732 82.9178 114.618 84.3734 113.79C85.8576 112.962 86.9422 112.419 87.5415 112.134C89.2541 111.334 89.9961 112.276 88.9116 112.905C88.198 113.305 87.0278 113.962 85.4865 114.876C83.9453 115.79 82.0044 116.989 79.7782 118.474C79.0075 118.988 78.294 119.503 77.609 119.988C76.61 120.702 75.6396 120.474 75.554 120.045C75.4683 119.588 75.8965 119.274 75.925 119.246ZM88.1409 130.299C87.827 130.585 87.3132 130.556 87.0278 130.242C86.7424 129.928 86.7709 129.414 87.0849 129.128C87.0849 129.128 88.1695 128.128 90.0818 126.7C91.9655 125.272 94.6485 123.358 97.8166 121.588C100.043 120.359 101.955 119.474 103.468 118.789C104.981 118.132 106.094 117.703 106.722 117.475C108.463 116.818 109.176 117.789 108.035 118.303C107.293 118.646 106.094 119.188 104.524 119.931C102.926 120.674 100.928 121.673 98.6158 122.93C95.5047 124.672 92.8789 126.529 91.0522 127.928C89.197 129.356 88.1409 130.299 88.1409 130.299ZM83.9453 126.843C83.6313 127.129 83.1176 127.1 82.8321 126.786C82.5467 126.472 82.5753 125.958 82.8892 125.672C82.8892 125.672 84.0024 124.672 85.8861 123.244C87.7699 121.816 90.4528 119.902 93.621 118.046C95.8472 116.789 97.7881 115.875 99.3008 115.218C100.814 114.561 101.927 114.19 102.583 113.962C104.324 113.362 105.038 114.361 103.896 114.847C103.154 115.161 101.955 115.647 100.357 116.389C98.7585 117.132 96.7606 118.103 94.4487 119.417C91.3376 121.216 88.7118 123.101 86.8851 124.501C85.0013 125.9 83.9453 126.843 83.9453 126.843ZM80.5773 123.558C80.2634 123.844 79.7496 123.815 79.4642 123.501C79.1788 123.187 79.2073 122.673 79.5213 122.387C79.5213 122.387 80.6344 121.388 82.5182 119.96C84.4019 118.503 87.0849 116.589 90.2816 114.733C92.5364 113.419 94.4487 112.419 95.9614 111.762C97.4741 111.105 98.5872 110.706 99.2152 110.477C100.956 109.906 101.67 110.905 100.528 111.391C99.786 111.705 98.5872 112.191 96.9889 112.933C95.3906 113.676 93.3926 114.733 91.0522 116.075C87.9411 117.903 85.3153 119.788 83.4601 121.188C81.6619 122.616 80.6059 123.558 80.5773 123.558Z" fill="#111927"/>
<path d="M106.75 94.2826C106.522 94.6539 106.037 94.7967 105.637 94.5682C105.266 94.3397 105.123 93.8542 105.352 93.4543C105.352 93.4258 108.72 87.6848 114.656 81.1156C120.621 74.5178 127.957 69.6338 127.985 69.6338C128.356 69.3767 128.87 69.4909 129.098 69.8622C129.355 70.2335 129.241 70.7477 128.87 70.9762C128.842 71.0047 121.678 75.746 115.855 82.201C110.032 88.6845 106.75 94.2541 106.75 94.2826Z" fill="#111927"/>
<path d="M111.545 97.9676C111.288 98.3389 110.774 98.4246 110.432 98.1675C110.089 97.9105 109.975 97.3964 110.232 97.0536C110.232 97.0536 112.801 93.3406 115.57 89.8846C118.338 86.4001 121.249 83.6867 121.278 83.6867C121.592 83.3725 122.106 83.4011 122.42 83.7152C122.734 84.0294 122.705 84.5435 122.391 84.8577C122.391 84.8577 119.537 87.4854 116.854 90.8843C114.085 94.2831 111.545 97.9676 111.545 97.9676Z" fill="#111927"/>
<path d="M117.111 101.652C116.883 102.023 116.369 102.137 115.998 101.909C115.627 101.68 115.513 101.166 115.741 100.795C115.741 100.795 118.452 96.5104 121.021 93.6257C123.59 90.7409 126.216 88.456 126.244 88.456C126.587 88.1703 127.101 88.1989 127.386 88.5417C127.671 88.8844 127.643 89.3985 127.3 89.6841C127.3 89.6841 124.703 91.912 122.248 94.6825C119.765 97.453 117.111 101.623 117.111 101.652Z" fill="#111927"/>
<path d="M122.077 105.593C121.82 105.965 121.306 106.05 120.964 105.793C120.593 105.536 120.507 105.022 120.764 104.679C120.764 104.679 122.591 102.08 125.103 99.1956C127.614 96.3109 130.868 93.7403 130.897 93.7403C131.239 93.4547 131.753 93.5404 132.038 93.8831C132.324 94.2258 132.238 94.74 131.896 95.0256C131.896 95.0256 128.756 97.4819 126.33 100.281C123.875 103.023 122.077 105.565 122.077 105.593Z" fill="#111927"/>
<path d="M126.701 109.649C126.473 110.02 125.987 110.163 125.588 109.935C125.188 109.706 125.074 109.221 125.302 108.821C125.302 108.821 127.386 105.336 130.754 101.68C134.122 98.0243 135.492 96.9389 135.492 96.9389C135.834 96.6533 136.348 96.7104 136.634 97.0817C136.919 97.4245 136.862 97.9386 136.491 98.2242C136.491 98.2242 135.178 99.281 131.924 102.794C128.699 106.279 126.73 109.649 126.701 109.649Z" fill="#111927"/>
<path fill-rule="evenodd" clip-rule="evenodd" d="M139.373 78.859C139.573 78.7448 139.887 78.8019 140.116 79.0018C141.257 79.9444 142.427 80.8869 143.626 81.8009C144.853 82.7434 146.081 83.6574 147.308 84.5999C147.565 84.7999 147.679 85.1141 147.565 85.3426C147.137 86.2565 146.623 87.1705 146.081 88.0559C145.538 88.9699 144.939 89.8553 144.34 90.7693C144.283 90.8264 144.226 90.9121 144.168 90.9407C144.111 90.9978 144.026 91.0264 143.94 91.0835C142.884 91.5119 141.857 91.9118 140.829 92.3402C139.802 92.7686 138.803 93.1971 137.804 93.6255C137.518 93.7397 137.233 93.6826 137.062 93.4827C136.234 92.5687 135.292 91.6262 134.264 90.7407C133.208 89.8268 132.067 88.9128 130.925 87.9988C130.668 87.7989 130.583 87.4847 130.725 87.2562C131.182 86.3422 131.696 85.3997 132.238 84.4857C132.78 83.5717 133.323 82.6577 133.836 81.7152C133.865 81.6581 133.922 81.5724 133.979 81.5438C134.036 81.4867 134.093 81.4581 134.179 81.401C135.092 81.0012 135.977 80.5727 136.833 80.1729C137.661 79.773 138.46 79.3446 139.231 78.9447C139.259 78.9161 139.316 78.8876 139.373 78.859ZM137.49 86.0852C136.12 86.6564 134.778 87.1991 133.437 87.7703C134.236 88.4272 135.035 89.0842 135.777 89.7411C136.548 90.398 137.261 91.0549 137.946 91.7118C139.259 91.1406 140.572 90.5979 141.942 90.0553C141.257 89.3983 140.515 88.7128 139.773 88.0559C139.031 87.399 138.26 86.7421 137.49 86.0852ZM138.26 81.5153C137.29 81.9437 136.319 82.4007 135.292 82.8291C134.778 83.7717 134.264 84.7142 133.722 85.6853C134.807 85.2569 135.891 84.7999 136.976 84.3715C137.433 83.4003 137.889 82.4578 138.26 81.5153ZM140.287 81.1725C139.916 82.3721 139.459 83.6003 138.888 84.7999C139.659 85.4568 140.429 86.1137 141.172 86.7992C141.914 87.4561 142.684 88.1416 143.398 88.7985C144.083 87.6275 144.739 86.4279 145.339 85.2569C144.511 84.5714 143.655 83.8859 142.798 83.2004C141.971 82.5435 141.114 81.858 140.287 81.1725Z" fill="#111927"/>
<path fill-rule="evenodd" clip-rule="evenodd" d="M87.513 68.1485V66.7204C87.1134 66.0635 86.8565 65.2923 86.828 64.3783V64.2926V64.207C86.828 62.0077 85.829 58.6374 85.0584 56.6381C84.0023 53.8961 82.3754 51.6397 80.9198 49.1263C78.8077 45.4704 77.7231 42.1286 77.4091 37.9015C76.9525 31.9321 78.8933 26.1055 83.0604 21.7926C87.3132 17.4226 93.2499 15.1948 99.2722 15.1948C105.323 15.1948 111.26 17.4226 115.484 21.7926C119.68 26.1055 121.592 31.9321 121.135 37.9015C120.821 42.1286 119.737 45.4989 117.625 49.1263C116.169 51.6397 114.542 53.8961 113.486 56.6381C112.715 58.6374 111.716 62.0077 111.716 64.207V64.2926V64.3783C111.688 65.2637 111.431 66.0349 111.031 66.7204V68.1485C112.544 88.3417 86.0288 88.3417 87.513 68.1485Z" fill="#111927"/>
<path fill-rule="evenodd" clip-rule="evenodd" d="M102.526 76.8605C103.496 76.7462 104.353 76.5749 105.123 76.3749C104.039 77.5174 102.526 78.2029 100.842 78.2029H97.7025C96.0185 78.2029 94.5058 77.4889 93.4212 76.3749C94.1633 76.5749 95.0481 76.7462 95.99 76.8605C96.9889 76.9747 98.1021 77.0604 99.2437 77.0604C100.442 77.0319 101.527 76.9747 102.526 76.8605ZM106.807 71.7479V72.262C106.807 72.4905 106.779 72.7476 106.75 72.9761C106.722 73.0046 106.693 73.0046 106.665 73.0332C106.265 73.2617 105.751 73.4616 105.152 73.633C104.381 73.8615 103.496 74.0329 102.469 74.1471C101.499 74.2614 100.414 74.3185 99.3008 74.3185C98.1877 74.3185 97.1031 74.2614 96.1327 74.1471C95.1337 74.0329 94.2204 73.8615 93.4497 73.633C92.8503 73.4616 92.3366 73.2617 91.937 73.0332C91.9085 73.0046 91.8799 73.0046 91.8514 72.9761C91.8228 72.7476 91.7943 72.4905 91.7943 72.262V71.7479C92.1939 71.9478 92.6791 72.1192 93.2499 72.2906C94.0491 72.5191 94.991 72.6905 96.047 72.8333C97.046 72.9475 98.1591 73.0332 99.3008 73.0332C100.442 73.0332 101.556 72.9761 102.555 72.8618C103.611 72.7476 104.553 72.5476 105.352 72.3191C105.894 72.1192 106.379 71.9478 106.807 71.7479ZM106.807 69.72V70.9196C106.75 70.9482 106.722 70.9767 106.665 71.0053C106.265 71.2338 105.751 71.4337 105.152 71.6051C104.381 71.8336 103.496 72.005 102.469 72.1192C101.499 72.2335 100.414 72.2906 99.3008 72.2906C98.1877 72.2906 97.1031 72.2335 96.1327 72.1192C95.1052 72.005 94.2204 71.8336 93.4497 71.6051C92.8503 71.4337 92.3366 71.2338 91.937 71.0053C91.8799 70.9767 91.8514 70.9482 91.7943 70.9196V69.72C92.1939 69.9199 92.6791 70.0913 93.2499 70.2627C94.0491 70.4912 94.991 70.6626 96.047 70.8054C97.046 70.9196 98.1591 71.0053 99.3008 71.0053C100.442 71.0053 101.556 70.9482 102.555 70.8339C103.611 70.7197 104.553 70.5197 105.352 70.2912C105.894 70.1199 106.379 69.9199 106.807 69.72ZM106.75 67.5208C106.779 67.7492 106.779 67.9777 106.779 68.2062V68.8917C106.722 68.9203 106.693 68.9488 106.636 68.9774C106.237 69.2059 105.723 69.4058 105.123 69.5772C104.353 69.8057 103.468 69.9771 102.44 70.0913C101.47 70.2056 100.385 70.2627 99.2723 70.2627C98.1591 70.2627 97.0745 70.2056 96.1041 70.0913C95.0766 69.9771 94.1918 69.8057 93.4212 69.5772C92.8218 69.4058 92.308 69.2059 91.9085 68.9774C91.8514 68.9488 91.8228 68.9203 91.7657 68.8917V68.1777C91.7657 67.9492 91.7943 67.7207 91.7943 67.4922C93.621 69.263 103.468 69.5772 106.75 67.5208ZM106.579 73.8615C106.436 74.4042 106.208 74.9183 105.923 75.3753C105.694 75.461 105.437 75.5466 105.152 75.6323C104.381 75.8608 103.496 76.0322 102.469 76.1464C101.499 76.2607 100.414 76.3178 99.3008 76.3178C98.1877 76.3178 97.1031 76.2607 96.1327 76.1464C95.1337 76.0322 94.2204 75.8608 93.4497 75.6323C93.1643 75.5466 92.936 75.461 92.6791 75.3753C92.3937 74.9183 92.1653 74.4042 92.0226 73.8615C92.3651 74.0329 92.7933 74.1757 93.2499 74.2899C94.0491 74.5184 94.991 74.6898 96.047 74.8326C97.046 74.9468 98.1591 75.004 99.3008 75.004C100.442 75.004 101.556 74.9468 102.555 74.8326C103.611 74.7184 104.553 74.5184 105.352 74.2899C105.808 74.1757 106.208 74.0329 106.579 73.8615Z" fill="#8594B5"/>
<path fill-rule="evenodd" clip-rule="evenodd" d="M97.3029 78.2022C95.7902 78.0879 94.4487 77.431 93.4497 76.3742C94.1918 76.5741 95.0766 76.7455 96.0185 76.8597C96.1612 76.8883 96.3039 76.8883 96.4466 76.9169C96.732 77.431 97.0175 77.8594 97.3029 78.2022ZM95.7902 68.7767C95.7331 69.148 95.7045 69.5765 95.6474 70.062C94.8197 69.9478 94.0491 69.805 93.4212 69.605C92.8218 69.4337 92.308 69.2337 91.9085 69.0052C91.8514 68.9767 91.8228 68.9481 91.7657 68.9195V68.2055C91.7657 67.977 91.7943 67.7485 91.7943 67.52C92.4222 68.1198 93.9349 68.5482 95.7902 68.7767ZM95.6189 70.7761C95.5904 71.1759 95.5904 71.6329 95.5618 72.0614C94.7626 71.9471 94.0491 71.8043 93.4212 71.6329C92.8218 71.4616 92.308 71.2616 91.9085 71.0331C91.8514 71.0046 91.8228 70.976 91.7657 70.9474V69.7478C92.1653 69.9478 92.6505 70.1191 93.2214 70.2905C93.9349 70.4619 94.7341 70.6333 95.6189 70.7761ZM95.5904 72.7754C95.5904 73.2038 95.6189 73.6608 95.676 74.0892C94.8483 73.975 94.1062 73.8322 93.4497 73.6323C92.8503 73.4609 92.3366 73.2609 91.937 73.0325C91.9085 73.0039 91.8799 73.0039 91.8514 72.9753C91.8228 72.7468 91.7943 72.4898 91.7943 72.2613V71.7472C92.1939 71.9471 92.6791 72.1185 93.2499 72.2898C93.9064 72.4898 94.7056 72.6612 95.5904 72.7754ZM95.7616 74.8033C95.8472 75.2888 95.9614 75.7458 96.1327 76.1457C95.1337 76.0314 94.2203 75.8601 93.4497 75.6316C93.1643 75.5459 92.936 75.4602 92.6791 75.3745C92.3937 74.9175 92.1653 74.4034 92.0226 73.8607C92.3651 74.0321 92.7933 74.1749 93.2499 74.2892C93.9635 74.5177 94.8197 74.689 95.7616 74.8033Z" fill="#FEFEFE"/>
<path fill-rule="evenodd" clip-rule="evenodd" d="M112.259 25.2486C115.37 28.4475 117.054 32.9603 116.683 37.8729C116.369 42.0144 115.17 44.6992 113.771 47.127C112.373 49.5547 110.718 51.754 109.462 55.0101C107.464 60.1798 107.464 63.8357 107.464 63.8357C107.435 64.4926 106.493 65.0924 105.009 65.5494C103.525 65.9778 101.498 66.2634 99.2722 66.2634C97.0459 66.2634 95.0195 66.0064 93.5353 65.5494C92.0511 65.121 91.1092 64.5212 91.1092 63.8357C91.1092 63.8357 91.1092 60.1798 89.1113 55.0101C87.8555 51.7826 86.2286 49.5547 84.8015 47.127C83.4029 44.6707 82.2042 42.0144 81.8902 37.8729C81.5192 32.9317 83.1746 28.4475 86.2857 25.2486C89.4538 21.9926 94.0776 20.0218 99.2722 20.0218C104.467 19.9932 109.091 21.9926 112.259 25.2486Z" fill="#FFDB60"/>
<path fill-rule="evenodd" clip-rule="evenodd" d="M112.259 25.2483C115.37 28.4473 117.054 32.96 116.683 37.8727C116.369 42.0141 115.17 44.6989 113.771 47.1267C112.373 49.5545 110.717 51.7537 109.462 55.0098C107.464 60.1795 107.464 63.8354 107.464 63.8354C107.435 64.4923 106.493 65.0921 105.009 65.5491C103.753 65.9204 102.126 66.1775 100.3 66.2346C100.414 64.4352 100.642 62.6072 101.013 60.8078C102.754 52.6391 107.635 48.9832 108.748 36.3875C109.861 23.8202 102.697 20.3357 102.669 20.3071C106.465 20.9641 109.804 22.7063 112.259 25.2483Z" fill="#F3BD01"/>
<path d="M96.6463 67.2063C96.6463 67.1777 96.9888 59.6374 96.5607 56.6098C95.9328 56.5527 95.2478 56.3242 94.6198 55.8101C93.5638 54.9533 92.9359 54.0107 92.6505 53.211C92.5078 52.8111 92.4507 52.4684 92.4792 52.1542C92.5078 51.7829 92.6505 51.4973 92.9073 51.3259C93.0786 51.2117 93.2784 51.126 93.5353 51.126C94.2773 51.126 95.1621 51.6972 95.9042 52.7254C96.4751 53.4966 96.9603 54.5534 97.2457 55.7816C98.2161 55.6673 99.0153 55.1246 99.3292 54.8961V55.8672C98.8726 56.1529 98.159 56.467 97.3884 56.5813C97.8165 59.7517 97.474 67.2349 97.474 67.2349L96.6463 67.2063ZM96.3609 55.753C96.104 54.7248 95.6759 53.8393 95.1907 53.1824C94.6198 52.3827 93.9919 51.9257 93.4782 51.9257C93.3925 51.9257 93.364 51.9543 93.3069 51.9543C93.2498 51.9828 93.2213 52.0685 93.2213 52.2113C93.1928 52.4113 93.2498 52.6398 93.3355 52.9254C93.5638 53.5823 94.1346 54.4106 95.0765 55.1818C95.5046 55.5245 95.9328 55.6959 96.3609 55.753Z" fill="#111927"/>
<path d="M101.927 67.2063C101.927 67.1777 101.584 59.6374 102.012 56.6098C102.64 56.5527 103.325 56.3242 103.953 55.8101C105.009 54.9533 105.637 54.0107 105.923 53.211C106.065 52.8111 106.122 52.4684 106.094 52.1542C106.065 51.7829 105.923 51.4973 105.666 51.3259C105.494 51.2117 105.295 51.126 105.038 51.126C104.296 51.126 103.411 51.6972 102.669 52.7254C102.098 53.4966 101.613 54.5534 101.327 55.7816C100.357 55.6673 99.5577 55.1246 99.2437 54.8961V55.8672C99.7004 56.1529 100.414 56.467 101.185 56.5813C100.756 59.7517 101.099 67.2349 101.099 67.2349L101.927 67.2063ZM102.212 55.753C102.469 54.7248 102.897 53.8393 103.382 53.1824C103.953 52.3827 104.581 51.9257 105.095 51.9257C105.18 51.9257 105.209 51.9543 105.266 51.9543C105.323 51.9828 105.352 52.0685 105.352 52.2113C105.38 52.4113 105.323 52.6398 105.238 52.9254C105.009 53.5823 104.438 54.4106 103.496 55.1818C103.068 55.5245 102.64 55.6959 102.212 55.753Z" fill="#111927"/>
<path fill-rule="evenodd" clip-rule="evenodd" d="M40.2761 106.536C42.5595 103.737 49.1241 96.3677 58.3146 91.2837C66.7915 86.571 76.0391 85.8855 80.3489 85.8569C78.037 84.5717 77.038 84.2004 77.038 84.2004C77.038 84.2004 56.3737 82.6866 37.479 105.565C38.4494 105.879 39.3628 106.193 40.2761 106.536Z" fill="white"/>
<path fill-rule="evenodd" clip-rule="evenodd" d="M70.4734 113.419C69.4173 112.991 57.1443 106.136 57.1443 106.136C57.1443 106.136 66.5917 97.7672 84.5731 93.8828C84.3162 93.7114 84.0593 93.54 83.8024 93.3687C82.0043 93.6257 75.6395 94.7111 68.6752 98.0528C62.6244 100.938 57.1729 104.765 54.6326 106.65C62.396 110.449 68.7323 114.476 69.6742 115.019C70.7017 115.618 71.2155 115.39 71.929 115.133C72.1859 115.047 72.8424 114.562 73.7842 113.905C73.7557 113.905 71.5294 113.847 70.4734 113.419Z" fill="#CED8F0"/>
<path fill-rule="evenodd" clip-rule="evenodd" d="M84.0023 34.7314C85.2011 26.7912 93.5068 20.8789 93.5068 20.8789C90.7097 21.7643 88.2265 23.2781 86.3142 25.2489C83.2032 28.4478 81.5192 32.9606 81.9188 37.8732C82.2327 42.0147 83.403 44.6995 84.83 47.1272C85.5721 48.384 86.3713 49.6121 87.1419 50.926C87.8555 52.1256 88.5405 53.4394 89.1399 55.0103C89.2255 55.2388 89.3111 55.4673 89.3967 55.6958C89.6536 56.4098 89.882 57.0953 90.0532 57.7522C90.0532 57.7522 90.0817 56.724 89.8249 55.2388C89.6536 54.1535 89.3111 52.811 88.7403 51.4401C88.569 51.0402 88.3407 50.5832 88.0553 50.0977C86.2571 46.7845 82.9463 41.6719 84.0023 34.7314Z" fill="white"/>
<path fill-rule="evenodd" clip-rule="evenodd" d="M114.713 36.6733C114.742 40.9005 113.429 43.8423 111.916 46.3558C111.859 46.47 111.773 46.5843 111.716 46.6985C108.12 52.4966 105.38 58.2375 105.494 65.4066C106.693 64.9781 107.435 64.4354 107.464 63.8642C107.464 63.8642 107.464 60.2083 109.462 55.0386C109.947 53.8104 110.461 52.7251 111.031 51.7254C111.773 50.383 112.544 49.1834 113.286 47.9838C113.457 47.6982 113.6 47.4411 113.771 47.1555C115.17 44.6992 116.369 42.0429 116.683 37.9015C117.054 32.9603 115.398 28.4761 112.259 25.2771C111.802 24.7916 111.317 24.3631 110.803 23.9347C110.774 23.9062 114.656 28.1333 114.713 36.6733Z" fill="white"/>
<path fill-rule="evenodd" clip-rule="evenodd" d="M87.8555 33.9601C86.2571 45.3563 97.3028 44.1281 98.2447 31.3896C98.9012 22.6782 89.0542 25.4201 87.8555 33.9601Z" fill="#FEFEFE"/>
<path fill-rule="evenodd" clip-rule="evenodd" d="M91.0807 48.1266C94.9339 48.6121 95.4191 44.5278 91.0236 44.2707C88.0267 44.1279 88.1694 47.7553 91.0807 48.1266Z" fill="#FEFEFE"/>
<path fill-rule="evenodd" clip-rule="evenodd" d="M47.0405 89.456L46.2699 89.9701L42.588 85.3145L47.0119 81.8014L51.8641 80.5161L55.7458 95.1683L49.0384 96.9392L47.0405 89.456Z" fill="#111927"/>
<path d="M50.4941 94.4255L48.2964 86.114L46.6981 87.1994L45.4708 85.657L47.9539 83.6862L50.4085 83.0293L53.2342 93.7115L50.4941 94.4255Z" fill="white"/>
<path fill-rule="evenodd" clip-rule="evenodd" d="M131.924 106.25C131.439 107.564 130.668 108.82 129.355 109.42C128.042 110.049 126.587 109.877 125.274 109.392L122.448 108.392C121.135 107.906 119.879 107.135 119.28 105.821C118.652 104.508 118.823 103.051 119.309 101.737L121.021 96.9673C121.506 95.6534 122.277 94.3967 123.59 93.7969C124.903 93.1685 126.359 93.3399 127.671 93.8255L130.497 94.8251C131.81 95.3107 133.066 96.0818 133.665 97.3957C134.293 98.7095 134.122 100.166 133.637 101.48L131.924 106.25Z" fill="#111927"/>
<path d="M129.013 99.8522C129.213 99.2524 129.041 98.8526 128.442 98.6526L126.815 98.0528C126.216 97.8529 125.816 98.0243 125.616 98.6241L123.904 103.394C123.704 103.994 123.875 104.394 124.475 104.593L126.102 105.193C126.701 105.393 127.101 105.222 127.3 104.622L129.013 99.8522ZM129.983 105.565C129.612 106.593 129.098 107.278 128.471 107.564C127.843 107.878 126.986 107.821 125.959 107.45L123.133 106.45C122.106 106.079 121.421 105.565 121.135 104.936C120.821 104.308 120.878 103.451 121.249 102.423L122.962 97.653C123.333 96.6247 123.847 95.9393 124.475 95.6536C125.103 95.3395 125.959 95.3966 126.986 95.7679L129.812 96.7676C130.84 97.1389 131.525 97.653 131.81 98.2813C132.124 98.9097 132.067 99.7665 131.696 100.795L129.983 105.565Z" fill="white"/>
<path fill-rule="evenodd" clip-rule="evenodd" d="M133.266 56.0386C133.779 57.3524 134.008 58.7805 133.408 60.1229C132.838 61.4653 131.61 62.2651 130.297 62.7792L127.5 63.8645C126.187 64.3786 124.76 64.6071 123.419 64.0073C122.077 63.4361 121.278 62.2079 120.764 60.8941L118.909 56.1814C118.395 54.8675 118.167 53.4394 118.766 52.097C119.337 50.7546 120.565 49.9549 121.877 49.4408L124.675 48.3554C125.987 47.8413 127.415 47.6128 128.756 48.2126C130.098 48.7838 130.897 50.012 131.41 51.3258L133.266 56.0386Z" fill="#111927"/>
<path d="M126.872 53.125C126.644 52.5252 126.244 52.3538 125.645 52.5823L124.018 53.2107C123.419 53.4392 123.247 53.8391 123.476 54.4389L125.331 59.1516C125.559 59.7514 125.959 59.9227 126.558 59.6942L128.185 59.0659C128.785 58.8374 128.956 58.4375 128.727 57.8377L126.872 53.125ZM131.353 56.7809C131.753 57.8092 131.81 58.6374 131.525 59.2944C131.239 59.9513 130.583 60.4654 129.555 60.8653L126.758 61.9506C125.731 62.3505 124.903 62.4076 124.246 62.122C123.59 61.8364 123.076 61.1795 122.677 60.1512L120.85 55.4957C120.45 54.4674 120.393 53.6391 120.679 52.9822C120.964 52.3253 121.621 51.8112 122.648 51.4113L125.445 50.326C126.473 49.9261 127.3 49.869 127.957 50.1546C128.613 50.4402 129.127 51.0971 129.527 52.1254L131.353 56.7809Z" fill="white"/>
<path fill-rule="evenodd" clip-rule="evenodd" d="M75.2115 61.922L74.2696 62.0077L73.2136 56.1525L78.8078 55.1528L83.6599 56.2953L80.2063 71.0618L73.4419 69.4909L75.2115 61.922Z" fill="#111927"/>
<path d="M75.8963 67.9487L77.8657 59.5801L75.9534 59.78L75.6109 57.8378L78.7505 57.2666L81.2051 57.8378L78.6649 68.6057L75.8963 67.9487Z" fill="white"/>
<path fill-rule="evenodd" clip-rule="evenodd" d="M86.0573 130.128C84.6588 129.9 83.3173 129.328 82.4896 128.129C81.6619 126.929 81.5763 125.473 81.8331 124.102L82.3469 121.16C82.5752 119.76 83.1461 118.418 84.3448 117.59C85.5436 116.761 86.9992 116.676 88.3692 116.933L93.3355 117.789C94.734 118.018 96.0755 118.589 96.9032 119.789C97.7309 120.988 97.8166 122.445 97.5597 123.816L97.0459 126.758C96.8176 128.157 96.2468 129.5 95.048 130.328C93.8492 131.156 92.3936 131.242 91.0236 130.985L86.0573 130.128Z" fill="#111927"/>
<path d="M91.8798 126.157C92.5077 126.272 92.8788 126.014 92.9644 125.386L93.2498 123.672C93.364 123.044 93.1071 122.673 92.4792 122.587L87.5129 121.73C86.885 121.616 86.514 121.873 86.4283 122.501L86.1429 124.215C86.0287 124.843 86.2856 125.215 86.9135 125.3L91.8798 126.157ZM86.4283 128.099C85.3437 127.9 84.6017 127.528 84.2021 126.957C83.8025 126.386 83.6883 125.557 83.8881 124.444L84.4019 121.502C84.6016 120.416 84.9727 119.674 85.5435 119.274C86.1144 118.874 86.9421 118.76 88.0552 118.96L93.0215 119.817C94.1061 120.016 94.8482 120.388 95.2478 120.959C95.6473 121.53 95.7615 122.359 95.5617 123.472L95.048 126.414C94.8482 127.5 94.4771 128.242 93.9063 128.642C93.3355 129.042 92.5077 129.156 91.3946 128.956L86.4283 128.099Z" fill="white"/>
<path fill-rule="evenodd" clip-rule="evenodd" d="M91.8799 93.2257L90.9951 93.5113L88.7689 87.9988L94.0206 85.8853L99.0439 85.9995L98.6443 101.166L91.6801 100.994L91.8799 93.2257Z" fill="#111927"/>
<path d="M93.7921 98.9668L94.0204 90.3697L92.1938 90.9695L91.4517 89.1415L94.3915 87.9419L96.9317 87.999L96.6463 99.0525L93.7921 98.9668Z" fill="white"/>
<path fill-rule="evenodd" clip-rule="evenodd" d="M63.5662 43.2141C63.6519 43.8139 64.2227 44.2423 64.8506 44.1281L74.5263 42.5857C75.1257 42.5 75.5538 41.9288 75.4397 41.3004C75.354 40.7006 74.7832 40.2722 74.1553 40.3865L64.4796 41.9288C63.9087 42.0431 63.4806 42.6143 63.5662 43.2141ZM115.712 2.82762C115.17 2.57057 114.485 2.79906 114.228 3.3703L110.032 12.2245C109.776 12.7671 110.004 13.4526 110.575 13.7097C111.117 13.9667 111.802 13.7383 112.059 13.167L116.255 4.31284C116.511 3.7416 116.255 3.08468 115.712 2.82762ZM129.213 13.5954C128.842 13.1099 128.157 12.9956 127.671 13.3384L119.708 19.0508C119.223 19.4221 119.109 20.1075 119.451 20.5931C119.822 21.0787 120.507 21.1929 120.993 20.8502L128.956 15.1378C129.469 14.795 129.584 14.081 129.213 13.5954ZM134.95 27.9049C134.864 27.3051 134.293 26.8767 133.665 26.9624L123.961 28.4476C123.361 28.5333 122.933 29.1045 123.019 29.7329C123.105 30.3327 123.675 30.7611 124.303 30.6754L134.008 29.1902C134.636 29.1045 135.035 28.5333 134.95 27.9049ZM135.206 43.2141C135.292 42.6143 134.892 42.0431 134.293 41.9288L124.617 40.3865C124.018 40.3008 123.447 40.7006 123.333 41.3004C123.247 41.9002 123.647 42.4715 124.246 42.5857L133.922 44.1281C134.55 44.2423 135.121 43.8139 135.206 43.2141ZM99.4148 0C98.8155 0 98.3017 0.485552 98.3017 1.11391L98.2732 10.9392C98.2732 11.539 98.7584 12.0531 99.3863 12.0531C99.9857 12.0531 100.499 11.5676 100.499 10.9392L100.528 1.11391C100.528 0.514114 100.014 0 99.4148 0ZM83.0603 2.82762C82.5181 3.08468 82.2612 3.77017 82.5181 4.31284L86.7137 13.167C86.9706 13.7097 87.6556 13.9667 88.1979 13.7097C88.7402 13.4526 88.9971 12.7671 88.7402 12.2245L84.5445 3.3703C84.2876 2.79906 83.6312 2.57057 83.0603 2.82762ZM69.56 13.5954C69.189 14.081 69.3317 14.795 69.8169 15.1378L77.7801 20.8502C78.2653 21.2215 78.9789 21.0787 79.3214 20.5931C79.6924 20.1075 79.5497 19.3935 79.0645 19.0508L71.1013 13.3384C70.6161 12.9671 69.9311 13.1099 69.56 13.5954ZM63.8231 27.9049C63.7375 28.5047 64.1371 29.076 64.765 29.1902L74.4692 30.6754C75.0686 30.7611 75.6395 30.3613 75.7536 29.7329C75.8392 29.1331 75.4397 28.5619 74.8117 28.4476L65.1075 26.9624C64.5081 26.8767 63.9373 27.3051 63.8231 27.9049Z" fill="#FFDB60"/>
</g>
<defs>
<clipPath id="clip0">
<rect width="200" height="166.073" fill="white"/>
</clipPath>
</defs>
</svg>
