<svg width="200" height="167" viewBox="0 0 200 167" fill="none" xmlns="http://www.w3.org/2000/svg">
<path d="M77.6132 49.0009L73.3453 38.7425C73.3453 38.7425 72.1069 36.5449 70.8686 36.0256C69.6302 35.5063 61.4411 32.9896 61.4411 32.9896C61.4411 32.9896 60.281 32.7696 58.8429 33.3689C57.4048 33.9681 41.5246 40.8384 41.5246 40.8384C40.9888 41.0701 40.7342 40.987 40.7342 40.987C40.7342 40.987 37.418 39.1894 36.2196 38.9497C35.0212 38.71 33.4958 39.2006 33.4958 39.2006C33.0564 39.4802 14.6803 47.6693 14.6803 47.6693C14.6803 47.6693 13.8009 47.9894 13.3215 49.4675C12.8422 50.9455 12.2797 53.3817 12.2797 53.3817C12.2797 53.3817 12.2195 54.0411 11.0813 54.9599C9.94308 55.8787 1.85142 62.7299 0.253547 74.2346C-1.34433 85.7393 5.08713 93.4091 6.24559 95.2866C7.40405 97.1641 6.20458 109.788 8.4416 132.318C10.6786 154.849 24.5802 160.281 34.4071 158.763C44.2341 157.245 49.7467 147.019 49.9065 136.073C50.0663 125.128 50.1462 117.858 51.5843 115.94C53.0224 114.023 54.0008 114.98 54.8994 115.419C55.7984 115.859 57.514 115.459 61.0294 114.141C64.5447 112.823 75.0907 108.509 75.0907 108.509C75.0907 108.509 77.4475 107.59 78.4862 104.234C79.5248 100.879 80.2326 97.4469 80.4036 95.1263C81.2521 83.6051 80.2156 53.8734 77.6132 49.0009Z" fill="#111927"/>
<path d="M74.8526 54.2619L69.7394 42.0381C69.7394 42.0381 69.4997 41.5993 68.2214 41.1998C66.9431 40.8003 59.9124 38.6032 59.9124 38.6032C59.9124 38.6032 59.3532 38.363 58.6341 38.6826C57.9151 39.0022 42.0556 46.1127 42.0556 46.1127L38.9392 44.2757C38.9392 44.2757 38.1802 43.9561 37.4612 44.2757C36.7422 44.5953 20.8028 52.1048 20.8028 52.1048C20.8028 52.1048 20.1636 52.4446 20.3831 53.1237C20.6025 53.8028 21.0419 53.8624 21.6811 53.8827C22.3202 53.9029 28.1717 53.4033 33.4846 58.1969C38.7976 62.9906 39.4767 69.5019 39.996 70.0212C40.5153 70.5405 45.409 69.8013 47.1864 68.5629C48.9643 67.3245 49.2834 66.3461 49.2834 65.7267C49.2834 65.1078 49.1827 60.7733 49.2828 58.9959C49.383 57.2185 49.4229 57.0182 49.4229 57.0182C49.4229 57.0182 53.3968 54.5016 53.9161 53.9823C54.4355 53.463 56.9921 45.6334 57.8709 44.1154C58.7497 42.5974 60.028 42.4376 60.3476 42.4376C60.6672 42.4376 68.2576 44.9143 68.6171 45.0342C68.9767 45.154 71.6931 51.5056 72.6518 52.6241C73.6105 53.7426 74.8526 54.2619 74.8526 54.2619Z" fill="#A4B1CD"/>
<path d="M47.4415 78.0437C47.2461 77.9723 47.049 77.9078 46.8519 77.8477C50.9563 81.1643 52.3817 87.5478 49.9593 93.5777C47.0469 100.828 39.6748 104.82 33.4942 102.494C32.1994 102.006 31.0612 101.28 30.095 100.371C31.4068 102.699 33.4377 104.528 36.0561 105.482C42.7283 107.913 50.6858 103.741 53.8299 96.1641C56.974 88.587 54.1138 80.4746 47.4415 78.0437Z" fill="#7E8BA3"/>
<path d="M38.9568 97.6653C41.8543 97.6184 44.7683 95.5897 46.0807 92.4275C47.2226 89.6748 46.8503 86.788 45.3483 84.8535C45.8549 86.9622 45.6647 89.3441 44.6479 91.6573C43.4628 94.3545 41.3765 96.4504 38.9568 97.6653Z" fill="#7E8BA3"/>
<path d="M39.4756 80.479C36.0748 78.5157 31.2609 80.4859 28.724 84.8806C26.1866 89.2753 26.887 94.4295 30.2878 96.3928C33.6886 98.356 38.5025 96.3859 41.0394 91.9912C43.5768 87.5965 42.8764 82.4423 39.4756 80.479Z" fill="#7E8BA3"/>
<path d="M30.2814 82.7658C29.7035 83.3879 29.1773 84.0952 28.7235 84.8809C27.8633 86.3711 27.3759 87.9488 27.239 89.4598C27.3818 91.0242 28.1088 92.3744 29.3648 93.0993C31.7333 94.4671 35.0862 93.0939 36.8535 90.0329C38.6207 86.9719 38.1334 83.382 35.7643 82.0143C34.1243 81.0673 32.0119 81.4348 30.2814 82.7658Z" fill="#A4B1CD"/>
<path d="M75.455 90.7917C74.8728 89.9209 74.794 89.6881 74.4579 90.7662C73.7197 93.1342 71.92 100.463 71.6521 100.999C71.3325 101.639 70.3338 101.838 69.3751 101.299C68.4164 100.76 63.5631 97.5044 62.7439 97.1246C61.9247 96.7449 61.0459 97.9039 61.2856 98.9622C61.5252 100.021 63.4496 100.953 64.5367 101.611C65.6238 102.27 59.767 109.308 59.8469 109.828C59.9093 110.232 65.8001 108.161 69.8992 106.124C73.292 104.439 72.9863 104.409 73.9759 100.735C74.8696 97.4171 75.6867 93.4197 75.9434 92.1329C76.075 91.4714 75.8257 91.3462 75.455 90.7917Z" fill="#7E8BA3"/>
<path d="M55.5524 59.2122L52.796 57.854C52.796 57.854 52.6757 65.9233 53.2749 69.9579C53.8741 73.9926 56.7902 78.5465 56.91 78.2669C57.0299 77.9873 55.7111 73.9127 55.4714 67.9206C55.2317 61.9286 55.5524 59.2122 55.5524 59.2122Z" fill="#9FEF00"/>
<path d="M41.7126 115.38L36.2537 112.478C36.2537 112.478 34.9355 111.999 35.3749 113.237C35.8143 114.476 41.7664 119.029 42.0061 125.9C42.2458 132.771 41.8463 140.681 41.5267 144.756C41.2072 148.83 38.2111 151.786 38.7704 151.746C39.3297 151.706 43.8841 149.828 44.3635 140.96C44.6815 135.079 44.911 126.547 45.0298 121.465C45.1038 118.294 44.4594 116.84 41.7126 115.38Z" fill="#9FEF00"/>
<path d="M29.0239 152.405C29.0239 152.405 23.3514 146.013 22.5525 131.313C22.4662 129.718 22.3868 128.195 22.3139 126.743V126.742C19.4313 124.634 16.1604 121.141 13.2326 115.355C13.9809 129.087 16.4971 151.242 29.0239 152.405Z" fill="#A4B1CD"/>
<path d="M49.2834 65.7268C49.2834 66.3462 48.9643 67.3246 47.1864 68.563C45.409 69.8013 40.5153 70.5401 39.996 70.0208C39.4767 69.5015 38.7976 62.9901 33.4846 58.1965C28.1717 53.4029 22.3208 53.9025 21.6816 53.8822C21.0425 53.862 20.6025 53.8023 20.3831 53.1232C20.1636 52.4441 20.8028 52.1048 20.8028 52.1048C20.8028 52.1048 28.3054 48.5703 33.2481 46.2476C34.9792 46.8563 36.7794 47.7496 37.8511 49.022C40.4077 52.058 46.7593 64.841 48.0376 65.2804C49.1987 65.6793 49.2477 63.3752 49.2471 62.9486C49.2605 64.269 49.2834 65.429 49.2834 65.7268Z" fill="#7E8BA3"/>
<path d="M47.4415 78.0432C54.1137 80.4741 56.9745 88.5865 53.8304 96.1636C53.7814 96.2813 53.7313 96.3985 53.6802 96.5146C53.2429 95.0206 52.526 93.2417 51.3526 91.3242C51.1843 91.0494 51.0192 90.7862 50.8583 90.5338C51.8293 85.4951 50.2692 80.6083 46.8524 77.8472C47.0495 77.9074 47.2461 77.9718 47.4415 78.0432Z" fill="#9FEF00"/>
<path d="M20.2355 104.389C21.4819 107.594 21.7125 114.8 22.3139 126.743C19.4313 124.634 16.1604 121.141 13.2326 115.355C13.093 112.796 13.0153 110.53 12.9455 108.746C12.8198 105.544 12.8789 102.638 14.0438 101.472C15.5618 99.9544 18.8374 100.793 20.2355 104.389Z" fill="#7E8BA3"/>
<path d="M18.4188 57.4893C10.1141 59.3337 4.01709 69.0297 4.7633 79.287C5.16543 84.813 7.47223 89.384 10.8171 92.185L10.7239 92.1062C15.3194 88.9909 19.7232 84.1871 21.0137 76.9168C22.7884 66.9194 20.5333 60.8118 18.3996 57.4935L18.4188 57.4893ZM17.1207 95.0623L17.174 95.0697L17.1607 95.0681L17.1207 95.0623Z" fill="white"/>
<path d="M18.5716 57.4551C15.3865 58.1241 12.5231 59.9451 10.2339 62.5124C7.73961 67.5547 6.38567 73.9601 6.76064 80.5476C6.95665 83.9905 7.60698 87.1431 8.60832 89.8851C10.1375 91.8521 12.0379 93.3477 14.1684 94.2414C12.9338 93.7237 11.7764 93.0031 10.7239 92.1061C15.3194 88.9908 19.7232 84.187 21.0137 76.9167C22.7884 66.9193 20.5333 60.8117 18.3996 57.4934L18.5716 57.4551ZM14.4155 94.3421C14.4624 94.3607 14.5087 94.3788 14.5556 94.3964C14.5087 94.3788 14.4619 94.3607 14.4155 94.3421Z" fill="#A4B1CD"/>
<path d="M18.6494 57.4388L18.6456 57.4398L18.6414 57.4404L18.6377 57.4414L18.6339 57.442L18.6297 57.443L18.6259 57.4436L18.6222 57.4446L18.6185 57.4452L18.6142 57.4462L18.6105 57.4468L18.6062 57.4478L18.6025 57.4489L18.5988 57.4494L18.595 57.4505L18.5908 57.451L18.5871 57.4521L18.5833 57.4526L18.5791 57.4537L18.5753 57.4548L18.5716 57.4553L18.4001 57.4936C20.5338 60.8119 22.7884 66.9195 21.0137 76.9169C19.7231 84.1872 15.3194 88.991 10.7239 92.1063C11.7764 93.0033 12.9338 93.7239 14.1684 94.2416L14.187 94.2496C16.4821 95.2078 18.945 95.4246 21.3775 94.9287C22.2228 94.7567 23.0457 94.5021 23.8419 94.175C23.0164 90.9271 23.5703 86.9681 25.6497 83.3665C27.5836 80.0168 30.446 77.6551 33.4313 76.6101C34.4369 76.258 35.3397 75.6588 35.3222 74.4269C35.3158 73.98 35.2961 73.5305 35.2636 73.0804C34.5104 62.7277 27.0718 55.7248 18.6494 57.4388Z" fill="#7E8BA3"/>
<path d="M4.08047 71.926C5.75932 71.3689 7.43762 70.8102 9.11539 70.2514C9.52658 70.1146 10.2584 70.261 10.5849 70.546C11.6752 71.4967 12.7687 72.4453 13.8606 73.3945C14.619 74.0539 14.7586 74.3814 14.1423 75.3465C13.1229 76.9428 12.1045 78.5396 11.0834 80.1348C10.8608 80.4832 10.5732 80.6877 10.1769 80.7862C8.45387 81.2161 6.73083 81.6464 5.00778 82.0773L3.15424 82.5412L3.13134 80.6307C3.11696 79.4073 3.10311 78.1838 3.08873 76.9609C3.07488 75.7662 3.0605 74.571 3.04665 73.3764L3.03387 72.2738L4.08047 71.926ZM21.4377 80.6456C21.4089 80.1769 21.2779 79.9127 20.9274 79.6044C19.622 78.4565 18.3192 77.3055 17.0153 76.1561L16.472 75.6773C15.8329 75.1143 15.7418 75.2682 15.835 75.9516L16.0172 77.289L16.5386 81.8792L17.1932 87.6694L14.4784 91.0686L16.8108 90.7618C18.0821 90.5946 19.353 90.4268 20.6244 90.2595C21.5629 90.136 21.9916 89.5975 21.9341 88.6691C21.7684 85.9948 21.6028 83.3199 21.4377 80.6456ZM31.2204 75.5756C28.6574 76.2067 26.0944 76.8384 23.532 77.4722C22.9466 77.6166 22.7171 77.5676 22.2425 77.1985C20.8507 76.1162 19.4606 75.0318 18.071 73.9468C17.7732 73.714 16.8156 73.1148 17.7445 72.9625L19.0004 72.7564L28.4721 69.7843L29.9517 64.955L30.3507 64.334C30.9914 63.3358 31.2449 64.334 31.4042 65.2575C31.8942 68.1012 32.1062 71.0877 32.3618 73.9601C32.43 74.7234 31.972 75.3902 31.2204 75.5756ZM20.128 59.2852C20.0614 58.1875 19.7876 57.8247 18.9189 57.2927L17.9389 56.6924C16.8076 57.1851 15.6773 57.6783 14.546 58.1704C13.4883 58.6311 12.431 59.0929 11.3727 59.5526L10.4267 59.9638L10.4661 60.9944L10.5098 62.2099L12.032 60.9369L15.6667 70.1375L15.8211 71.0472C16.0363 72.3138 16.1722 72.1577 16.9413 70.947C18.0406 69.216 19.1373 67.4823 20.2361 65.7502C20.5312 65.2852 20.5024 65.3987 20.4688 64.849C20.3554 62.9944 20.2409 61.1393 20.128 59.2852Z" fill="#111927"/>
<path d="M4.55664 73.3582C4.57049 74.5448 4.58433 75.7401 4.59818 76.9427C4.61256 78.156 4.62694 79.3806 4.64133 80.6125C6.02136 80.2668 7.44719 79.9105 8.91991 79.543C9.69808 79.3486 10.0001 79.0258 10.4299 78.3537C10.9359 77.5616 11.4462 76.7627 11.9596 75.959C12.6994 74.8005 12.9844 74.6327 12.0576 73.8274C11.3284 73.1941 10.6126 72.5725 9.91219 71.9621C9.73642 71.8093 9.49781 71.715 9.26664 71.7917C7.64108 72.3328 6.07089 72.8554 4.55664 73.3582ZM19.0334 88.9454C18.2137 89.053 17.4089 89.1596 16.6137 89.2645C15.614 89.3961 14.6339 89.5249 13.6752 89.6512C13.0904 89.7284 13.0605 89.468 13.0424 89.003C12.954 86.7185 12.8667 84.465 12.783 82.2418C13.8456 80.6157 14.9258 78.964 16.0172 77.2884C17.1223 78.2626 18.2563 79.2644 19.4265 80.294C19.9788 80.7792 19.9234 80.62 19.9682 81.3481C20.0923 83.3614 20.2196 85.3992 20.3469 87.461C20.4198 88.6419 20.1572 88.7979 19.0334 88.9454ZM29.9517 64.9544C30.0992 66.4436 30.2484 67.9461 30.3986 69.4625C30.5003 70.4894 30.6036 71.5243 30.7064 72.5651C30.83 73.8151 30.6303 74.1651 29.3584 74.4783C27.435 74.9518 25.5767 75.4109 23.7812 75.8546C23.3413 75.9632 23.068 75.9265 22.7048 75.6442C21.4297 74.6519 20.1967 73.6894 19.0004 72.7558C20.1599 70.9965 21.3402 69.2122 22.5386 67.3959C24.9003 66.6194 27.369 65.805 29.9517 64.9544ZM17.2986 58.6177C16.5721 58.9341 15.8558 59.2462 15.1484 59.5541C14.0661 60.0255 13.0105 60.4857 11.9745 60.9363C12.0555 63.0641 12.1354 65.2212 12.219 67.4125C13.3327 68.2918 14.4811 69.2005 15.6667 70.1368C16.5375 68.7653 17.4158 67.3778 18.3053 65.9754C18.8678 65.0886 18.9445 64.7903 18.871 63.7299C18.7772 62.3813 18.7048 61.0422 18.6329 59.716C18.5823 58.7807 18.2196 58.2167 17.2986 58.6177Z" fill="#7E8BA3"/>
<path d="M4.55664 73.3585C4.57049 74.5452 4.58433 75.7405 4.59818 76.9431L4.62641 79.3426L7.47436 78.6315C8.16305 78.4595 8.48155 78.1607 8.86398 77.562C9.4733 76.6086 10.088 75.6456 10.7074 74.6752C11.2422 73.8379 11.4201 73.6765 10.725 73.0725L9.25546 71.7958C7.63362 72.3359 6.0677 72.8568 4.55664 73.3585ZM17.8734 88.0026C16.937 88.1256 16.0193 88.2465 15.1154 88.3658L13.0286 88.6406C12.945 86.4803 12.8624 84.3477 12.783 82.2422C13.7886 80.7029 14.8102 79.1407 15.8424 77.5572C16.4651 78.1064 17.0968 78.6635 17.7397 79.2297C18.4342 79.8411 18.4411 79.9674 18.4981 80.8941C18.6206 82.8846 18.7463 84.899 18.872 86.9362C18.9178 87.6782 18.5642 87.9115 17.8734 88.0026ZM28.6867 66.4041L28.9008 68.5644C29.0212 69.7782 29.1426 71.0033 29.2646 72.2363C29.3307 72.9016 28.9994 73.2994 28.3613 73.4566C26.1333 74.0052 23.9911 74.5341 21.9325 75.0432C20.9301 74.2624 19.9538 73.5002 19.0004 72.7561C20.1599 70.9969 21.3402 69.2131 22.5386 67.3969C24.1658 66.8621 25.8436 66.3087 27.5741 65.7383C28.1408 65.5519 28.626 65.7905 28.6867 66.4041ZM14.2893 69.0491C15.1793 67.6477 16.0763 66.2293 16.9855 64.7961C17.3109 64.2831 17.4387 63.6429 17.402 63.0405L17.1357 58.689L15.1484 59.5545C14.0661 60.0253 13.0105 60.486 11.9745 60.9366C12.0555 63.0645 12.1354 65.2216 12.219 67.4128L14.2893 69.0491Z" fill="#A4B1CD"/>
<path d="M4.55664 73.3581C4.57049 74.5448 4.58433 75.74 4.59818 76.9426L4.60617 77.6127C5.35078 77.4268 5.74333 77.0982 6.15505 76.4537C6.73508 75.5461 7.31937 74.6305 7.90845 73.708C8.24507 73.1807 8.49381 72.8174 8.51298 72.5953C8.52629 72.4393 8.43788 72.4228 8.14227 72.166C6.91404 72.5751 5.71936 72.9719 4.55664 73.3581ZM14.8028 86.9965L12.9743 87.2372C12.9231 85.9195 12.8725 84.6119 12.8235 83.3144C12.7809 82.1959 12.6813 82.3978 13.2906 81.4652C13.9458 80.4622 14.6078 79.4497 15.2741 78.4281C15.5926 78.7083 15.6949 78.9272 15.7215 79.356C15.8424 81.316 15.9655 83.3001 16.0896 85.3065C16.1652 86.5272 16.0464 86.833 14.8028 86.9965ZM26.1546 67.5152C26.2484 68.459 26.3426 69.4097 26.4369 70.3652C26.5642 71.6505 26.284 72.2427 25.0015 72.5586C23.3716 72.9602 21.7876 73.3511 20.2499 73.7309L19.0004 72.7557C20.1599 70.9964 21.3402 69.2126 22.5386 67.3964C23.4888 67.0843 24.4566 66.7652 25.4414 66.4409C26.1903 66.1942 26.1173 67.1397 26.1546 67.5152ZM12.2019 66.9612C12.9098 65.8448 13.623 64.7189 14.3436 63.5822C14.7474 62.9458 14.7239 63.1018 14.6781 62.3514L14.5231 59.8262C13.6581 60.2027 12.8102 60.5729 11.9745 60.9362C12.0496 62.9181 12.1247 64.925 12.2019 66.9612Z" fill="white"/>
<path d="M63.4214 49.419L64.7396 46.9019L71.0912 53.4137L63.4214 49.419Z" fill="#9FEF00"/>
<path d="M60.3481 42.4378C60.6677 42.4378 68.2576 44.9145 68.6172 45.0343C68.9767 45.1542 71.6931 51.5057 72.6518 52.6243C73.6105 53.7428 74.8531 54.2621 74.8531 54.2621L69.7399 42.0383C69.7399 42.0383 69.5002 41.5989 68.2219 41.1994C66.9436 40.8 59.913 38.6029 59.913 38.6029C59.913 38.6029 59.3537 38.3632 58.6347 38.6828C58.2757 38.842 54.1462 40.6934 50.0988 42.5076L56.6666 46.9795C57.1566 45.6847 57.5961 44.5907 57.8714 44.1156C58.7503 42.5976 60.0286 42.4378 60.3481 42.4378Z" fill="#7E8BA3"/>
<path d="M63.2153 100.811L64.4872 101.582C64.5037 101.592 64.5202 101.601 64.5367 101.611C64.5394 101.613 64.5415 101.614 64.5436 101.616L69.8497 104.829C69.8497 104.829 71.2073 105.48 72.2273 104.807C72.402 104.67 72.5485 104.532 72.6752 104.385C72.7072 104.344 72.7375 104.307 72.7674 104.272C73.2941 103.586 73.4561 102.661 73.9754 100.735C74.8691 97.4171 75.6862 93.4192 75.9429 92.1323C76.0745 91.4708 75.8257 91.3462 75.455 90.7917C74.8728 89.9209 74.794 89.6881 74.4579 90.7662C73.7197 93.1342 71.9194 100.463 71.6515 100.999C71.3319 101.639 70.3333 101.838 69.3745 101.299C68.4158 100.76 63.5625 97.5044 62.7434 97.1246C62.1244 96.8381 61.4714 97.4288 61.2925 98.1915C61.2344 98.4386 61.2264 98.7033 61.285 98.9622C61.4411 99.6509 62.3103 100.286 63.1982 100.827L63.2153 100.811Z" fill="#9FEF00"/>
<path d="M68.6166 45.0332C68.9762 45.153 71.6925 51.5046 72.6513 52.6231C73.61 53.7416 74.8526 54.2609 74.8526 54.2609L69.7394 42.0377C69.7394 42.0377 69.4997 41.5983 68.2214 41.1988C67.9375 41.1104 67.3703 40.933 66.6598 40.7109L68.6166 45.0332Z" fill="#9FEF00"/>
<path d="M64.0584 48.2015L68.9463 52.2963L71.0912 53.4137L64.7391 46.9019L64.0584 48.2015Z" fill="#9FEF00"/>
<path d="M162.435 38.2181L161.782 38.6027L162.478 38.2021C162.451 38.2117 162.435 38.2181 162.435 38.2181Z" fill="#A4B1CD"/>
<path d="M199.172 74.2346C197.574 62.7299 189.483 55.8787 188.345 54.9599C187.206 54.0411 187.146 53.3817 187.146 53.3817C187.146 53.3817 186.583 50.9455 186.104 49.4675C185.625 47.9894 184.745 47.6693 184.745 47.6693C184.745 47.6693 175.311 43.4648 169.801 40.9785C168.29 40.268 166.899 39.6139 165.844 39.1196C164.777 38.6189 164.053 38.2813 163.912 38.2189C163.292 37.9436 162.645 38.1422 162.478 38.2024L161.782 38.6035L157.901 40.8384C157.901 40.8384 142.021 33.9681 140.583 33.3689C139.145 32.7696 137.985 32.9896 137.985 32.9896C137.985 32.9896 129.796 35.5063 128.557 36.0256C127.32 36.5449 126.081 38.7425 126.081 38.7425L121.813 49.0014C119.765 53.3615 118.251 83.5997 119.023 95.1263C119.178 97.448 119.901 100.879 120.94 104.234C121.978 107.59 124.335 108.509 124.335 108.509C124.335 108.509 134.882 112.823 138.397 114.141C141.912 115.459 143.628 115.859 144.527 115.419C145.425 114.98 146.404 114.023 147.842 115.94C149.279 117.858 149.359 125.128 149.519 136.073C149.679 147.019 155.191 157.245 165.019 158.763C174.846 160.281 188.748 154.849 190.985 132.318C193.222 109.788 192.022 97.1641 193.18 95.2866C194.339 93.4091 200.77 85.7393 199.172 74.2346Z" fill="#111927"/>
<path d="M124.706 54.2619L129.819 42.0381C129.819 42.0381 130.059 41.5993 131.337 41.1998C132.616 40.8003 139.646 38.6032 139.646 38.6032C139.646 38.6032 140.205 38.363 140.925 38.6826C141.644 39.0022 157.503 46.1127 157.503 46.1127L160.619 44.2757C160.619 44.2757 161.378 43.9561 162.097 44.2757C162.817 44.5953 178.756 52.1048 178.756 52.1048C178.756 52.1048 179.395 52.4446 179.176 53.1237C178.956 53.8028 178.517 53.8624 177.878 53.8827C177.238 53.9029 171.387 53.4033 166.074 58.1969C160.761 62.9906 160.082 69.5019 159.563 70.0212C159.043 70.5405 154.15 69.8013 152.372 68.5629C150.594 67.3245 150.275 66.3461 150.275 65.7267C150.275 65.1078 150.376 60.7733 150.276 58.9959C150.176 57.2185 150.136 57.0182 150.136 57.0182C150.136 57.0182 146.162 54.5016 145.643 53.9823C145.123 53.463 142.567 45.6334 141.688 44.1154C140.809 42.5974 139.531 42.4376 139.211 42.4376C138.891 42.4376 131.301 44.9143 130.942 45.0342C130.582 45.154 127.866 51.5056 126.907 52.6241C125.948 53.7426 124.706 54.2619 124.706 54.2619Z" fill="#A4B1CD"/>
<path d="M152.118 78.0437C152.313 77.9723 152.51 77.9078 152.707 77.8477C148.603 81.1643 147.178 87.5478 149.6 93.5777C152.512 100.828 159.884 104.82 166.065 102.494C167.359 102.006 168.498 101.28 169.464 100.371C168.152 102.699 166.121 104.528 163.503 105.482C156.831 107.913 148.873 103.741 145.729 96.1641C142.585 88.587 145.445 80.4746 152.118 78.0437Z" fill="#7E8BA3"/>
<path d="M160.603 97.6653C157.705 97.6184 154.791 95.5897 153.479 92.4275C152.337 89.6748 152.709 86.788 154.211 84.8535C153.705 86.9622 153.895 89.3441 154.912 91.6573C156.097 94.3545 158.183 96.4504 160.603 97.6653Z" fill="#7E8BA3"/>
<path d="M160.084 80.479C163.484 78.5157 168.298 80.4859 170.835 84.8806C173.373 89.2753 172.672 94.4295 169.271 96.3928C165.871 98.356 161.057 96.3859 158.52 91.9912C155.982 87.5965 156.683 82.4423 160.084 80.479Z" fill="#7E8BA3"/>
<path d="M169.278 82.7658C169.856 83.3879 170.382 84.0952 170.836 84.8809C171.696 86.3711 172.183 87.9488 172.32 89.4598C172.177 91.0242 171.45 92.3744 170.194 93.0993C167.826 94.4671 164.473 93.0939 162.706 90.0329C160.938 86.9719 161.426 83.382 163.795 82.0143C165.435 81.0673 167.547 81.4348 169.278 82.7658Z" fill="#A4B1CD"/>
<path d="M144.007 59.2122L146.764 57.854C146.764 57.854 146.884 65.9233 146.285 69.9579C145.686 73.9926 142.77 78.5465 142.65 78.2669C142.53 77.9873 143.849 73.9127 144.088 67.9206C144.328 61.9286 144.007 59.2122 144.007 59.2122Z" fill="#9FEF00"/>
<path d="M157.847 115.38L163.305 112.478C163.305 112.478 164.624 111.999 164.184 113.237C163.745 114.476 157.792 119.029 157.553 125.9C157.313 132.771 157.712 140.681 158.032 144.756C158.351 148.83 161.348 151.786 160.789 151.746C160.23 151.706 155.675 149.828 155.196 140.96C154.878 135.079 154.648 126.547 154.529 121.465C154.455 118.294 155.1 116.84 157.847 115.38Z" fill="#9FEF00"/>
<path d="M170.535 152.405C170.535 152.405 176.208 146.013 177.007 131.313C177.093 129.718 177.172 128.195 177.245 126.743V126.742C180.128 124.634 183.399 121.141 186.327 115.355C185.578 129.087 183.062 151.242 170.535 152.405Z" fill="#A4B1CD"/>
<path d="M150.276 65.7268C150.276 66.3462 150.595 67.3246 152.373 68.563C154.15 69.8013 159.044 70.5401 159.563 70.0208C160.083 69.5015 160.762 62.9901 166.075 58.1965C171.388 53.4029 177.238 53.9025 177.878 53.8822C178.517 53.862 178.957 53.8023 179.176 53.1232C179.396 52.4441 178.756 52.1048 178.756 52.1048C178.756 52.1048 171.254 48.5703 166.312 46.2476C164.581 46.8563 162.78 47.7496 161.708 49.022C159.151 52.058 152.8 64.841 151.522 65.2804C150.36 65.6793 150.311 63.3752 150.312 62.9486C150.299 64.269 150.276 65.429 150.276 65.7268Z" fill="#7E8BA3"/>
<path d="M152.118 78.0432C145.446 80.4741 142.586 88.5865 145.729 96.1636C145.778 96.2813 145.828 96.3985 145.88 96.5146C146.317 95.0206 147.034 93.2417 148.208 91.3242C148.376 91.0494 148.541 90.7862 148.701 90.5338C147.73 85.4951 149.29 80.6083 152.707 77.8472C152.51 77.9074 152.314 77.9718 152.118 78.0432Z" fill="#9FEF00"/>
<path d="M185.444 59.528C189.132 61.9499 191.997 66.0356 193.419 70.8117C192.737 70.5731 192.022 70.4436 191.293 70.4436C187.563 70.4436 184.875 73.8152 185.289 77.9744C185.702 82.1337 189.061 85.5052 192.791 85.5052C192.849 85.5052 192.908 85.5047 192.966 85.5031C191.227 89.9388 188.054 93.1846 184.217 94.5173C185.763 93.2219 186.646 91.0637 186.402 88.619C186.008 84.6568 182.809 81.445 179.256 81.445C176.984 81.445 175.118 82.7585 174.171 84.7415C173.957 84.2791 173.72 83.8195 173.458 83.3662C171.524 80.0165 168.662 77.6549 165.676 76.6099C164.671 76.2578 163.768 75.6591 163.785 74.4272C163.792 73.9803 163.811 73.5302 163.844 73.0801C163.895 72.3867 163.975 71.7092 164.084 71.0471C164.641 74.5827 167.554 77.379 170.776 77.379C174.132 77.379 176.55 74.3462 176.178 70.604C175.806 66.8617 172.784 63.8279 169.429 63.8279C168.115 63.8279 166.945 64.2934 166.03 65.0838C168.125 61.0465 171.512 58.2657 175.452 57.438C175.01 58.368 174.81 59.4737 174.928 60.6604C175.257 63.9632 177.924 66.6407 180.885 66.6407C183.847 66.6407 185.981 63.9632 185.653 60.6604C185.614 60.2732 185.544 59.895 185.444 59.528Z" fill="#7E8BA3"/>
<path d="M185.444 59.5278C189.131 61.9497 191.997 66.0355 193.419 70.8115C192.737 70.5729 192.023 70.4435 191.292 70.4435C187.563 70.4435 184.875 73.815 185.289 77.9743C185.702 82.1335 189.061 85.5051 192.791 85.5051C192.849 85.5051 192.908 85.5045 192.965 85.5029C191.724 88.671 189.75 91.2319 187.326 92.9224C186.849 92.6955 186.376 92.4478 185.91 92.1778C186.344 91.1291 186.531 89.9141 186.402 88.6188C186.008 84.6566 182.809 81.4443 179.256 81.4443C178.79 81.4443 178.341 81.5002 177.913 81.6052C177.698 80.81 177.52 79.9695 177.383 79.0805C176.818 75.3766 176.661 70.2592 177.238 65.188C178.267 66.093 179.546 66.6405 180.885 66.6405C183.847 66.6405 185.982 63.963 185.653 60.6602C185.615 60.273 185.543 59.8948 185.444 59.5278Z" fill="#A4B1CD"/>
<path d="M191.76 72.6638C194.227 72.6638 196.449 74.8944 196.722 77.6454C196.996 80.397 195.218 82.6271 192.751 82.6271C190.284 82.6271 188.062 80.397 187.788 77.6454C187.515 74.8944 189.293 72.6638 191.76 72.6638ZM182.674 56.5977C185.477 56.5977 188 59.1314 188.311 62.2568C188.622 65.3823 186.602 67.916 183.799 67.916C180.997 67.916 178.474 65.3823 178.163 62.2568C177.851 59.1314 179.871 56.5977 182.674 56.5977ZM171.009 63.4286C173.812 63.4286 176.336 65.9623 176.647 69.0877C176.957 72.2132 174.937 74.7469 172.135 74.7469C169.332 74.7469 166.809 72.2132 166.498 69.0877C166.188 65.9623 168.207 63.4286 171.009 63.4286ZM180.117 78.0891C182.919 78.0891 185.444 80.6228 185.755 83.7483C186.066 86.8737 184.045 89.4074 181.243 89.4074C178.441 89.4074 175.917 86.8737 175.606 83.7483C175.295 80.6228 177.315 78.0891 180.117 78.0891Z" fill="#7E8BA3"/>
<path d="M191.76 72.6638C194.227 72.6638 196.449 74.8944 196.722 77.6454C196.905 79.4787 196.176 81.0803 194.94 81.9453C194.817 81.957 194.691 81.9634 194.564 81.9634C192.097 81.9634 189.875 79.7328 189.601 76.9818C189.419 75.1485 190.148 73.5469 191.384 72.6819C191.507 72.6702 191.633 72.6638 191.76 72.6638ZM186.175 67.2166C185.992 67.2395 185.804 67.2518 185.613 67.2518C182.81 67.2518 180.287 64.7186 179.976 61.5932C179.764 59.4563 180.64 57.5958 182.112 56.6328C182.295 56.6099 182.483 56.5977 182.674 56.5977C185.477 56.5977 188 59.1314 188.311 62.2568C188.524 64.3937 187.647 66.2536 186.175 67.2166ZM174.51 74.0475C174.327 74.0704 174.14 74.0827 173.948 74.0827C171.146 74.0827 168.622 71.5495 168.311 68.4241C168.099 66.2872 168.976 64.4273 170.447 63.4643C170.631 63.4414 170.818 63.4286 171.009 63.4286C173.812 63.4286 176.336 65.9623 176.647 69.0877C176.859 71.2246 175.982 73.0846 174.51 74.0475ZM183.618 88.7081C183.435 88.731 183.247 88.7432 183.056 88.7432C180.254 88.7432 177.731 86.2101 177.419 83.0846C177.207 80.9477 178.084 79.0873 179.555 78.1243C179.739 78.1014 179.926 78.0891 180.117 78.0891C182.919 78.0891 185.444 80.6228 185.755 83.7483C185.967 85.8852 185.09 87.7451 183.618 88.7081Z" fill="#A4B1CD"/>
<path d="M182.215 79.7143C182.65 79.5023 183.123 79.432 183.593 79.4853C184.761 80.5223 185.585 82.0478 185.754 83.7479C185.815 84.3604 185.787 84.9506 185.68 85.5029C185.533 85.6249 185.371 85.7309 185.194 85.8172C183.781 86.5064 181.969 85.6989 181.147 84.0137C180.324 82.3285 180.803 80.4036 182.215 79.7143Z" fill="white"/>
<path d="M194.483 73.6177C195.688 74.5237 196.557 75.9905 196.722 77.6459C196.806 78.4923 196.696 79.2896 196.432 79.9879C195.026 80.6366 193.245 79.8286 192.433 78.162C191.61 76.4768 192.089 74.5514 193.501 73.8622C193.814 73.7093 194.146 73.6305 194.483 73.6177Z" fill="white"/>
<path d="M184.478 57.9711C184.91 57.7607 185.379 57.6899 185.846 57.741C187.173 58.7743 188.128 60.4127 188.311 62.2572C188.349 62.6353 188.353 63.0055 188.324 63.3629C188.095 63.6606 187.805 63.9046 187.457 64.0745C186.044 64.7637 184.232 63.9562 183.41 62.271C182.588 60.5858 183.066 58.6609 184.478 57.9711Z" fill="white"/>
<path d="M172.544 65.0613C173.227 64.7279 174.004 64.7444 174.716 65.0411C175.761 66.0685 176.489 67.5018 176.647 69.0875C176.678 69.398 176.685 69.7032 176.671 70.0004C176.422 70.5037 176.034 70.9144 175.522 71.1642C174.11 71.8534 172.298 71.0459 171.475 69.3607C170.653 67.6755 171.131 65.7511 172.544 65.0613Z" fill="white"/>
<path d="M179.324 104.389C178.077 107.594 177.847 114.8 177.245 126.743C180.128 124.634 183.399 121.141 186.327 115.355C186.466 112.796 186.544 110.53 186.614 108.746C186.739 105.544 186.68 102.638 185.515 101.472C183.997 99.9544 180.722 100.793 179.324 104.389Z" fill="#7E8BA3"/>
<path d="M133.159 94.3133C133.83 94.3133 134.378 93.7657 134.378 93.0946C134.378 92.4235 133.83 91.876 133.159 91.876C132.488 91.876 131.941 92.4235 131.941 93.0946C131.941 93.7657 132.488 94.3133 133.159 94.3133Z" fill="#BEFF3D"/>
<path d="M139.212 42.4378C139.531 42.4378 140.809 42.5976 141.688 44.1156C141.814 44.3323 141.974 44.6786 142.157 45.1137L147.1 41.4492C143.939 40.0325 141.213 38.8111 140.925 38.6828C140.205 38.3632 139.647 38.6029 139.647 38.6029C139.647 38.6029 132.616 40.8 131.338 41.1994C130.059 41.5989 129.819 42.0383 129.819 42.0383L124.706 54.2621C124.706 54.2621 125.949 53.7428 126.908 52.6243C127.866 51.5057 130.582 45.1542 130.942 45.0343C131.302 44.9145 138.892 42.4378 139.212 42.4378Z" fill="#7E8BA3"/>
<path d="M130.942 45.0332C130.583 45.153 127.866 51.5046 126.907 52.6231C125.949 53.7416 124.706 54.2609 124.706 54.2609L129.819 42.0377C129.819 42.0377 130.059 41.5983 131.337 41.1988C131.621 41.1104 132.188 40.933 132.899 40.7109L130.942 45.0332Z" fill="#9FEF00"/>
<path d="M124.104 90.7917C124.686 89.9209 124.765 89.6881 125.101 90.7662C125.84 93.1342 127.639 100.463 127.907 100.999C128.227 101.639 129.225 101.838 130.184 101.299C131.143 100.76 135.996 97.5044 136.815 97.1246C137.635 96.7449 138.513 97.9039 138.274 98.9622C138.034 100.021 136.11 100.953 135.023 101.611C133.935 102.27 139.792 109.308 139.712 109.828C139.65 110.232 133.759 108.161 129.66 106.124C126.267 104.439 126.573 104.409 125.583 100.735C124.69 97.4171 123.873 93.4197 123.616 92.1329C123.485 91.4714 123.734 91.3462 124.104 90.7917Z" fill="#7E8BA3"/>
<path d="M136.344 100.811L135.072 101.582C135.055 101.592 135.039 101.601 135.022 101.611C135.02 101.613 135.018 101.614 135.016 101.616L129.71 104.829C129.71 104.829 128.352 105.48 127.332 104.807C127.157 104.67 127.011 104.532 126.884 104.385C126.853 104.344 126.821 104.307 126.792 104.272C126.265 103.586 126.103 102.661 125.584 100.735C124.69 97.4171 123.873 93.4192 123.616 92.1323C123.485 91.4708 123.733 91.3462 124.104 90.7917C124.686 89.9209 124.765 89.6881 125.101 90.7662C125.839 93.1342 127.64 100.463 127.908 100.999C128.227 101.639 129.226 101.838 130.185 101.299C131.143 100.76 135.997 97.5044 136.816 97.1246C137.435 96.8381 138.087 97.4288 138.266 98.1915C138.324 98.4386 138.333 98.7033 138.274 98.9622C138.118 99.6509 137.249 100.286 136.361 100.827L136.344 100.811Z" fill="#9FEF00"/>
<path d="M72.7735 23.0163L80.6698 26.1659L85.8799 41.1282L83.0856 40.637L88.0392 48.3501C91.5896 46.4726 95.6404 45.4164 99.9376 45.4345C109.836 45.4761 118.38 51.2043 122.491 59.5109L121.12 64.0165L133.514 55.8289L129.765 54.4149L159.979 32.2115L170.595 33.8657L138.159 53.2918L143.426 54.8319L124.534 65.3619C124.912 67.1169 125.108 68.9399 125.1 70.8094C125.059 80.6389 119.411 89.133 111.198 93.2764L117.478 108.381L113.995 109.924L108.677 92.0056L107.447 94.802C105.011 95.5716 102.417 95.983 99.725 95.9717C85.7693 95.913 74.504 84.5525 74.5627 70.5968C74.571 68.6181 74.8071 66.6942 75.2447 64.8483L41.7516 47.2942L47.2703 45.8793L22.0738 33.9489L37.416 33.3743L57.8897 47.4419L51.9762 47.7366L75.9656 62.3831C77.9011 56.8301 81.7189 52.1627 86.6515 49.1406L78.7414 38.2619L81.3396 37.8733L72.7735 23.0163ZM64.1788 15.575L69.5432 24.8787L75.3761 34.9949L72.1112 35.4829L75.726 40.4543L81.4278 48.2957C78.5032 50.7021 76.071 53.6607 74.2807 56.9864L64.244 50.8583L69.0941 50.6167L60.0012 44.369L39.5274 30.3013L38.5099 29.602L37.2761 29.6485L21.9339 30.2231L6.69828 30.7939L20.4782 37.3185L36.3451 44.8314L31.4268 46.0923L40.021 50.5966L71.0854 66.8777C70.9236 68.1032 70.8396 69.3412 70.8343 70.5811C70.7671 86.5699 83.7206 99.6328 99.7093 99.7001C102.118 99.7102 104.502 99.4251 106.819 98.8506L110.42 110.985L111.627 115.052L115.506 113.333L118.989 111.789L122.319 110.313L120.92 106.949L115.892 94.8541C123.909 89.5375 128.787 80.613 128.828 70.8251C128.833 69.6608 128.769 68.4972 128.636 67.3446L145.241 58.0886L153.019 53.7532L147.393 52.1077L172.511 37.0643L181.354 31.7682L171.17 30.1818L160.553 28.5276L159.021 28.2889L157.771 29.2072L127.557 51.4107L123.71 54.2377C118.368 46.4574 109.594 41.7467 99.9533 41.7061C96.7554 41.6927 93.5718 42.2114 90.5582 43.2256L89.4009 39.9019L84.1908 24.9397L83.6314 23.3331L82.0511 22.7027L74.1542 19.5536L64.1788 15.575ZM125.282 56.7988C125.261 56.7609 125.24 56.723 125.22 56.6856L125.368 56.7416L125.282 56.7988Z" fill="#111927"/>
<path d="M128.231 68.192L134.597 64.7034L133.748 67.1367L140.995 63.452L140.135 68.2421L130.296 71.1568L131.49 67.6864L128.231 68.192Z" fill="#9FEF00"/>
<path d="M126.563 80.4888L133.132 85.8693L135.981 82.8054L126.563 80.4888Z" fill="#9FEF00"/>
<path d="M134.183 78.204C135.03 78.2075 135.724 77.5196 135.727 76.6722C135.731 75.8254 135.043 75.1311 134.196 75.1276C133.349 75.124 132.656 75.8124 132.652 76.6593C132.648 77.5067 133.336 78.2004 134.183 78.204Z" fill="#9FEF00"/>
<path d="M99.9376 45.4334C109.836 45.4751 118.38 51.2032 122.491 59.5098L121.12 64.016L133.514 55.8283L129.765 54.4144L159.979 32.211L170.596 33.8647L138.159 53.2912L143.426 54.8314L124.535 65.3614C124.913 67.1164 125.108 68.9388 125.1 70.8083C125.059 80.6378 119.411 89.1325 111.199 93.2759L117.478 108.38L113.995 109.924L108.677 92.0051L107.447 94.8015C105.011 95.571 102.417 95.982 99.725 95.9706C85.7693 95.9119 74.504 84.5515 74.5627 70.5957C74.571 68.6171 74.8076 66.6937 75.2452 64.8478L41.7516 47.2931L47.2703 45.8782L22.0738 33.9478L37.416 33.3732L57.8902 47.4409L51.9763 47.7356L75.9656 62.3821C77.9011 56.829 81.7189 52.1617 86.6515 49.1395L78.7414 38.2608L81.3396 37.8723L72.7735 23.0158L80.6698 26.1649L85.8799 41.1271L83.0856 40.636L88.0392 48.3491C91.5901 46.4716 95.6404 45.4153 99.9376 45.4334Z" fill="#9FEF00"/>
<path d="M99.7385 92.7625C112.016 92.8142 122.071 82.8435 122.123 70.5661C122.175 58.2892 112.203 48.2338 99.926 48.1821C87.6486 48.1305 77.5932 58.1017 77.5415 70.3786C77.4899 82.656 87.4611 92.7109 99.7385 92.7625Z" fill="#BEFF3D"/>
<path d="M131.693 70.0669L139.225 66.9939L139.54 65.2434L132.727 68.7077L133.142 66.4948L131.693 70.0669Z" fill="white"/>
<path d="M99.7669 86.008C108.324 86.044 115.332 79.0944 115.368 70.5373C115.404 61.9802 108.455 54.9719 99.8976 54.936C91.3405 54.9 84.3323 61.8495 84.2963 70.4066C84.2603 78.9637 91.2098 85.972 99.7669 86.008Z" fill="#D5FF80"/>
<path d="M99.7786 83.2442C106.813 83.2738 112.575 77.5606 112.605 70.5257C112.634 63.4908 106.921 57.7293 99.886 57.6997C92.8511 57.6701 87.0896 63.3834 87.06 70.4183C87.0304 77.4531 92.7437 83.2146 99.7786 83.2442Z" fill="white"/>
<path d="M60.9023 62.874L61.292 65.1926L70.713 66.7502L60.9023 62.874Z" fill="#9FEF00"/>
<path d="M72.946 77.2269L65.4543 82.3485L68.9268 83.0423C68.9268 83.0423 59.5141 88.9948 59.8337 88.9961C60.1533 88.9974 63.8248 89.8512 63.8248 89.8512L73.6469 81.5436L70.0547 80.8094L72.946 77.2269Z" fill="#9FEF00"/>
<path d="M71.2304 82.0183L62.3837 88.6603C63.0345 88.8106 63.5421 88.9299 63.5421 88.9299L72.0624 82.1427L71.2304 82.0183L68.3459 81.4751L70.5401 82.5369L71.2304 82.0183Z" fill="white"/>
<path d="M67.5426 75.3026C68.4336 75.3063 69.1637 74.5824 69.1675 73.6913C69.1712 72.8002 68.4472 72.0701 67.5562 72.0664C66.6651 72.0626 65.935 72.7866 65.9313 73.6777C65.9275 74.5687 66.6515 75.2988 67.5426 75.3026Z" fill="#9FEF00"/>
<path d="M110.964 95.8296L114.138 106.978L114.596 104.908L114.775 103.985L110.964 95.8296Z" fill="white"/>
<path d="M123.922 63.9744L139.54 55.2688L134.42 53.7713L166.239 34.7145L160.367 33.7997L132.901 53.9838L136.813 55.4591L123.922 63.9744Z" fill="white"/>
<path d="M67.8824 59.2112L49.3146 47.8744L53.4719 46.2162L37.1959 35.0328L28.6927 35.3513L51.1559 45.9876L46.2733 47.8856L67.8824 59.2112Z" fill="white"/>
<path d="M84.3586 39.6343L79.0234 27.0461L77.1554 26.4385L83.0098 38.6486L80.6859 39.1704L84.3586 39.6343Z" fill="white"/>
<path d="M128.064 80.8584L134.449 84.4539L135.981 82.806L128.064 80.8584Z" fill="white"/>
<path d="M103.774 50.853C111.75 52.4493 118.033 58.7316 119.629 66.7072H117.054C115.538 60.1244 110.357 54.9436 103.774 53.4277V50.853ZM119.629 74.6971C118.033 82.6726 111.75 88.955 103.774 90.5512V87.9771C110.357 86.4612 115.538 81.2798 117.054 74.6971H119.629ZM95.7849 90.5512C87.8094 88.955 81.5265 82.6726 79.9302 74.6971H82.5049C84.0208 81.2798 89.2022 86.4607 95.7849 87.9765V90.5512ZM79.9302 66.7072C81.5265 58.7316 87.8094 52.4493 95.7849 50.853V53.4277C89.2022 54.9436 84.0208 60.1244 82.5049 66.7072H79.9302Z" fill="#70A800"/>
<path d="M121.771 69.2252C121.771 69.6401 121.771 70.0567 121.771 70.4716C121.771 70.887 121.771 71.303 121.771 71.7184C121.771 71.9469 121.616 72.1153 121.426 72.0934C120.642 72.0023 119.857 71.9107 119.074 71.8191C118.29 71.7275 117.506 71.6364 116.723 71.5448C116.533 71.523 116.378 71.3882 116.378 71.246C116.378 70.9882 116.378 70.7288 116.378 70.471C116.378 70.2132 116.378 69.9549 116.378 69.6971C116.378 69.5549 116.533 69.4202 116.723 69.3983C117.506 69.3067 118.29 69.2156 119.074 69.124C119.857 69.0324 120.642 68.9408 121.426 68.8497C121.616 68.8279 121.771 68.9967 121.771 69.2252ZM98.5332 48.48C98.9481 48.48 99.3647 48.48 99.7796 48.48C100.195 48.48 100.611 48.48 101.026 48.48C101.255 48.48 101.423 48.6355 101.401 48.8251C101.31 49.6091 101.219 50.3937 101.127 51.1772C101.035 51.9607 100.944 52.7447 100.853 53.5282C100.831 53.7178 100.696 53.8728 100.554 53.8728C100.296 53.8728 100.037 53.8728 99.779 53.8728C99.5212 53.8728 99.2629 53.8728 99.0051 53.8728C98.8629 53.8728 98.7287 53.7178 98.7069 53.5282C98.6152 52.7447 98.5236 51.9607 98.432 51.1772C98.3404 50.3937 98.2483 49.6091 98.1572 48.8251C98.1354 48.6355 98.3042 48.48 98.5332 48.48ZM77.788 69.2252C77.788 69.6401 77.788 70.0567 77.788 70.4716C77.788 70.887 77.788 71.303 77.788 71.7184C77.788 71.9469 77.9435 72.1153 78.1331 72.0934C78.9171 72.0023 79.7017 71.9107 80.4852 71.8191C81.2687 71.7275 82.0527 71.6364 82.8362 71.5448C83.0258 71.523 83.1808 71.3882 83.1808 71.246C83.1808 70.9882 83.1808 70.7288 83.1808 70.471C83.1808 70.2132 83.1808 69.9549 83.1808 69.6971C83.1808 69.5549 83.0258 69.4202 82.8362 69.3983C82.0527 69.3067 81.2687 69.2156 80.4852 69.124C79.7017 69.0324 78.9171 68.9408 78.1331 68.8497C77.9435 68.8279 77.788 68.9967 77.788 69.2252ZM98.5332 92.4632C98.9481 92.4632 99.3647 92.4632 99.7796 92.4632C100.195 92.4632 100.611 92.4632 101.026 92.4632C101.255 92.4632 101.423 92.3076 101.401 92.118C101.31 91.334 101.219 90.5494 101.127 89.7659C101.035 88.9824 100.944 88.1984 100.853 87.4149C100.831 87.2253 100.696 87.0703 100.554 87.0703C100.296 87.0703 100.037 87.0703 99.779 87.0703C99.5212 87.0703 99.2629 87.0703 99.0051 87.0703C98.8629 87.0703 98.7287 87.2253 98.7069 87.4149C98.6152 88.1984 98.5236 88.9824 98.432 89.7659C98.3404 90.5494 98.2483 91.334 98.1572 92.118C98.1354 92.3076 98.3042 92.4632 98.5332 92.4632Z" fill="#70A800"/>
<path d="M89.844 70.6901C89.844 69.3642 89.8335 68.0382 89.8471 66.7124C89.8594 65.513 90.3816 64.5966 91.4378 64.0093C93.4299 62.9015 95.425 61.7989 97.4199 60.6961C97.8591 60.4534 98.2865 60.1783 98.7485 59.9899C99.6878 59.607 100.598 59.7272 101.47 60.2447C103.451 61.4205 105.44 62.5836 107.423 63.7578C107.853 64.0131 108.3 64.2558 108.686 64.5704C109.41 65.1607 109.73 65.9643 109.722 66.8932C109.7 69.5296 109.683 72.1662 109.642 74.8024C109.623 75.977 109.063 76.8669 108.047 77.4355C105.683 78.7589 103.312 80.0703 100.929 81.3594C100.553 81.563 100.107 81.6963 99.682 81.7303C99.3452 81.7573 98.9766 81.6213 98.6506 81.4878C98.2331 81.3168 97.8349 81.0917 97.4446 80.8622C95.3901 79.6545 93.3393 78.4404 91.2902 77.2236C90.2881 76.6285 89.8525 75.7369 89.8443 74.573C89.8351 73.2788 89.8422 71.9844 89.8422 70.6901C89.8662 70.6901 89.82 70.6901 89.844 70.6901ZM107.706 67.3963C107.634 67.4316 107.557 67.4648 107.485 67.5057C106.685 67.9543 105.886 68.4037 105.088 68.8535C103.678 69.6473 102.269 70.4427 100.858 71.233C100.748 71.2945 100.701 71.3573 100.701 71.49C100.699 72.3366 100.686 73.1831 100.678 74.0297C100.664 75.4356 100.651 76.8416 100.639 78.2475C100.636 78.5789 100.638 78.9103 100.638 79.2658C100.715 79.2275 100.771 79.2022 100.824 79.1726C101.402 78.8512 101.98 78.5283 102.558 78.2075C104.035 77.388 105.511 76.5654 106.992 75.7531C107.423 75.5165 107.649 75.1904 107.651 74.6813C107.658 73.1077 107.69 71.5342 107.705 69.9606C107.713 69.1145 107.706 68.2681 107.706 67.3963ZM91.8469 67.194C91.84 67.2844 91.8349 67.3238 91.8344 67.3633C91.8059 69.7357 91.7805 72.1083 91.7475 74.4807C91.7407 74.9703 91.9441 75.3065 92.3675 75.554C94.1909 76.6198 96.0061 77.6998 97.8245 78.7743C98.0827 78.9268 98.3421 79.0774 98.6198 79.24C98.6314 79.1769 98.6411 79.1479 98.6414 79.1188C98.666 76.5864 98.6871 74.0541 98.7188 71.5219C98.7213 71.3141 98.6203 71.2293 98.4674 71.1384C96.761 70.1245 95.0573 69.1059 93.3527 68.0891C92.8622 67.7965 92.3708 67.5054 91.8469 67.194ZM106.711 65.651C106.604 65.5839 106.526 65.5323 106.446 65.4851C105.607 64.992 104.769 64.4995 103.93 64.0071C102.748 63.3131 101.564 62.6222 100.385 61.9235C100.045 61.7219 99.7122 61.7084 99.3679 61.8988C99.2774 61.9488 99.1831 61.9923 99.0926 62.0424C97.5726 62.8834 96.0527 63.7246 94.5332 64.5666C93.9933 64.8657 93.4544 65.1668 92.883 65.4848C92.9876 65.549 93.0603 65.5946 93.134 65.6387C95.2275 66.8897 97.3244 68.1351 99.4101 69.399C99.6484 69.5434 99.808 69.5489 100.046 69.4131C101.881 68.3678 103.725 67.3385 105.566 66.3033C105.938 66.0939 106.308 65.8804 106.711 65.651Z" fill="#111927"/>
</svg>
