<svg width="200" height="167" viewBox="0 0 200 167" fill="none" xmlns="http://www.w3.org/2000/svg">
<g clip-path="url(#clip0)">
<path fill-rule="evenodd" clip-rule="evenodd" d="M112.007 31.6442C130.049 32.4684 146.351 39.3374 157.25 50.2361C170.438 63.4244 177.948 85.2218 174.743 103.539C163.752 166.275 61.9091 191.37 33.1512 133.396C24.4506 115.811 21.7946 99.6924 29.8541 80.551C36.2651 65.3477 48.3545 52.7089 62.7334 44.1914C77.5703 35.3076 94.6968 30.9115 112.007 31.6442Z" fill="#111927"/>
<path d="M75.9217 54.3579L78.8525 61.9595L75.189 56.6475L72.2583 49.0459L75.9217 54.3579Z" fill="#68748E"/>
<path d="M80.5011 61.1345L80.8674 60.9513L81.417 60.6766L81.6917 60.4934L82.0581 60.3102L82.9739 59.9439L83.2487 59.8523L84.4393 59.3944L84.6225 59.3028L85.5383 58.9364L85.9047 58.8448L86.9121 58.4785L87.0953 58.3869H87.2785L88.0111 58.1122L88.2859 58.0206L89.0186 57.7458H89.2018L90.1176 57.4711L90.3924 57.3795L91.0335 57.1963L91.3082 57.1047C91.583 57.0131 91.8577 56.9215 92.2241 56.83H92.3157L93.0484 56.6468C93.4147 56.5552 93.8726 56.4636 94.239 56.372L95.4296 56.0973H95.5212L96.6202 55.8225H96.7118L97.8108 55.6393H97.994C98.3603 55.5478 98.7267 55.4562 99.093 55.4562H99.2762C99.6425 55.3646 99.9173 55.3646 100.284 55.273H100.467C100.833 55.1814 101.199 55.1814 101.566 55.0898H101.841L102.665 54.9982H103.031L103.764 54.9067H104.13L104.863 54.8151H105.138L106.054 54.5403H106.237L107.153 54.4487H107.427H108.343H108.526H109.259H111.732H112.648H112.831H113.838H114.113L115.029 54.5403H115.121L116.128 54.6319H116.403L117.319 54.7235H117.41L118.326 54.8151H118.601L119.517 54.9067H119.608L120.524 55.0898H120.799L121.623 55.273H121.715L122.631 55.4562H122.905L123.821 55.6393H123.913L124.829 55.8225H125.012L125.928 56.0057L126.844 56.2804L127.027 56.372L127.943 56.6468L128.858 56.9215L129.042 57.0131L129.866 57.2879L126.752 49.961L125.928 49.6863L125.744 49.5947L124.829 49.3199L124.004 49.0452L123.821 48.9536L122.905 48.6788L121.989 48.4956L121.806 48.4041L120.89 48.2209H120.799L119.883 48.0377H119.7L118.784 47.8545H118.418L117.593 47.6714H117.319L116.403 47.4882H116.311L115.395 47.3966H115.121L114.205 47.305H114.113L113.289 47.2134H113.014L112.007 47.1219L111.091 47.0303H110.816H109.809H109.625H108.71H106.237C105.87 47.0303 105.596 47.0303 105.229 47.0303H105.046H104.13H103.855H103.672L102.94 47.1219H102.756L101.841 47.2134H101.566H100.742H100.375L99.6425 47.305H99.2762L98.5435 47.3966H98.2687L97.1697 47.5798H96.9865L96.2539 47.6714H96.0707H95.8875L94.8801 47.8545H94.6053L93.5063 48.0377H93.4147L92.3157 48.3125H92.2241L91.0335 48.5872C90.6671 48.6788 90.2092 48.7704 89.8429 48.862H89.7513L89.1102 49.2283H89.0186L88.1027 49.5031L87.828 49.5947L87.1869 49.7778L86.9121 49.8694L85.9962 50.1442H85.8131L85.0804 50.4189L84.8056 50.5105L84.0729 50.7853H83.8898H83.7066L82.6992 51.1516L82.3328 51.2432L81.417 51.6096L81.2338 51.7011L80.0432 52.1591L79.7684 52.2507L78.8526 52.617L78.6694 52.7086H78.761L78.3946 52.8918L77.8451 53.1665L77.5704 53.3497L77.0208 53.6244H76.7461L75.9218 53.9908L78.8526 61.5924L79.6768 61.2261L79.9516 61.1345L80.5011 60.8597" fill="#111927"/>
<path d="M66.3967 75.6057L69.4191 83.2073L63.1912 80.5513L60.2605 72.9497L66.3967 75.6057Z" fill="#111927"/>
<path d="M70.6099 81.9248L70.8847 81.6501L71.251 81.2837L71.5258 81.009L71.8921 80.6426L71.9837 80.5511L72.4417 80.0931L72.6248 79.9099L73.2659 79.3604L73.907 78.8109L74.0902 78.6278L74.6397 78.1698L74.7313 78.0782L75.3724 77.5287L75.5556 77.4371L76.0135 77.1624L76.563 76.796L76.8378 76.5213L77.3873 76.1549L77.662 75.9718L78.5779 75.4222L79.4022 74.8727L79.7685 74.6896L80.2264 74.4148L80.5928 74.2316L81.1423 73.9569L81.5087 73.7737L81.9666 73.4989L82.3329 73.3158L82.7908 73.041L83.1572 72.8578L83.6151 72.5831L84.0731 72.3999L84.531 72.1252L84.9889 71.942L85.4468 71.7588L85.9048 71.5756L86.3627 71.3925L86.8206 71.2093L87.2786 71.0261L87.7365 70.843L88.1944 70.6598L88.6523 70.4766L89.2019 70.2934L89.6598 70.1103L90.2093 69.9271L90.6672 69.7439L91.2167 69.5608L91.5831 69.3776L92.2242 69.1944L92.5905 69.1028L93.3232 68.9196L93.598 68.8281L94.6054 68.5533L95.6129 68.2786L96.4371 68.0954L96.6203 68.0038L97.353 67.8206H97.4446L98.2688 67.6375H98.452L99.1847 67.5459H99.3679L99.8258 67.4543H100.009L100.742 67.3627L101.383 67.2711H101.658L102.115 67.1795H102.39H102.848H103.123H103.489H103.764H104.13H104.405H104.771H105.046H105.413H105.687H106.054H109.168H109.534H109.809H110.175H110.45L111.091 66.4468H111.366H111.732H112.007H112.373H112.648H112.923H113.197H113.564H113.838H114.205H114.48L114.846 66.5384H115.029L115.67 66.63L112.739 59.0284L112.098 58.9368H111.915L111.549 58.8452H111.274H110.908H110.633H110.267H109.992H109.625H109.351H108.984H108.71H108.343H108.069H107.702H107.427H107.061H103.398H103.031H102.848H102.482H102.207H101.841H101.566H101.2H100.925H100.558H100.101H99.7342H99.4595L99.0015 58.9368H98.7268L98.0857 59.0284H97.9025L97.353 59.12H97.0782L96.6203 59.2116H96.5287H96.4371L95.796 59.3031H95.5213L94.697 59.4863H94.6054L93.8727 60.0358H93.6896L92.8653 60.219L91.8578 60.4938L90.8504 60.7685L90.5756 60.8601L89.843 61.0433L89.4766 61.1349L88.8355 61.318L88.4692 61.5012L87.9196 61.6844H87.8281L87.3701 61.8675L86.8206 62.0507L86.3627 62.2339L85.8132 62.4171L85.4468 62.6002L84.9889 62.7834L84.531 62.9666L84.0731 63.1497L83.8899 63.2413L83.6151 63.4245L83.1572 63.6077L82.6993 63.7908L82.2413 63.974L81.7834 64.2488L81.3255 64.5235L80.8675 64.7067L80.4096 64.9815L80.2264 65.073L79.9517 65.1646L79.4938 65.4394L79.1274 65.6226L78.6695 65.8973L78.3031 66.0805L77.7536 66.4468L77.3873 66.63L76.9294 66.9048L76.6546 67.0879H76.563L75.7387 67.6375L74.8229 68.187L74.4565 68.4617L73.907 68.9196L73.5407 69.1944L72.9912 69.5608L72.808 69.6523L72.6248 69.9271L72.4417 70.0187L71.8006 70.5682L71.709 70.6598C71.5258 70.843 71.3426 70.9345 71.1595 71.1177L70.9763 71.3009C70.7931 71.4841 70.6099 71.6672 70.3352 71.8504L69.6941 72.3999L69.5109 72.5831L69.053 72.8578L68.9614 73.041C68.9614 73.041 68.6866 73.2242 68.5951 73.3158L68.3203 73.5905L67.954 73.9569L67.6792 74.2316L67.3129 74.6896L67.1297 74.8727L66.4886 75.5138L69.4193 83.1154C69.6025 82.9323 69.7857 82.6575 70.0604 82.4744L70.2436 82.1996L70.6099 81.9248Z" fill="#111927"/>
<path d="M116.036 53.3496L118.967 60.9512L116.861 64.6147C116.036 64.3399 115.212 64.0651 114.388 63.882L112.648 59.3943L116.036 53.3496Z" fill="#357C03"/>
<path d="M47.0723 120.849C47.0723 120.758 46.9807 120.666 46.9807 120.483L46.8891 120.3C46.7975 120.117 46.7975 119.933 46.7059 119.842C46.6143 119.659 46.6143 119.567 46.5228 119.384L46.4312 119.201C46.4312 119.109 46.3396 119.018 46.3396 118.834L46.248 118.651L46.1564 118.285L46.0648 118.102C46.0648 118.01 45.9732 117.919 45.9732 117.735C45.9732 117.644 45.9732 117.644 45.9732 117.552C45.9732 117.369 45.8817 117.277 45.8817 117.186V117.094C45.8817 116.911 45.7901 116.728 45.7901 116.545V116.453C45.7901 116.27 45.6985 116.087 45.6985 115.904V115.72C45.6985 115.537 45.6069 115.354 45.6069 115.079C45.6069 114.896 45.5153 114.713 45.5153 114.53V114.347C45.5153 114.164 45.4237 113.98 45.4237 113.706C45.4237 113.431 45.3321 113.156 45.3321 112.973C45.3321 112.881 45.3321 112.881 45.3321 112.79C45.3321 112.515 45.2406 112.332 45.2406 112.057V111.965L45.149 111.416V111.324C45.149 111.141 45.149 110.958 45.149 110.775C45.149 110.592 45.149 110.592 45.149 110.5C45.149 110.225 45.149 110.042 45.149 109.767V109.676C45.149 109.401 45.149 109.126 45.149 108.943V107.844C45.149 107.661 45.149 107.478 45.149 107.386C45.149 107.295 45.149 107.203 45.149 107.111C45.149 107.02 45.149 106.745 45.149 106.562C45.149 106.379 45.149 106.379 45.149 106.287C45.149 106.012 45.149 105.829 45.149 105.554V105.463C45.149 105.188 45.149 105.005 45.2406 104.73V104.639L45.3321 103.906V103.723C45.3321 103.448 45.4237 103.265 45.4237 102.99V102.898L45.5153 102.166V102.166L45.6069 101.433V101.25C45.6069 100.975 45.6985 100.792 45.7901 100.517V100.426C45.8817 100.151 45.8817 99.9677 45.9732 99.693C45.9732 99.6014 45.9732 99.6014 45.9732 99.5098C46.0648 99.2351 46.0648 99.0519 46.1564 98.7771V98.6855C46.248 98.4108 46.248 98.2276 46.3396 98.0444V97.9529L46.5228 97.2202C46.5228 97.1286 46.5228 97.1286 46.5228 97.037C46.6143 96.8538 46.6143 96.5791 46.7059 96.3959V96.3043C46.7975 96.0296 46.8891 95.8464 46.9807 95.5716C46.9807 95.48 46.9807 95.48 47.0723 95.3885L47.2554 94.7474V94.6558C47.347 94.381 47.4386 94.1978 47.5302 93.9231L47.6218 93.7399L47.8965 93.0988V93.0072C47.9881 92.7325 48.0797 92.5493 48.1713 92.2745C48.1713 92.183 48.1713 92.183 48.2629 92.0914L48.5376 91.4503V91.3587L48.904 90.626L48.9956 90.4428L49.2703 89.8017V89.7101C49.3619 89.4354 49.5451 89.2522 49.6367 88.9775L49.7283 88.7943L50.0946 88.1532V88.0616L50.4609 87.3289L50.5525 87.1457L50.9189 86.5046V86.4131L51.3768 85.6804L51.4684 85.4972L51.9263 84.8561V84.7645L52.3842 84.1234L52.4758 83.9402L52.9338 83.2991L53.3917 82.658L53.4833 82.4749C53.6664 82.2917 53.758 82.0169 53.9412 81.8338C54.1244 81.6506 54.3075 81.3758 54.3991 81.1927L54.4907 81.0095L55.0402 80.3684L55.5897 79.7273C55.5897 79.6357 55.6813 79.6357 55.6813 79.5441C55.8645 79.361 56.0477 79.0862 56.2308 78.903L56.3224 78.8114L56.7804 78.2619L56.8719 78.0788C57.0551 77.8956 57.2383 77.6208 57.4215 77.4377L57.513 77.3461L57.971 76.7966L58.0626 76.705L58.6121 76.0639L58.7037 75.9723L59.2532 75.4228L59.3448 75.3312L59.9859 74.6901L60.0774 74.5985L60.627 74.049L60.7185 73.9574L61.3596 73.4079L61.6344 73.1331L62.0923 72.7668L62.5503 72.8584L63.0082 72.492L63.5577 72.1257L64.0156 71.7593L64.2904 71.4846L64.7483 71.1182L65.0231 70.9351L65.5726 70.4771L65.7558 70.294L66.4884 69.6529L66.6716 69.5613C66.8548 69.3781 67.1295 69.2865 67.3127 69.1034L67.4959 69.0118L68.0454 68.5538L68.2286 68.3707L68.7781 67.9127L68.9613 67.8212C69.236 67.638 69.4192 67.4548 69.6939 67.2716L69.8771 67.1801L70.4266 66.8137L70.7014 66.6305L71.3425 66.2642L71.5257 66.1726L72.3499 65.6231L69.4192 58.0215L69.0528 58.2047L68.3202 58.6626L68.137 58.7542L67.5875 59.1205L67.3127 59.3037L66.7632 59.67L66.58 59.7616L65.8473 60.3111L65.6642 60.4027L65.1147 60.8606L64.8399 61.0438L64.382 61.4102L64.1988 61.5017L64.1072 61.5933L63.5577 61.9597L63.4661 62.1428C63.1914 62.326 63.0082 62.5092 62.7334 62.6924L62.5503 62.8755L62.0007 63.3335L61.726 63.5166L61.2681 63.883L60.9933 64.1577L60.5354 64.5241L60.2606 64.7988L59.8027 65.1652L59.5279 65.4399L59.07 65.8063L58.8868 66.081L58.7952 66.1726L58.3373 66.6305L58.2457 66.7221L57.6962 67.2716L57.513 67.3632L56.8719 68.0043L56.7804 68.0959C56.5972 68.2791 56.414 68.4623 56.2308 68.6454L56.1393 68.737L55.5897 69.3781L55.4982 69.4697L55.0402 70.0192L54.8571 70.1108L54.3075 70.7519L54.216 70.9351L53.758 71.5762L53.6664 71.6678L53.1169 72.3089C53.1169 72.4004 53.0253 72.4004 53.0253 72.492C52.8422 72.6752 52.659 72.95 52.4758 73.1331C52.3842 73.3163 52.2011 73.4079 52.1095 73.5911L52.0179 73.7742H51.8347L51.3768 74.4153C51.1936 74.5985 51.0105 74.8733 50.9189 75.0564L50.8273 75.2396L50.3694 75.8807C50.1862 76.0639 50.0946 76.3386 49.9114 76.5218L49.7283 76.7966L49.3619 77.4377V77.5292L48.9956 78.1703L48.8124 78.2619C48.7208 78.5367 48.5376 78.7199 48.3545 78.9946V79.0862L47.9881 79.7273L47.8965 79.9105C47.7134 80.1852 47.6218 80.3684 47.5302 80.6432V80.7347C47.4386 80.9179 47.2554 81.1927 47.1639 81.3758C47.1639 81.4674 47.0723 81.4674 47.0723 81.559L46.7059 82.2917V82.3833L46.4312 83.0244L46.3396 83.2076L45.9732 83.9402V84.0318L45.6985 84.6729C45.6985 84.7645 45.6985 84.7645 45.6069 84.8561L45.3321 85.5888V85.6804C45.2406 85.8635 45.149 86.1383 45.0574 86.3215C45.0574 86.4131 45.0574 86.4131 44.9658 86.5046L44.691 87.2373V87.3289C44.5995 87.5121 44.5079 87.7868 44.4163 87.97L44.3247 88.1532C44.2331 88.4279 44.1415 88.6111 44.0499 88.8859V88.9775L43.9584 89.3438L43.8668 89.527L43.6836 90.2597V90.3512C43.592 90.626 43.592 90.8092 43.5004 90.9923V91.1755C43.4088 91.4503 43.4088 91.6334 43.3173 91.9082C43.3173 91.9998 43.3173 91.9998 43.3173 92.0914L43.1341 92.8241C43.1341 93.0988 43.0425 93.282 42.9509 93.5567V93.7399C42.9509 94.0147 42.8593 94.1978 42.8593 94.4726C42.8593 94.4726 42.8593 94.5642 42.8593 94.6558C42.8593 94.9305 42.7677 95.1137 42.7677 95.3885V95.48C42.7677 95.7548 42.6762 95.938 42.6762 96.2127C42.6762 96.3043 42.6762 96.3043 42.6762 96.3959L42.5846 97.1286V97.2202C42.5846 97.4949 42.5846 97.6781 42.493 97.9529V98.0444C42.493 98.2276 42.493 98.4108 42.493 98.6855V98.7771C42.493 98.8687 42.493 98.9603 42.493 99.0519V99.6014C42.493 99.693 42.493 99.7846 42.493 99.8762C42.493 99.9677 42.493 100.243 42.493 100.426C42.493 100.609 42.493 100.609 42.493 100.7V101.525C42.493 101.799 42.493 102.074 42.493 102.349V103.082C42.493 103.173 42.493 103.265 42.493 103.356C42.493 103.448 42.493 103.723 42.493 103.906V104.181C42.493 104.272 42.493 104.364 42.493 104.455C42.493 104.547 42.493 104.639 42.493 104.73C42.493 104.822 42.493 104.822 42.493 104.822L42.5846 105.554V105.738C42.5846 106.012 42.6762 106.287 42.6762 106.47C42.6762 106.653 42.7677 106.837 42.7677 107.111V107.295L42.8593 107.844V107.936C42.8593 108.119 42.9509 108.302 42.9509 108.577V108.76C42.9509 108.943 43.0425 109.126 43.0425 109.309C43.0425 109.309 43.0425 109.309 43.0425 109.401C43.0425 109.584 43.1341 109.767 43.1341 109.951V110.042L43.2257 110.409C43.2257 110.5 43.2257 110.5 43.2257 110.592C43.2257 110.683 43.3173 110.775 43.3173 110.958L43.4088 111.141C43.4088 111.233 43.5004 111.324 43.5004 111.416L43.592 111.599L43.6836 111.965C43.6836 112.057 43.6836 112.057 43.6836 112.149C43.6836 112.24 43.7752 112.423 43.8668 112.607L44.0499 113.065L44.1415 113.248L44.2331 113.614C44.2331 113.614 44.2331 113.614 44.2331 113.706L44.3247 113.98L44.8742 115.354L47.2554 121.582C47.2554 121.49 47.1639 121.399 47.1639 121.216" fill="#111927"/>
<path d="M116.036 53.3499L112.648 59.303C106.053 58.2955 99.276 58.5703 92.7734 60.2188C82.699 62.6917 73.5404 68.0036 66.3967 75.6052L60.2605 72.9493C68.6864 63.6991 79.6767 57.2881 91.8576 54.3574C99.734 52.3425 107.977 51.9761 116.036 53.3499Z" fill="#9FEF00"/>
<path d="M132.98 52.4346L135.91 60.0362L131.881 65.2566L127.393 71.1181L124.462 63.5164L128.95 57.655L132.98 52.4346Z" fill="#111927"/>
<path d="M124.462 63.5163L127.118 70.3853C125.012 68.5536 122.63 66.9966 120.066 65.806L118.143 60.8604C120.341 61.5015 122.447 62.4173 124.462 63.5163Z" fill="#68748E"/>
<path d="M62.0007 81.3756L64.9315 88.9772L64.8399 89.1603C64.8399 89.2519 64.7483 89.2519 64.7483 89.3435C64.7483 89.4351 64.6567 89.4351 64.6567 89.5267L64.5651 89.7099L64.4735 89.893C64.4735 89.893 64.382 89.9846 64.382 90.0762L64.1988 90.351L64.1072 90.5341L63.8324 91.0836L63.6493 91.3584L63.5577 91.45V91.1752L63.4661 91.45V91.5416V91.6332L63.3745 91.7247C63.3745 91.7247 63.3745 91.8163 63.2829 91.8163V91.9079V91.9995V92.0911V92.1827V92.2743V92.3658V92.4574V92.549V92.6406V92.7322V92.8238L63.1913 92.9154V93.0069V93.0985L63.0998 93.1901V93.2817V93.3733V93.4649V93.5565V93.648V93.7396V93.8312V93.9228V94.0144V94.106V94.1976V94.2891V94.3807V94.4723V94.5639V94.6555V94.7471V94.8387V94.9302V95.0218V95.1134V95.205V95.2966V95.3882V95.4798V95.5713V95.6629V95.7545V95.8461V95.9377V96.0293V96.1209V96.2124V96.304V96.3956V96.4872V96.5788V96.6704V96.762V96.8535V96.9451V97.0367V97.1283V97.2199V97.3115V97.4031V97.4946V97.5862V97.6778V97.7694V97.861V97.9526V98.0442V98.1357V98.2273V98.3189V98.4105V98.5021V98.5937V98.6853V98.7768L60.169 91.1752V90.2594V90.1678V90.0762V89.9846V89.893V89.8014V89.7099V89.6183V89.5267V89.4351V89.3435V89.3435V89.2519V89.1603V89.0688V88.9772V88.8856V88.794V88.7024V88.6108V88.5192V88.4277V88.4277V88.3361V88.2445V88.1529V88.0613V87.9697V87.8781V87.7866V87.695V87.6034V87.5118V87.5118V87.4202V87.3286V87.237V87.1455V87.0539V86.9623V86.8707V86.7791V86.6875V86.5959V86.5044V86.5959V86.5044V86.4128V86.3212V86.2296V86.138V86.0464V85.9548V85.8633V85.7717V85.6801V85.5885V85.6801V85.5885V85.4969V85.4053V85.3137V85.2222V85.1306V85.039V84.9474V84.8558V84.7642V84.6726V84.7642V84.6726V84.5811V84.4895V84.3979V84.3063V84.2147V84.1231V84.0315V83.94V83.8484L60.2606 83.7568L60.3522 83.6652L60.4438 83.5736L60.5353 83.482V83.3904L60.6269 83.2989V83.2073L60.7185 83.1157L60.8101 83.0241L60.9017 82.9325H60.7185L60.9017 82.6578L61.0849 82.383L61.1764 82.1998L61.3596 81.9251H61.6344L61.726 81.7419C61.726 81.7419 61.8176 81.6503 61.8176 81.5587L61.9091 81.3756L62.0007 81.1924C61.9091 81.3756 62.0007 81.3756 62.0007 81.3756Z" fill="#111927"/>
<path d="M57.6047 90.9927L60.5354 98.5027V98.5943L57.6047 90.9927Z" fill="#39435B"/>
<path d="M63.7409 96.9453L56.872 97.1285L49.0872 97.4032L52.018 105.005L59.8943 104.73L66.6717 104.547L63.7409 96.9453Z" fill="#111927"/>
<path d="M154.228 79.544L151.297 71.9423C148 63.5164 141.497 56.8307 132.98 52.4346L135.91 60.0362C136.46 60.3109 137.009 60.5857 137.467 60.8605C145.252 65.2566 151.114 71.576 154.228 79.544Z" fill="#111927"/>
<path d="M89.7513 104.272C89.7513 104.089 89.6597 103.997 89.6597 103.906C89.6597 103.814 89.6597 103.723 89.5681 103.631V103.539C89.5681 103.448 89.5681 103.265 89.4765 103.173V102.898V102.807C89.4765 102.715 89.4765 102.715 89.4765 102.624C89.4765 102.532 89.4765 102.532 89.4765 102.44C89.4765 102.44 89.4765 102.349 89.4765 102.257C89.4765 102.166 89.4765 102.166 89.4765 102.074V101.799C89.4765 101.708 89.4765 101.708 89.4765 101.616V101.433V101.341C89.4765 101.341 89.4765 101.158 89.4765 101.067V100.975C89.4765 100.883 89.4765 100.792 89.4765 100.7L86.5457 93.0986C86.5457 93.1902 86.5457 93.2818 86.4542 93.3734C86.3626 93.465 86.4542 93.465 86.4542 93.465C86.4542 93.5566 86.4542 93.6481 86.4542 93.6481C86.4542 93.6481 86.4542 93.6482 86.4542 93.7397V93.8313C86.4542 93.9229 86.4542 93.9229 86.4542 94.0145V94.4724C86.4542 94.564 86.4542 94.564 86.4542 94.6556V94.8388C86.4542 94.9303 86.4542 94.9303 86.4542 95.0219V95.1135V95.2051V95.2967C86.4542 95.3883 86.4542 95.4799 86.4542 95.5715C86.4542 95.663 86.4542 95.8462 86.5457 95.9378V96.0294V96.121C86.5457 96.2125 86.5457 96.2125 86.5457 96.3041C86.5457 96.3957 86.6373 96.4873 86.6373 96.6705V96.7621C86.6373 96.8536 86.7289 96.9452 86.7289 97.0368V97.1284L89.6597 104.73L89.5681 104.364" fill="#68748E"/>
<path d="M75.0975 105.554V105.005V104.913C75.0975 104.73 75.0975 104.638 75.0975 104.455V103.997C75.0975 103.814 75.0975 103.723 75.0975 103.539V103.448V102.99C75.0975 102.898 75.0975 102.898 75.0975 102.807C75.0975 102.715 75.0975 102.624 75.0975 102.532C75.0975 102.44 75.0975 102.349 75.0975 102.349C75.0975 102.257 75.0975 102.166 75.0975 102.074V101.891C75.0975 101.799 75.0975 101.708 75.0975 101.616C75.0975 101.525 75.0975 101.433 75.0975 101.433L75.1891 101.158C75.1891 101.067 75.1891 100.975 75.1891 100.975C75.1891 100.975 75.1891 100.792 75.2807 100.7C75.2807 100.609 75.2807 100.517 75.2807 100.517C75.2807 100.426 75.2807 100.334 75.3723 100.242L75.4639 100.059C75.4639 99.9676 75.4639 99.876 75.5554 99.7844L75.647 99.6013L75.7386 99.3265C75.7386 99.2349 75.7386 99.1433 75.8302 99.0518C75.9218 98.9602 75.9218 98.8686 75.9218 98.777C75.9218 98.6854 75.9218 98.5938 76.0134 98.5022C76.0134 98.4107 76.105 98.3191 76.105 98.2275L76.1965 97.9527L76.2881 97.678L76.3797 97.4948L76.4713 97.22C76.4713 97.1285 76.5629 97.0369 76.5629 97.0369L76.6545 96.7621C76.6545 96.6705 76.7461 96.5789 76.7461 96.5789L76.9292 96.3042C76.9292 96.2126 77.0208 96.2126 77.0208 96.121C77.1124 96.0294 77.1124 95.8463 77.204 95.7547L77.2956 95.5715C77.3872 95.3883 77.4787 95.2967 77.5703 95.1136C77.6619 94.9304 77.5703 95.022 77.5703 95.022L77.8451 94.6556L77.9367 94.4725L78.1198 94.1977L78.2114 94.0145C78.303 93.923 78.303 93.8314 78.3946 93.7398L78.5778 93.5566L78.7609 93.2819L78.9441 93.0987L79.1273 92.8239L79.3105 92.6408C79.402 92.5492 79.402 92.4576 79.4936 92.366L79.6768 92.1828L79.86 91.9081L80.0431 91.7249C80.1347 91.6333 80.1347 91.5417 80.2263 91.4501C80.3179 91.3586 80.3179 91.3586 80.4095 91.267L80.5927 90.9922C80.6842 90.9006 80.6842 90.809 80.7758 90.809L80.959 90.5343L81.1422 90.3511L81.3253 90.0764L81.5085 89.8932L81.6917 89.6184L81.8749 89.4353L82.058 89.1605L82.2412 88.9773L82.516 88.7942L82.6991 88.611L82.8823 88.4278L83.2486 88.0615L83.4318 87.8783L83.9813 87.4204L84.0729 87.3288L84.5308 86.5961L84.714 86.4129L85.1719 86.0466L85.3551 85.8634L85.7215 85.5887L85.9046 85.4055L86.3626 85.1307L86.4541 85.0391L87.0037 84.6728L87.1868 84.5812L87.5532 84.3065L87.8279 84.1233L88.1027 83.9401L88.3774 83.7569L88.6522 83.5738L88.927 83.3906L89.2017 83.2074L89.4765 83.0243L89.7512 82.8411L90.026 82.6579L90.3008 82.4747L90.5755 82.2916L90.8503 82.2L91.125 82.0168L91.3998 81.9252L91.6745 81.7421L91.9493 81.6505L92.3156 81.4673L92.5904 81.3757L92.9567 81.1925L93.2315 81.101L93.5978 80.9178L93.8726 80.8262L94.2389 80.643L94.4221 80.5514L94.6969 80.4599L94.9716 80.3683L95.2464 80.2767L95.6127 80.1851L95.8875 80.0935L96.2538 80.0019L96.5286 79.9103L96.8949 79.8188L97.536 79.6356C98.0855 79.4524 98.7266 79.3608 99.2762 79.2692H99.4593L99.8257 79.1777L100.375 79.0861H100.558L100.925 78.9945H101.108L101.566 78.9029H101.657L102.207 78.8113H102.298H102.848H103.031H103.398H103.581H104.039H104.588H106.328H106.695H106.786H107.336H107.427H107.794H107.977H108.343H108.526H108.801H108.984L109.351 78.9029H109.534L109.992 78.9945H110.083L110.45 79.0861H110.633L110.908 79.1777H111.091L111.365 79.2692H111.549L111.823 79.3608H112.007L112.465 79.4524L112.922 79.6356H113.106L113.38 79.7272L113.564 79.8188L113.838 79.9103L114.021 80.0019L114.296 80.0935L114.479 80.1851L114.846 80.2767H114.937L115.395 80.4599L115.487 80.5514L115.762 80.643L115.945 80.7346L116.22 80.8262L116.403 80.9178L116.677 81.0094C116.769 81.0094 116.769 81.0094 116.861 81.101L117.135 81.2841L117.227 81.3757L117.593 81.5589H117.685L117.96 81.7421L118.051 81.8336L118.326 82.0168L118.509 82.1084L118.784 82.2916L118.967 82.3832L119.242 82.5663L119.333 82.6579L119.7 82.9327L119.975 83.2074L120.066 83.299L120.341 83.4822L120.432 83.5738C120.524 83.6654 120.616 83.6654 120.616 83.7569L120.707 83.8485L120.89 84.0317L120.982 84.1233L121.257 84.398L121.531 84.6728L121.623 84.7644L121.806 84.9476L121.898 85.0391L122.081 85.2223L122.173 85.3139L122.356 85.4971L122.447 85.5887L122.631 85.8634L122.722 85.955L122.997 86.3213L123.088 86.4129L123.272 86.6877L123.363 86.7793C123.455 86.8709 123.455 86.9624 123.546 87.054L123.638 87.1456L123.821 87.3288L123.913 87.4204L124.096 87.6951L124.187 87.7867C124.279 87.8783 124.371 88.0615 124.371 88.1531V88.4278C124.462 88.5194 124.462 88.611 124.554 88.7026L124.645 88.7942L124.737 89.0689C124.737 89.0689 124.829 89.1605 124.829 89.2521L124.92 89.5268C124.92 89.6184 124.92 89.6184 125.012 89.71L125.103 89.9848L125.195 90.0764L125.378 90.4427L122.447 82.8411C122.447 82.7495 122.356 82.5663 122.264 82.4747L122.173 82.3832C122.173 82.2916 122.081 82.2 122.081 82.1084C122.081 82.0168 122.081 82.0168 121.989 81.9252L121.898 81.6505L121.806 81.4673C121.806 81.3757 121.715 81.2841 121.715 81.1925C121.715 81.101 121.715 81.101 121.623 81.101L121.44 80.8262V80.7346C121.348 80.643 121.257 80.4599 121.257 80.3683L121.165 80.2767L120.982 80.0019L120.89 79.9103C120.89 79.8188 120.799 79.7272 120.707 79.6356L120.616 79.544L120.432 79.3608L120.341 79.2692L120.158 78.9945L120.066 78.9029L119.791 78.5366L119.7 78.445L119.517 78.1702L119.425 78.0786L119.333 78.3534L119.242 78.2618L119.059 78.0786L118.967 77.987L118.784 77.8039L118.692 77.7123L118.418 77.4375L118.143 77.1628L118.051 77.0712L117.868 76.888L117.776 76.7964L117.593 76.6133L117.502 76.5217L117.319 76.3385L117.227 76.2469L116.952 75.9722L116.22 75.6058L116.128 75.5142L115.853 75.3311L115.67 75.2395C115.578 75.1479 115.487 75.1479 115.395 75.0563L115.212 74.9647L114.937 74.7815L114.754 74.69H114.663L114.571 74.5984L114.205 74.4152L114.113 74.3236L113.838 74.1404L113.655 74.0489L113.38 73.9573L113.197 73.8657L112.922 73.7741L112.739 73.6825L112.465 73.5909L112.373 73.4993L112.007 73.3162H111.915L111.549 73.2246L111.365 73.133L111.091 73.0414L110.908 72.9498L110.633 72.8582H110.45L110.175 72.7667H109.992L109.534 72.6751L109.076 72.5835H108.893L108.618 72.4919H108.435L108.16 72.4003H107.977L107.702 72.3087H107.519L107.153 72.2171H107.061L106.511 71.9424H106.328H105.962H105.779H105.504H105.321H105.046H104.863H104.497H104.405H103.855H101.657H101.108H101.016H100.65H100.467H100.1H99.9173H99.5509H99.3677L98.8182 72.034H98.7266H98.2687H98.0855H97.7192H97.536L97.0781 72.1256H96.8033L96.437 72.2171L96.1622 72.3087L95.8875 72.4003L95.6127 72.4919L95.338 72.5835L94.6969 72.7667L94.1474 72.9498L93.6894 72.8582L93.4147 72.9498L93.0483 73.0414L92.7736 73.133L92.4072 73.2246L92.1325 73.3162L91.7661 73.4078L91.4914 73.4993L91.3082 73.5909L90.8503 73.7741L90.5755 73.8657L90.2092 74.0489L90.026 74.1404L89.6596 74.3236L89.3849 74.4152L89.1101 74.5068L88.8354 74.5984L88.5606 74.7815L88.1943 74.8731L87.9195 75.0563L87.6448 75.2395L87.37 75.4226L87.0953 75.6058H86.9121H86.8205L86.5457 75.789L86.271 75.9722L85.9962 76.1553L85.7215 76.3385L85.4467 76.5217H85.0804L84.8056 76.7048L84.6224 76.888L84.2561 77.1628L84.0729 77.2544C83.8897 77.3459 83.7066 77.5291 83.5234 77.6207L83.4318 77.7123L82.9739 77.987L82.7907 78.1702L82.4244 78.3534H82.3328L82.2412 78.445L81.7833 78.8113L81.6001 78.9945L81.1422 79.3608L81.0506 79.4524L80.5011 79.9103L80.3179 80.0935L79.9516 80.3683L79.86 80.4599L79.7684 80.5514L79.5852 80.7346L79.402 80.9178L79.2189 81.101L79.0357 81.2841L78.8525 81.4673L78.6694 81.6505L78.3946 82.0168L78.1198 82.2L77.9367 82.3832L77.7535 82.6579C77.6619 82.7495 77.6619 82.8411 77.5703 82.8411C77.4787 82.9327 77.4787 83.0243 77.3872 83.1158L77.204 83.299L77.0208 83.5738L76.8376 83.7569V83.8485C76.8376 83.9401 76.7461 83.9401 76.6545 84.0317L76.4713 84.2149L76.2881 84.4896V84.6728C76.1965 84.7644 76.1965 84.856 76.105 84.9476C76.0134 85.0391 76.0134 85.0391 75.9218 85.1307C75.8302 85.2223 75.8302 85.3139 75.7386 85.4055L75.5554 85.5887C75.4639 85.6802 75.4639 85.7718 75.3723 85.8634C75.2807 85.955 75.2807 85.955 75.2807 86.0466L75.0975 86.3213L75.0059 86.5961L74.8228 86.9624L74.7312 87.054L74.548 87.512C74.548 87.6035 74.548 87.6035 74.4564 87.6951C74.3648 87.7867 74.3648 87.9699 74.2732 88.0615C74.2732 88.1531 74.1817 88.1531 74.1817 88.2446L73.9985 88.5194L73.9069 88.7026L73.8153 88.9773C73.8153 89.0689 73.7237 89.1605 73.7237 89.1605L73.6321 89.4353L73.5406 89.71L73.449 89.9848L73.3574 90.2595L73.2658 90.5343C73.2658 90.6259 73.2658 90.7175 73.1742 90.809L73.0826 91.0838C73.0826 91.1754 72.991 91.267 72.991 91.3586C72.991 91.4501 72.991 91.4501 72.8995 91.5417V91.6333L72.8079 91.8165C72.8079 91.9081 72.7163 91.9997 72.7163 92.0912L72.6247 92.2744C72.6247 92.366 72.6247 92.4576 72.5331 92.5492L72.4415 92.7323L72.6247 93.0071C72.6247 93.0987 72.6247 93.1903 72.6247 93.2819C72.6247 93.3734 72.6247 93.465 72.6247 93.5566C72.6247 93.6482 72.6247 93.7398 72.6247 93.8314C72.6247 93.923 72.6247 94.0145 72.6247 94.1061C72.6247 94.1977 72.6247 94.2893 72.6247 94.2893V94.5641V94.7472V95.022C72.6247 95.1136 72.6247 95.1136 72.6247 95.2052C72.6247 95.3883 72.6247 95.4799 72.6247 95.5715V95.6631C72.6247 95.8463 72.6247 95.9378 72.6247 96.121V96.6705C72.6247 96.8537 72.6247 96.9453 72.6247 97.1285V97.22V97.678V97.7696C72.6247 97.8611 72.6247 97.9527 72.6247 98.0443C72.6247 98.1359 72.6247 98.1359 72.6247 98.2275C72.6247 98.3191 72.6247 98.5938 72.7163 98.777C72.8079 98.9602 72.7163 99.0518 72.8079 99.1433V99.2349L72.8995 99.5097V99.6013L72.991 99.9676C72.991 100.151 73.0826 100.242 73.0826 100.426V100.517C73.0826 100.609 73.1742 100.7 73.1742 100.883L73.2658 101.067C73.2658 101.158 73.3574 101.25 73.3574 101.341C73.3574 101.433 73.3574 101.433 73.449 101.525C73.449 101.616 73.5406 101.708 73.5406 101.799V101.891V101.982L76.4713 109.584C76.4713 109.493 76.3797 109.401 76.3797 109.309C76.3797 109.218 76.2881 109.126 76.2881 109.035L76.1965 108.851L76.105 108.577C76.105 108.485 76.105 108.485 76.105 108.393C76.105 108.302 76.0134 108.21 76.0134 108.027V107.936C76.0134 107.752 75.9218 107.661 75.9218 107.478C75.9218 107.386 75.8302 107.203 75.8302 107.111V107.02L75.7386 106.745V106.653C75.7386 106.562 75.7386 106.379 75.647 106.287C75.5554 106.195 75.5554 105.921 75.5554 105.738C75.5554 105.554 75.5554 105.646 75.5554 105.554C75.5554 105.463 75.5554 105.28 75.5554 105.188" fill="#111927"/>
<path d="M56.6888 102.074L59.6196 109.675L59.7112 110.408V110.5V110.591V110.683V110.774C59.7112 110.866 59.7112 110.958 59.7112 111.049V111.141C59.7112 111.232 59.7112 111.324 59.7112 111.415V111.507V111.599V111.69V111.782V111.873L59.8028 112.148V112.24C59.8028 112.331 59.8028 112.423 59.8943 112.514L56.9636 104.913V104.821V104.73V104.638V104.547V104.455C56.9636 104.363 56.9636 104.272 56.9636 104.272L56.872 103.997C56.872 103.814 56.7804 103.722 56.7804 103.539V103.448V103.356V103.081V102.99C56.7804 102.715 56.6888 102.44 56.6888 102.074Z" fill="#357C03"/>
<path d="M57.2383 104.821L60.169 112.423C60.2606 112.789 60.3522 113.156 60.4438 113.614V113.705C60.627 114.346 60.8101 114.987 61.0849 115.628L58.1541 108.027L58.0626 107.844V107.752V107.66V107.569C58.0626 107.477 57.971 107.294 57.971 107.203V107.111C57.971 107.111 57.971 107.019 57.971 106.928V106.836V106.745V106.653C57.971 106.653 57.971 106.561 57.971 106.47V106.378V106.287V106.195V106.103V105.92V105.829L57.2383 104.821Z" fill="#357C03"/>
<path d="M58.154 108.026L61.0847 115.628L61.1763 115.811L61.0847 115.628V115.536L58.2456 108.21H58.154V108.026Z" fill="#54852A"/>
<path d="M119.242 97.4028C119.242 97.3112 119.242 97.1281 119.242 97.0365V96.9449V96.487C119.242 96.3954 119.242 96.3038 119.242 96.3038V96.2122C119.242 96.2122 119.242 95.9374 119.242 95.8458C119.242 95.7543 119.242 95.5711 119.15 95.4795V95.3879C119.15 95.2963 119.15 95.1132 119.059 95.0216C119.059 94.93 118.967 94.8384 118.967 94.6552V94.5636C118.967 94.4721 118.967 94.3805 118.875 94.2889C118.784 94.1973 118.875 94.1973 118.875 94.1973C118.875 94.1973 118.875 94.0141 118.784 94.0141C118.692 94.0141 118.784 93.9225 118.784 93.9225C118.784 93.9225 118.784 93.7394 118.692 93.7394V93.6478V93.5562L115.761 85.9546L115.853 86.1378L115.945 86.3209V86.4125C115.945 86.4125 115.945 86.5957 116.036 86.5957V86.6873C116.036 86.7789 116.036 86.8704 116.128 86.962V87.0536L116.219 87.42V87.5115L116.311 87.8779V87.9695C116.311 88.1526 116.311 88.2442 116.403 88.3358C116.494 88.4274 116.403 88.6106 116.403 88.7022V88.7937V89.0685C116.403 89.2517 116.403 89.3433 116.403 89.5264V89.618C116.403 89.7096 116.403 89.8928 116.403 89.9844V90.6255C116.403 90.717 116.403 90.8086 116.403 90.9002V90.9918C116.403 90.9918 116.403 91.0834 116.403 91.175C116.403 91.2666 116.403 91.3581 116.403 91.3581C116.403 91.3581 116.403 91.4497 116.403 91.5413V91.7245C116.403 91.8161 116.403 91.8161 116.403 91.9077C116.403 91.9993 116.403 92.0908 116.403 92.0908C116.403 92.1824 116.403 92.1824 116.403 92.274C116.403 92.3656 116.403 92.4572 116.403 92.4572C116.403 92.4572 116.403 92.5488 116.403 92.6403C116.403 92.7319 116.403 92.8235 116.403 92.8235C116.403 92.8235 116.403 92.9151 116.403 93.0067C116.403 93.0983 116.403 93.1899 116.403 93.1899C116.403 93.2814 116.403 93.2814 116.403 93.373L116.311 93.5562V93.7394L116.219 93.9225H115.578L115.487 94.1057L115.395 94.2889C115.395 94.3805 115.395 94.3805 115.304 94.4721L115.212 94.6552C115.212 94.7468 115.12 94.8384 115.12 94.8384C115.12 94.93 115.029 94.93 115.029 95.0216L114.937 95.2048L114.846 95.3879C114.846 95.4795 114.754 95.5711 114.754 95.6627L114.662 95.7543C114.662 95.8458 114.571 95.9374 114.571 96.029V96.1206C114.571 96.1206 114.479 96.3038 114.388 96.3954V96.487C114.296 96.5785 114.296 96.7617 114.205 96.8533C114.113 96.9449 114.113 97.0365 114.021 97.2196L113.93 97.3112L113.747 97.586L113.655 97.7691C113.563 97.8607 113.563 97.9523 113.563 97.9523L113.472 98.1355L113.38 98.3187C113.38 98.3187 113.289 98.4103 113.289 98.5018L113.106 98.685C113.106 98.7766 113.014 98.7766 113.014 98.8682L112.831 99.0513L112.739 99.2345L112.556 99.4177L112.464 99.6009L112.281 99.784L112.19 99.9672C112.19 100.059 112.098 100.059 112.006 100.15L111.915 100.334L111.732 100.517L112.006 100.334C112.006 100.425 111.915 100.425 111.823 100.517L111.64 100.7L111.457 100.883L111.274 101.066L111.091 101.249C111.091 101.341 110.999 101.341 110.907 101.433L110.724 101.616L110.541 101.799L110.45 101.891L110.175 102.165L110.083 102.257L109.717 102.623L109.625 102.715L109.259 102.99L109.167 103.081L108.893 103.356L108.709 103.447L108.435 103.631L108.251 103.722L107.977 103.905L107.885 103.997L107.519 104.272L107.427 104.363L107.152 104.546L106.969 104.638L106.786 104.73L106.603 104.821L106.42 104.913L106.237 105.004L106.053 105.096L105.87 105.188C105.779 105.188 105.687 105.279 105.687 105.279L105.504 105.371L105.321 105.462L105.138 105.554L104.954 105.646L104.771 105.737L104.588 105.829L104.313 105.92L104.13 106.012L103.855 106.103L103.672 106.195L103.397 106.287L103.214 106.378L102.939 106.47L102.756 106.561L102.482 106.653L102.298 106.745L102.115 106.836L101.84 106.928L101.657 107.019L101.383 107.111L101.199 107.202L100.925 107.294L100.741 107.386L100.467 107.477L100.009 107.569L99.5508 107.66H99.4592L99.1845 107.752H99.0929L98.7265 107.844L98.3602 107.935L97.8107 108.027H97.6275L97.078 108.118H96.9864H96.4369H96.3453L95.7958 108.21H95.521H93.4146H93.0482H92.9566H92.6819H92.4987H92.224H92.0408H91.8576H91.5829H91.4913L91.1249 108.118H91.0333H90.7586H90.667H90.4838H90.3007H90.1175H90.0259L89.8427 108.027H89.7511L89.4764 107.935L89.2016 107.844H89.11L88.9269 107.752H88.8353L88.6521 107.66H88.1942L88.011 107.569H87.9194L87.6447 107.477H87.5531L87.2783 107.386H87.1867L87.0036 107.294H86.912L86.7288 107.202L86.6372 107.111L86.4541 107.019L86.3625 106.928L86.1793 106.836H86.0877L85.813 106.653H85.7214C85.6298 106.653 85.5382 106.561 85.5382 106.561L85.4466 106.47L85.2634 106.378L85.1719 106.287L84.9887 106.195L84.8971 106.103L84.7139 106.012L84.5308 105.829L84.256 105.646L84.0728 105.462L83.9812 105.371L83.7981 105.279L83.7065 105.188L83.5233 105.096L83.4317 105.004L83.2486 104.821L83.157 104.73L82.9738 104.546L82.7906 104.363L82.699 104.272L82.5159 104.089L82.4243 103.997L82.3327 103.814L82.2411 103.722L82.1495 103.539L82.0579 103.447L81.8748 103.264V103.173L81.6916 102.898V102.806L81.6 102.623L81.5084 102.532L81.4168 102.348L81.3253 102.257L81.2337 102.074L81.1421 101.982C81.1421 101.891 81.0505 101.891 81.0505 101.799V101.707L80.8673 101.433V101.341L80.7757 101.158V101.066C80.7757 100.975 80.6842 100.975 80.6842 100.883L80.5926 100.791L80.3178 99.8756V99.784L80.2262 99.6009V99.5093C80.2262 99.4177 80.1346 99.3261 80.1346 99.2345L83.0654 106.836L83.157 107.111V107.202C83.157 107.294 83.2486 107.294 83.2486 107.386V107.477C83.2486 107.477 83.3401 107.569 83.3401 107.66V107.752C83.3401 107.844 83.4317 107.844 83.4317 107.935V108.027L83.5233 108.302L83.7065 108.576C83.7065 108.576 83.7065 108.668 83.7981 108.668L83.8897 108.851L83.9812 108.943L84.0728 109.126C84.0728 109.126 84.0728 109.217 84.1644 109.217L84.256 109.401L84.3476 109.492L84.5308 109.675V109.767L84.7139 110.042V110.133L84.8971 110.316L84.9887 110.408L85.0803 110.591L85.1719 110.683L85.2634 110.866L85.355 110.957L85.5382 111.141L85.6298 111.232L85.813 111.415L85.9961 111.599L86.0877 111.69L86.2709 111.873C86.2709 111.873 86.3625 111.873 86.3625 111.965L86.5456 112.057L86.6372 112.148L86.8204 112.24L86.912 112.331L87.0952 112.514L87.3699 112.698L87.4615 112.789L87.6447 112.881L87.7363 112.972L87.9194 113.064L88.011 113.156L88.1942 113.247L88.2858 113.339L88.4689 113.43H88.5605L88.8353 113.613H88.9269L89.11 113.705L89.2016 113.797L89.3848 113.888L89.4764 113.98L89.6596 114.071L89.7511 114.163L89.9343 114.255H90.0259L90.3007 114.346H90.3922L90.667 114.438H90.7586L90.9418 114.529L91.0333 114.621L91.2165 114.713H91.3081L91.4913 114.804H91.5829L91.8576 114.896L92.1324 114.987H92.224L92.4071 115.079H92.7735H92.9566H93.0482L93.2314 115.17H93.323L93.5977 115.262H93.6893L94.0557 115.354H94.1473H94.422H94.6052H94.7884H94.9715H95.1547H95.3379H95.6126H95.7042H96.0706H96.4369H96.7117H98.7265H99.2761H99.3676L99.9172 115.262H100.009L100.558 115.17H100.741L101.291 115.079H101.566H101.749H101.84C102.207 114.987 102.665 114.896 103.031 114.804L103.489 114.713L103.764 114.621L103.947 114.529L104.222 114.438L104.405 114.346L104.68 114.255L104.863 114.163L105.138 114.071L105.321 113.98L105.504 113.888L105.779 113.797L105.962 113.705L106.237 113.613L106.42 113.522L106.511 113.156L106.695 113.064L106.878 112.972L107.061 112.881L107.336 112.789L107.519 112.698L107.702 112.606L107.885 112.514L108.068 112.423L108.251 112.331L108.435 112.24H108.526L108.709 112.148L108.893 112.057L109.076 111.965L109.259 111.873L109.442 111.782L109.625 111.69L109.808 111.507L110.175 111.324L110.45 111.141L110.541 111.049L110.907 110.774L110.999 110.683L111.274 110.408L111.457 110.316L111.732 110.133L111.823 110.042L112.098 109.767L112.19 109.675L112.556 109.401L112.648 109.309C112.831 109.217 112.922 109.034 113.014 108.943L113.106 108.851L113.38 108.576L113.472 108.485L113.563 108.393L113.747 108.21L113.93 108.027L114.113 107.844L114.296 107.66L114.479 107.477L114.662 107.294L114.846 107.111L115.029 106.928L115.12 106.745L115.304 106.561L115.395 106.378L115.578 106.195C115.578 106.103 115.67 106.103 115.67 106.012L115.761 105.829C115.761 105.829 115.853 105.737 115.853 105.646L115.945 105.554L116.036 105.371L116.128 105.188L116.219 105.004L116.311 104.821L116.403 104.638L116.494 104.455C116.494 104.363 116.586 104.363 116.586 104.272L116.677 104.089L116.769 103.905C116.769 103.814 116.861 103.814 116.861 103.722L116.952 103.539L117.135 103.264L117.227 103.173C117.318 103.081 117.318 102.898 117.41 102.806L117.502 102.715L117.593 102.44C117.593 102.348 117.685 102.348 117.685 102.257C117.685 102.165 117.776 102.074 117.776 102.074C117.776 101.982 117.776 101.982 117.868 101.891L117.96 101.707L118.051 101.524C118.051 101.433 118.143 101.433 118.143 101.341C118.143 101.249 118.143 101.249 118.234 101.158C118.234 101.066 118.234 101.066 118.326 100.975L118.417 100.791C118.417 100.7 118.417 100.7 118.509 100.608L118.601 100.425L118.692 100.242L118.784 100.059V99.8756V99.784C118.784 99.6925 118.784 99.6924 118.784 99.6009L118.875 99.4177C118.875 99.3261 118.875 99.3261 118.875 99.2345C118.875 99.1429 118.875 99.1429 118.875 99.0513C118.875 98.9598 118.875 98.9598 118.875 98.8682C118.875 98.7766 118.875 98.685 118.875 98.685V98.5018C118.875 98.4103 118.875 98.4103 118.875 98.3187V98.1355V97.9523C118.875 97.8607 118.875 97.8607 118.875 97.7691V97.586C118.875 97.4944 118.875 97.4944 118.875 97.4028C118.875 97.3112 118.875 97.2196 118.875 97.2196C118.875 97.128 118.875 97.1281 118.875 97.0365V96.9449C118.875 96.8533 118.875 96.7617 118.875 96.6701C118.875 96.5785 118.875 96.5785 118.875 96.487V96.029" fill="#111927"/>
<path d="M52.9339 126.344L55.8646 133.854L49.7284 138.983L46.7976 131.381L52.9339 126.344Z" fill="#68748E"/>
<path d="M69.2359 58.113C50.8271 69.6528 39.6537 88.4278 42.4012 106.379C43.5918 113.98 47.2553 121.032 52.9336 126.344L46.8889 131.473C40.2032 125.428 35.8986 117.277 34.5249 108.394C31.3194 87.7868 44.3245 66.1725 65.664 52.8926L69.2359 58.113Z" fill="#A4B1CD"/>
<path d="M46.7975 131.381L49.7282 138.983C43.3172 133.03 38.7379 125.336 36.7231 116.819L36.6315 116.636C38.8295 122.314 42.3098 127.351 46.7975 131.381Z" fill="#68748E"/>
<path d="M84.9889 112.698L87.9196 120.299L86.3627 123.871C85.4468 123.78 84.4394 123.688 83.5235 123.505L82.0582 119.567L84.9889 112.698Z" fill="#68748E"/>
<path d="M81.9666 119.567L84.8973 127.169C76.9294 124.971 70.7015 119.933 68.0456 113.065L65.1148 105.463C67.8624 112.423 73.9986 117.369 81.9666 119.567Z" fill="#111927"/>
<path d="M134.72 94.9302V94.747C134.72 94.5639 134.72 94.3807 134.72 94.1059V94.0144C134.72 93.8312 134.72 93.648 134.72 93.4648V93.3733V93.2817C134.72 93.1901 134.72 93.0069 134.628 92.9153C134.537 92.8237 134.628 92.7322 134.628 92.6406C134.628 92.4574 134.537 92.1826 134.537 91.9995C134.537 91.8163 134.445 91.6331 134.445 91.45V91.2668C134.445 91.0836 134.445 90.992 134.354 90.9004V90.7173L134.262 90.2593C134.17 90.0762 134.17 89.893 134.079 89.6182V89.4351C133.987 89.2519 133.987 89.1603 133.987 88.9771C133.987 88.794 133.896 88.794 133.896 88.794C133.896 88.794 133.804 88.5192 133.804 88.4276C133.804 88.336 133.712 88.2445 133.712 88.2445L133.529 87.8781L133.438 87.6949C133.438 87.6034 133.438 87.6034 133.346 87.5118L130.415 79.9102L130.507 80.1849L130.69 80.5513L130.782 80.826C130.782 80.9176 130.873 81.1008 130.873 81.1924L130.965 81.3755C130.965 81.5587 131.057 81.6503 131.057 81.8335C131.057 81.925 131.057 81.925 131.057 82.0166C131.148 82.1998 131.148 82.383 131.24 82.6577C131.331 82.9325 131.331 83.0241 131.331 83.2072V83.2988L131.423 83.6652V83.8483L131.514 84.3979C131.514 84.6726 131.606 84.8558 131.606 85.039V85.2221C131.606 85.4053 131.606 85.4969 131.606 85.6801C131.606 85.8632 131.606 85.7716 131.606 85.7716C131.606 85.9548 131.606 86.138 131.606 86.3212V86.4127V87.0538V87.237C131.606 87.4202 131.606 87.6034 131.606 87.8781C131.606 88.0613 131.606 88.2445 131.606 88.5192V88.6108C131.606 88.794 131.606 88.9771 131.606 89.2519C131.606 89.3435 131.606 89.4351 131.606 89.5267C131.606 89.7098 131.606 89.8014 131.606 89.893V90.2593C131.606 90.3509 131.606 90.5341 131.606 90.6257C131.606 90.7173 131.606 90.8089 131.606 90.9004L131.514 91.2668C131.514 91.3584 131.514 91.45 131.514 91.5415C131.514 91.6331 131.514 91.8163 131.423 91.9079C131.331 91.9995 131.423 92.0911 131.331 92.1826C131.24 92.2742 131.331 92.4574 131.24 92.549C131.148 92.6406 131.24 92.7322 131.148 92.8237L131.057 93.1901C131.057 93.2817 131.057 93.3733 130.965 93.4648C130.873 93.5564 130.873 93.7396 130.873 93.8312C130.873 93.9228 130.873 94.0144 130.782 94.1059L130.69 94.4723C130.69 94.5639 130.599 94.6555 130.599 94.747C130.599 94.8386 130.507 95.0218 130.507 95.1134C130.507 95.205 130.415 95.2966 130.415 95.3881C130.415 95.4797 130.324 95.6629 130.324 95.7545L130.232 96.0292L130.324 96.6703L130.232 96.9451C130.141 97.0367 130.141 97.2199 130.049 97.3114L129.957 97.5862L129.774 97.9525C129.683 98.0441 129.683 98.1357 129.683 98.2273C129.683 98.3189 129.591 98.5021 129.5 98.5936C129.408 98.6852 129.408 98.7768 129.408 98.8684L129.225 99.3263L129.133 99.5095C129.042 99.6927 128.95 99.9674 128.767 100.151L128.675 100.334L128.401 100.792C128.309 100.883 128.309 100.975 128.217 101.066C128.126 101.158 128.034 101.341 127.943 101.433L127.759 101.708L127.576 102.165L127.393 102.44L127.118 102.807L126.935 103.081L126.66 103.448L126.477 103.722L126.202 104.089C126.111 104.18 126.019 104.272 126.019 104.364L125.745 104.638L125.561 104.913L125.287 105.188L125.012 105.463L124.737 105.737L124.462 106.012L124.188 106.287L123.913 106.562C123.821 106.653 123.73 106.745 123.638 106.836L123.363 107.111L123.089 107.386C122.997 107.477 122.905 107.569 122.814 107.661L122.539 107.935L122.264 108.21L121.99 108.485L121.715 108.76L121.348 109.126L121.257 109.218L120.707 109.676L120.524 109.767L120.066 110.133L120.249 110.408L119.7 110.866L119.517 110.958L118.967 111.324L118.876 111.416L118.326 111.782L117.868 112.148L117.593 112.332L117.044 112.698L116.861 112.789L116.128 113.247L115.945 113.431L115.395 113.797L115.029 113.98L114.663 114.255L114.296 114.438L113.93 114.713L113.564 114.896L113.197 115.079L112.831 115.262L112.465 115.445L112.098 115.629L111.732 115.812L111.366 115.995L110.999 116.178L110.633 116.361L110.267 116.544L109.809 116.728L109.442 116.911L108.984 117.094L108.618 117.277L108.16 117.46L107.794 117.643L107.336 117.827L106.969 117.918L106.42 118.101L106.145 118.193L105.687 118.376L105.229 118.559L104.863 118.651L104.405 118.743L104.039 118.834L103.581 118.926L103.214 119.017L102.757 119.109L101.932 119.567L101.108 119.75L100.833 119.842L100.284 119.933L99.9174 120.025L99.4594 120.116L99.0931 120.208L98.6352 120.299H98.452L97.9025 120.391H97.7193L97.0782 120.483H96.9866L96.2539 120.574H96.0708L95.5213 120.666H95.3381L94.697 120.757H94.6054L93.8727 120.849H93.6895H93.14H92.8653H92.3158H90.484H90.0261V120.849H89.385L92.3158 128.451H92.9568H95.4297H95.9792H96.2539H96.7119H96.9866H97.0782H97.7193H97.8109L98.452 128.359H98.6352L99.1847 128.267H99.3678L100.101 128.176V128.176L100.742 128.084H101.016L101.566 127.993H101.749H101.841L102.207 127.901L102.573 127.809L103.031 127.718L103.398 127.626L103.947 127.535L104.222 127.443L105.046 127.26L105.596 126.894L106.054 126.802L106.42 126.71L106.878 126.527L107.244 126.436L107.702 126.253L108.068 126.161L108.526 125.978L108.893 125.886L109.168 125.795L109.717 125.611L110.083 125.52L110.541 125.337L110.908 125.154L111.366 124.97L111.732 124.787L112.098 124.604H112.19L112.556 124.421L113.014 124.238L113.38 124.054L113.747 123.871L114.113 123.688L114.479 123.505L114.846 123.322L115.121 123.139L115.212 123.047L115.579 122.864L115.945 122.681L116.311 122.406L116.678 122.223L117.044 121.948L117.41 121.765L117.777 121.49L118.051 121.307H118.143L118.692 120.941L118.876 120.849L119.608 120.391C119.7 120.391 119.7 120.299 119.791 120.299L120.341 119.933L120.616 119.75L121.074 119.384L121.165 119.292L121.623 118.926L121.715 118.834L122.264 118.468L122.356 118.376L122.905 117.918L122.997 117.827C123.18 117.735 123.272 117.552 123.455 117.369L123.546 117.277L124.096 116.819L124.188 116.728L124.462 116.453L124.646 116.361L124.92 116.087L125.195 115.812L125.47 115.537L125.745 115.262L126.019 114.987L126.294 114.713L126.569 114.438L126.844 114.163L127.118 113.888L127.393 113.614L127.668 113.339L127.943 113.064L128.217 112.789C128.309 112.698 128.401 112.606 128.492 112.515C128.584 112.423 128.675 112.332 128.675 112.24L128.767 112.148L128.95 111.874L129.133 111.599C129.225 111.507 129.316 111.416 129.408 111.324L129.591 111.049L129.866 110.683L130.049 110.408L130.232 110.042C130.324 109.95 130.324 109.859 130.415 109.767L130.599 109.401C130.69 109.309 130.69 109.218 130.782 109.126L131.057 108.76L131.24 108.485C131.331 108.302 131.423 108.21 131.514 108.027C131.514 107.935 131.606 107.935 131.606 107.844C131.698 107.661 131.881 107.386 131.972 107.203L132.064 107.02L132.247 106.562C132.247 106.47 132.339 106.378 132.339 106.287C132.43 106.195 132.43 106.012 132.522 105.921C132.613 105.829 132.613 105.737 132.613 105.646L132.797 105.279C132.797 105.188 132.888 105.096 132.888 105.005C132.98 104.913 132.98 104.73 133.071 104.638L133.163 104.364C133.255 104.272 133.255 104.089 133.346 103.997L133.438 103.722C133.438 103.631 133.529 103.448 133.529 103.356L133.621 103.081L133.712 102.715C133.712 102.623 133.804 102.532 133.804 102.44L133.896 102.165V102.074L133.987 101.799C133.987 101.708 134.079 101.524 134.079 101.433C134.079 101.341 134.079 101.25 134.17 101.158C134.262 101.066 134.262 100.883 134.262 100.792C134.262 100.7 134.262 100.609 134.354 100.517C134.445 100.425 134.354 100.242 134.445 100.151L134.537 99.8758C134.537 99.7843 134.537 99.6011 134.628 99.5095C134.72 99.4179 134.628 99.3263 134.628 99.2347L134.72 98.8684C134.72 98.7768 134.72 98.6852 134.72 98.5936C134.72 98.5021 134.72 98.3189 134.72 98.2273C134.72 98.1357 134.72 98.0441 134.72 97.9525V97.5862V97.3114V97.2199V96.6703V96.5788C134.72 96.3956 134.72 96.2124 134.72 95.9377C134.72 95.7545 134.72 95.5713 134.72 95.2966" fill="#111927"/>
<path d="M131.606 84.4896C133.896 99.3265 120.616 114.988 101.932 119.567C97.8108 120.574 93.5979 121.032 89.385 120.758L92.4073 113.889C95.2464 113.98 98.1772 113.614 100.925 112.973C115.029 109.493 125.012 97.678 123.272 86.5045C121.532 75.3311 108.801 69.1032 94.6969 72.5835C80.5927 76.0637 70.6099 87.8783 72.35 99.0518C73.3574 105.646 78.3031 110.592 85.0804 112.698L82.0581 119.567C72.4416 116.911 65.4811 110.225 64.0157 101.067C63.8325 99.6929 63.7409 98.3191 63.7409 96.9453L56.872 97.1285L49.0872 97.4032C49.0872 97.1285 49.0872 96.9453 49.0872 96.6705C49.0872 96.3042 49.1788 96.0294 49.1788 95.6631C49.1788 95.2968 49.2704 95.022 49.362 94.6557C49.4536 94.2893 49.4536 94.0146 49.5451 93.6482C49.6367 93.2819 49.6367 93.0071 49.7283 92.6408C49.8199 92.2744 49.9115 91.9997 50.0031 91.6333C50.0031 91.4502 50.0947 91.3586 50.0947 91.1754C51.2853 86.6877 53.2086 82.4748 55.8646 78.6282L62.0008 81.2841C60.0775 84.3065 58.5206 87.512 57.6047 90.9922L64.84 90.7175C64.84 90.6259 70.1519 71.6676 93.6895 65.8977C112.281 61.41 129.316 69.6527 131.606 84.4896Z" fill="#A4B1CD"/>
<path d="M164.577 90.5342V90.351C164.577 90.0762 164.577 89.8931 164.577 89.6183V89.5267V88.8856V88.794C164.577 88.5193 164.577 88.3361 164.485 88.0613C164.485 87.9698 164.485 87.9698 164.485 87.8782L164.394 87.1455C164.394 87.1455 164.394 87.0539 164.394 86.9623C164.394 86.8707 164.394 86.6876 164.394 86.596V86.4128C164.394 86.3212 164.394 86.2296 164.394 86.0465V85.8633L164.302 85.4969V85.3138C164.302 85.1306 164.21 84.9474 164.21 84.7643C164.21 84.5811 164.119 84.3063 164.119 84.0316V83.8484C164.119 83.6652 164.027 83.4821 164.027 83.2073V83.1157C163.936 82.841 163.936 82.6578 163.844 82.383V82.1999C163.752 82.0167 163.752 81.8335 163.752 81.6503V81.5588C163.661 81.3756 163.661 81.1924 163.569 81.0092L163.478 80.4597L163.386 80.2766L163.295 79.9102L163.203 79.727L163.111 79.3607C163.111 79.2691 163.111 79.1775 163.02 79.1775C162.928 79.1775 162.928 78.9028 162.928 78.8112L162.837 78.628C162.745 78.4448 162.745 78.2617 162.653 78.0785C162.653 78.0785 162.653 78.0785 162.653 77.9869C162.562 77.8037 162.562 77.6206 162.47 77.4374C162.47 77.3458 162.47 77.3458 162.379 77.2542L162.287 76.8879V76.7963C162.287 76.7047 162.195 76.6131 162.195 76.5215L159.265 68.9199L159.356 69.2863L159.448 69.6526L159.539 69.8358L159.723 70.3853V70.4769L159.631 71.0264C159.631 71.118 159.723 71.118 159.723 71.2096C159.723 71.3012 159.814 71.4843 159.814 71.5759C159.814 71.6675 159.906 71.7591 159.906 71.7591C159.906 71.7591 159.997 72.0338 159.997 72.1254C159.997 72.217 160.089 72.3086 160.089 72.3086L160.181 72.6749L160.272 72.8581C160.272 73.0413 160.364 73.1329 160.364 73.316V73.4076L160.455 73.9571V74.1403C160.547 74.3235 160.547 74.5067 160.547 74.6898C160.547 74.7814 160.547 74.7814 160.547 74.873L160.639 75.6057C160.639 75.6057 160.639 75.6057 160.639 75.6973C160.639 75.8804 160.73 76.1552 160.73 76.3384C160.73 76.43 160.73 76.43 160.73 76.5215L160.822 77.2542L160.913 77.8037V77.9869C160.913 78.0785 160.913 78.2617 161.005 78.3533V78.5364C161.005 78.628 161.005 78.8112 161.005 78.9028V79.0859V79.4523C161.005 79.5439 161.005 79.5439 161.005 79.6355L161.096 80.3681C161.096 80.4597 161.096 80.4597 161.096 80.5513C161.096 80.8261 161.096 81.0092 161.188 81.284V81.3756V82.0167V82.1083C161.188 82.383 161.188 82.5662 161.188 82.841C161.188 82.9325 161.188 82.9325 161.188 83.0241V83.8484C161.188 84.0316 161.188 84.3063 161.188 84.4895V84.5811C161.188 84.8558 161.188 85.039 161.188 85.3138C161.188 85.3138 161.188 85.4054 161.188 85.4969C161.188 85.7717 161.188 85.9549 161.188 86.2296C161.188 86.3212 161.188 86.3212 161.188 86.4128V86.7791C161.188 86.8707 161.188 86.9623 161.188 86.9623V87.3287V87.5118C161.188 87.6034 161.188 87.7866 161.188 87.8782C161.188 87.9698 161.188 87.9698 161.188 88.0613L161.096 88.5193V88.6109C161.096 88.794 161.005 88.9772 161.005 89.1604V89.3435L160.913 89.7099V89.8931L160.822 90.2594V90.4426C160.822 90.5342 160.73 90.7173 160.73 90.8089V90.9921C160.73 91.1753 160.639 91.3584 160.639 91.5416V91.6332L160.547 92.0911C160.547 92.1827 160.547 92.1827 160.547 92.2743C160.547 92.3659 160.455 92.549 160.455 92.6406C160.455 92.7322 160.455 92.8238 160.455 92.8238C160.455 92.8238 160.364 93.0986 160.364 93.1901C160.364 93.2817 160.364 93.3733 160.272 93.3733C160.181 93.3733 160.181 93.6481 160.181 93.7397C160.181 93.7397 160.181 93.8312 160.181 93.9228C160.089 94.106 160.089 94.2892 160.089 94.4723V94.6555C160.089 94.7471 159.997 94.9303 159.997 95.0219L159.906 95.205C159.906 95.2966 159.814 95.4798 159.814 95.5714L159.723 95.7545C159.631 96.0293 159.631 96.2125 159.539 96.4872V96.5788L159.356 97.2199V97.3115L159.173 98.0442L159.082 98.2274C158.99 98.5021 158.898 98.6853 158.807 98.96V99.0516C158.715 99.2348 158.624 99.5096 158.532 99.6927C158.532 99.6927 158.532 99.7843 158.44 99.7843L158.166 100.517C158.166 100.609 158.166 100.609 158.074 100.7C157.983 100.975 157.891 101.158 157.799 101.433V101.524L157.525 102.166L157.433 102.257C157.341 102.532 157.25 102.715 157.158 102.898L157.067 103.081L156.792 103.814C156.792 103.814 156.792 103.814 156.792 103.906L156.517 104.547L156.426 104.638L156.059 105.279L155.968 105.463C155.876 105.646 155.693 105.921 155.601 106.104C155.51 106.287 155.327 106.562 155.235 106.745L155.143 106.836C155.052 107.02 154.869 107.294 154.777 107.478L154.685 107.569L154.319 108.21L157.25 115.812L157.616 115.171L157.708 115.079C157.799 114.896 157.983 114.621 158.074 114.438L158.166 114.346C158.257 114.163 158.44 113.889 158.532 113.705L158.898 112.973L158.99 112.789C159.082 112.606 159.265 112.332 159.356 112.148L159.448 112.057L159.723 111.416L159.997 110.683L160.089 110.5C160.181 110.225 160.272 110.042 160.364 109.767L160.455 109.676L160.73 109.034V108.943L161.005 108.21L161.096 108.027L161.371 107.294V107.203C161.463 107.02 161.554 106.745 161.646 106.562V106.47C161.738 106.195 161.829 106.012 161.921 105.737L162.012 105.554C162.104 105.279 162.195 105.096 162.287 104.822V104.73C162.379 104.547 162.379 104.272 162.47 104.089V103.997L162.653 103.265V103.173V103.081C162.653 102.99 162.745 102.898 162.745 102.715L162.837 102.532C162.837 102.44 162.928 102.257 162.928 102.166V101.982C163.02 101.799 163.02 101.616 163.02 101.433C163.02 101.433 163.02 101.341 163.02 101.25C163.02 101.067 163.111 100.975 163.111 100.883C163.111 100.792 163.111 100.792 163.203 100.7L163.295 100.334C163.295 100.242 163.295 100.151 163.295 100.151L163.386 99.7843C163.386 99.6927 163.386 99.6927 163.386 99.6011L163.478 99.1432V99.0516C163.478 98.8685 163.569 98.6853 163.569 98.5021V98.3189C163.569 98.2274 163.661 98.0442 163.661 97.9526V97.7694C163.661 97.6778 163.661 97.4947 163.752 97.4031C163.844 97.3115 163.752 97.2199 163.752 97.2199C163.752 97.2199 163.752 96.9452 163.844 96.8536V96.6704C163.844 96.4872 163.936 96.3041 163.936 96.1209V96.0293L164.027 95.4798V95.2966C164.027 95.205 164.027 95.0219 164.027 94.9303C164.027 94.8387 164.027 94.7471 164.027 94.7471V94.3808C164.027 94.2892 164.027 94.1976 164.027 94.1976V93.9228C164.027 93.8312 164.027 93.8312 164.027 93.7397C164.027 93.4649 164.027 93.2817 164.027 93.007V92.8238V92.0911C164.027 91.9079 164.027 91.6332 164.027 91.45V90.6257" fill="#111927"/>
<path d="M161.096 77.2535C162.745 87.6943 160.181 98.4098 154.502 108.118L147.633 105.828C152.396 97.4024 154.594 88.2438 153.129 79.2684C151.297 67.3623 143.695 58.1121 132.888 52.5254L128.858 57.7458L124.371 63.6073C122.356 62.5082 120.249 61.5924 118.051 60.9513L122.539 55.0898L126.569 49.8694C116.219 46.2976 103.855 45.748 90.9418 48.9535C85.7214 50.2357 80.5926 52.0675 75.8301 54.4487L72.2583 49.0451C77.9366 46.206 83.8897 44.0079 90.0259 42.5425C125.103 33.9335 156.884 49.5031 161.096 77.2535Z" fill="#A4B1CD"/>
<path d="M154.594 108.026L157.525 115.628L150.564 113.338L147.633 105.737L154.594 108.026Z" fill="#68748E"/>
<path fill-rule="evenodd" clip-rule="evenodd" d="M108.801 19.0971C109.625 18.7307 110.541 18.3644 111.365 17.9981C114.937 16.4411 118.601 15.2505 122.356 14.5178C127.851 13.3272 133.621 14.1515 138.658 16.8074C140.215 17.6317 141.589 18.7307 142.871 20.0129C143.329 20.4709 143.695 20.9288 144.062 21.3867C145.71 23.4932 145.344 26.4239 143.329 28.1641C142.413 28.8968 141.314 29.3547 140.215 29.3547C139.665 29.3547 139.116 29.2631 138.475 29.2631C137.467 29.2631 136.552 29.3547 135.636 29.4463C131.606 30.2705 127.759 31.9191 124.462 34.3003C120.982 36.6816 117.502 39.246 113.93 41.444C111.457 43.001 108.709 44.3748 105.687 43.5505C105.229 43.4589 104.68 43.2757 104.222 43.001C103.031 42.3599 102.024 41.444 101.383 40.2534C101.108 39.7955 100.925 39.3375 100.833 38.8796C100.1 39.3375 99.3677 39.7955 99.0014 39.9786C97.4444 40.9861 96.0706 42.0851 94.6052 43.1841C94.0557 43.6421 93.5978 44.0084 93.0483 44.4663C92.7735 44.6495 92.5903 44.8327 92.3156 45.0159C90.1175 46.4812 87.0952 45.9317 85.5382 43.7337C85.2635 43.2757 84.9887 42.8178 84.8971 42.2683L78.4861 18.7307L82.8823 17.2654C83.8897 16.899 85.0803 16.3495 86.0878 15.8916C88.0111 15.0673 89.9344 14.3346 91.9492 13.7851C96.1622 12.5945 101.108 11.9534 104.954 14.3346C106.695 15.4337 108.068 17.0822 108.801 19.0971Z" fill="#111927"/>
<path fill-rule="evenodd" clip-rule="evenodd" d="M84.714 21.936H84.8056C88.1942 20.7454 103.581 12.3195 104.954 23.2182C105.596 27.8891 111.64 21.4781 123.088 19.28C134.537 17.082 140.123 24.4088 139.665 24.4088C139.207 24.4088 132.064 22.9434 121.531 30.1787C110.999 37.414 108.618 39.5205 106.511 38.4214C104.405 37.3224 106.053 34.1169 104.588 33.2926C100.558 31.0946 89.9343 41.0774 89.8428 40.7111L84.714 21.936Z" fill="#9FEF00"/>
<path d="M149.557 93.0069V92.8237C149.557 92.5489 149.557 92.3658 149.557 92.1826C149.557 92.091 149.557 92.091 149.557 91.9994C149.557 91.8163 149.557 91.6331 149.557 91.4499V91.1752V90.7172V90.4425C149.557 90.3509 149.557 90.2593 149.557 90.2593V89.9845V89.893C149.557 89.7098 149.557 89.435 149.465 89.2519V89.0687C149.465 88.8855 149.374 88.6108 149.374 88.4276C149.374 88.2444 149.282 87.9697 149.282 87.6949C149.282 87.6033 149.282 87.5117 149.282 87.5117L149.19 86.9622C149.19 86.8706 149.19 86.779 149.19 86.779C149.099 86.5043 149.099 86.3211 149.007 86.0464V85.9548L148.824 85.3137V85.2221L148.641 84.581C148.641 84.581 148.641 84.4894 148.641 84.3978C148.549 84.1231 148.549 83.9399 148.458 83.7567V83.6651L148.275 83.024V82.9324C148.183 82.7493 148.183 82.6577 148.091 82.4745C148.091 82.3829 148 82.2913 148 82.1998C146.992 79.6354 145.985 77.1625 145.069 74.5981C145.161 74.8729 145.252 75.0561 145.344 75.3308V75.4224C145.435 75.6056 145.527 75.8803 145.527 76.0635V76.1551C145.619 76.3383 145.619 76.613 145.71 76.7962C145.71 76.7962 145.71 76.8878 145.71 76.9794L145.893 77.7121V77.8036C145.985 77.9868 145.985 78.2616 146.076 78.4447V78.5363C146.168 78.8111 146.168 78.9943 146.26 79.269C146.26 79.3606 146.26 79.4522 146.351 79.4522L146.443 80.0017C146.443 80.0933 146.443 80.1849 146.443 80.1849C146.443 80.4596 146.534 80.6428 146.534 80.9176C146.534 81.1923 146.626 81.3755 146.626 81.5587C146.626 81.5587 146.626 81.6502 146.626 81.7418C146.626 81.925 146.718 82.1998 146.718 82.3829V82.4745C146.718 82.4745 146.718 82.8409 146.718 83.024C146.718 83.2072 146.718 83.2072 146.718 83.2988C146.718 83.3904 146.718 83.5735 146.718 83.7567C146.718 83.9399 146.718 83.9399 146.718 84.0315V84.581C146.718 84.6726 146.718 84.6726 146.718 84.7642C146.718 85.0389 146.718 85.2221 146.718 85.4053V86.1379C146.718 86.2295 146.718 86.3211 146.718 86.4127C146.718 86.5043 146.718 86.6875 146.718 86.8706V87.1454C146.718 87.3286 146.718 87.4201 146.718 87.6033C146.718 87.7865 146.718 87.7865 146.718 87.8781C146.718 87.9697 146.718 88.2444 146.626 88.5192V88.6108L146.534 89.2519V89.3434C146.534 89.5266 146.443 89.8014 146.443 89.9845V90.0761L146.351 90.7172V90.8088C146.351 90.992 146.26 91.2667 146.26 91.4499C146.26 91.4499 146.26 91.5415 146.26 91.6331C146.26 91.8163 146.168 92.091 146.168 92.2742C146.168 92.2742 146.168 92.2742 146.168 92.3658C146.168 92.5489 146.076 92.7321 146.076 93.0069V93.0985L145.985 93.7396V93.8311C145.893 94.0143 145.893 94.1975 145.802 94.4722V94.5638L145.619 95.2049C145.619 95.2049 145.619 95.2965 145.619 95.3881C145.527 95.5713 145.527 95.846 145.435 96.0292C145.435 96.0292 145.435 96.0292 145.435 96.1208C145.344 96.304 145.344 96.4871 145.252 96.6703C145.252 96.7619 145.252 96.7619 145.161 96.8535L144.977 97.4946C144.977 97.4946 144.977 97.4946 144.977 97.5862C144.886 97.7693 144.794 97.9525 144.794 98.2273L144.703 98.4104L144.428 99.0515L144.153 99.6926L144.062 99.8758C143.97 100.059 143.878 100.242 143.787 100.517C143.695 100.7 143.604 100.883 143.512 101.158L143.421 101.341C143.237 101.799 143.054 102.165 142.871 102.623C142.871 102.715 142.871 102.715 142.779 102.807L142.505 103.448L142.138 104.089L142.047 104.272L141.772 104.821L141.406 105.463C141.406 105.554 141.314 105.554 141.314 105.646C141.222 105.829 141.131 106.012 140.948 106.195L140.581 106.836L140.49 107.019L140.123 107.569V107.661L139.757 108.21L139.665 108.393L139.299 108.943V109.034L138.933 109.584L138.566 108.576L138.2 109.126L138.109 109.218C138.017 109.401 137.834 109.584 137.742 109.767C137.651 109.95 137.376 110.317 137.193 110.5L137.101 110.591L136.552 111.232L136.368 111.507C136.185 111.69 136.094 111.874 135.91 112.057L135.727 112.24L135.086 112.973L134.445 113.705L134.262 113.888L133.712 114.438L133.529 114.621L132.98 115.171L132.888 115.262L132.155 115.995L131.789 116.361L131.606 116.544L131.056 117.094L130.415 117.643L130.232 117.827L129.774 118.193L129.499 118.376L129.133 118.742L128.858 118.926L128.492 119.2L128.217 119.384L127.851 119.658L127.576 119.841L127.301 120.025L126.569 120.574L126.386 120.757C126.111 120.941 125.836 121.215 125.47 121.398L125.287 121.49L124.554 122.04L124.279 122.223C124.004 122.406 123.638 122.589 123.363 122.864L126.294 130.465L127.21 129.824L127.485 129.641L128.217 129.183L128.4 129.092L129.316 128.451L129.499 128.267L130.232 127.718L130.415 127.626L130.598 127.535L130.873 127.352L131.24 127.077L131.514 126.894L131.881 126.619L132.155 126.436L132.522 126.069L132.797 125.886L133.254 125.52L133.438 125.337L134.079 124.787L134.628 124.238L134.811 124.054L135.086 123.78L135.178 123.688L135.91 122.955L136.002 122.864L136.552 122.314L136.735 122.131L137.193 121.582L137.376 121.398L138.017 120.666L138.658 119.933L138.841 119.658L139.299 119.109L139.482 118.834L140.032 118.193L140.123 118.101L140.765 117.369L140.856 117.277L141.222 116.819V116.728L141.589 116.178C141.589 116.086 141.68 116.086 141.68 115.995L142.047 115.445V115.354L142.413 114.804C142.413 114.713 142.505 114.713 142.505 114.621L142.871 114.072C142.871 114.072 142.871 114.072 142.871 113.98C142.963 113.797 143.146 113.614 143.237 113.43L143.329 113.247L143.695 112.606C143.787 112.423 143.878 112.24 144.062 112.057C144.062 111.965 144.153 111.965 144.153 111.874L144.52 111.232C144.611 111.049 144.703 110.866 144.794 110.683L144.886 110.5C144.977 110.317 145.069 110.133 145.252 109.859C145.344 109.675 145.435 109.492 145.527 109.309L145.619 109.126C145.71 108.943 145.802 108.76 145.893 108.485C145.985 108.302 146.076 108.119 146.168 107.844L146.26 107.661L146.534 107.019C146.626 106.836 146.718 106.562 146.809 106.378L146.901 106.195C146.992 106.012 147.084 105.829 147.176 105.554C147.267 105.371 147.359 105.188 147.45 104.913L147.542 104.73C147.633 104.547 147.633 104.363 147.725 104.18C147.817 103.997 147.908 103.722 147.908 103.539L148 103.356C148.091 103.173 148.091 102.99 148.183 102.807C148.183 102.807 148.183 102.807 148.183 102.715C148.275 102.532 148.275 102.349 148.366 102.257C148.458 102.165 148.366 102.165 148.366 102.074C148.366 102.074 148.366 101.982 148.366 101.891C148.458 101.708 148.458 101.433 148.549 101.25C148.549 101.25 148.549 101.25 148.549 101.158C148.641 100.975 148.641 100.792 148.732 100.517V100.425C148.824 100.242 148.824 99.9674 148.824 99.7842V99.6926C148.916 99.5095 148.916 99.3263 148.916 99.1431V99.0515L149.007 98.4104V98.2273C149.007 98.0441 149.099 97.7693 149.099 97.5862C149.099 97.5862 149.099 97.5862 149.099 97.4946C149.099 97.3114 149.099 97.1282 149.19 96.9451C149.19 96.9451 149.19 96.8535 149.19 96.7619C149.19 96.5787 149.282 96.304 149.282 96.1208C149.282 96.1208 149.282 96.0292 149.282 95.9376L149.374 95.2965V95.7544C149.374 95.5713 149.374 95.4797 149.374 95.2965C149.374 95.1133 149.374 95.2049 149.374 95.2049C149.374 95.2049 149.374 95.0218 149.374 94.9302C149.374 94.8386 149.374 94.6554 149.374 94.5638C149.374 94.4722 149.374 94.3807 149.374 94.2891C149.374 94.1975 149.374 94.0143 149.374 93.8311V93.0069" fill="#111927"/>
<path d="M113.838 136.51L114.846 136.143L115.121 136.052L116.036 135.686L116.128 135.594L117.135 135.136H117.227L117.41 135.044L118.051 134.77L118.326 134.678L119.242 134.312L116.311 126.71L115.395 127.076L115.121 127.168L114.479 127.443L114.205 127.534L113.197 127.992L113.014 128.084L112.098 128.45L111.823 128.542C111.457 128.633 111.182 128.817 110.816 128.908H110.724L109.717 129.275L109.442 129.366L108.343 129.732L107.244 130.099L106.969 130.19L105.87 130.557H105.779L104.771 130.831L104.497 130.923L103.489 131.198C102.848 131.381 102.115 131.564 101.474 131.656L101.2 131.747L100.467 131.839L100.009 131.931L99.4594 132.022L98.9099 132.114L97.9024 132.297H97.6277L96.895 132.388L96.6202 132.48L95.796 132.572H95.6128L94.6054 132.663H94.3306L93.5979 132.755H93.2316H92.4989H92.2241L91.3083 132.846H91.2167H90.2092H86.8206H86.0879H85.9047L84.9889 132.755H84.7141L83.9814 132.663H83.6151L82.974 132.572H82.6076L81.9665 132.48L81.6002 132.388L80.9591 132.297H80.6843L79.7685 132.205H79.5853L78.8526 132.114L78.5779 132.022L77.9368 131.931L77.5704 131.839L77.0209 131.747L76.6546 131.656L76.0135 131.473H75.7387L74.9144 131.289L74.0902 131.015L73.8154 130.923L73.2659 130.74L72.9911 130.648L72.4416 130.465L72.1669 130.374L71.6173 130.19L71.3426 130.099L70.7015 129.824L70.5183 129.732L69.694 129.366L69.5109 129.275L68.9614 129L68.6866 128.908L68.2287 128.633L67.9539 128.542L67.496 128.267L67.2212 128.175L66.6717 127.901L66.4885 127.809L65.7559 127.443L65.5727 127.351L65.0232 126.985L64.7484 126.802L64.2905 126.527L64.0157 126.344L63.5578 126.069L63.4662 125.977L63.0083 125.611L62.8251 125.428C62.5504 125.245 62.3672 125.153 62.184 124.97L62.0924 124.878L61.5429 124.42L61.3597 124.237L60.9018 123.871L60.6271 123.688L60.2607 123.321L59.986 123.138L59.528 122.772L59.3449 122.589L58.7953 122.131L58.7038 122.039L58.1542 121.49L57.9711 121.307L57.6047 120.94L57.4216 120.757L57.0552 120.391L56.872 120.116L56.5057 119.75L56.3225 119.566L55.9562 119.109L55.8646 119.017L55.4067 118.376L55.3151 118.193L54.9487 117.735L54.7656 117.46C54.674 117.277 54.5824 117.185 54.4908 117.002L54.3076 116.727C54.2161 116.544 54.1245 116.453 54.0329 116.269C53.9413 116.086 53.9413 116.086 53.8497 115.995L53.575 115.537C53.575 115.445 53.4834 115.445 53.4834 115.353C53.3918 115.079 53.2086 114.896 53.117 114.621L53.0254 114.529C52.9339 114.346 52.8423 114.163 52.6591 113.98C52.4759 113.797 52.5675 113.797 52.5675 113.705L52.2927 113.247L52.2012 112.972L52.018 112.514L51.9264 112.24L51.7432 111.69C51.7432 111.598 51.6517 111.507 51.6517 111.415L51.3769 110.683L54.3076 118.284C54.3992 118.559 54.4908 118.834 54.5824 119.017C54.5824 119.108 54.674 119.2 54.674 119.292C54.674 119.383 54.8572 119.658 54.9487 119.841C55.0403 120.024 55.0403 120.024 55.0403 120.116L55.2235 120.574C55.3151 120.665 55.3151 120.757 55.3151 120.849L55.5898 121.307L55.6814 121.581C55.773 121.764 55.8646 121.948 55.9562 122.131L56.0478 122.222C56.2309 122.497 56.3225 122.68 56.4141 122.864L56.5057 123.047L56.7805 123.505L56.9636 123.779L57.2384 124.237L57.4216 124.512L57.6963 124.97L57.8795 125.245L58.2458 125.703C58.2458 125.794 58.3374 125.794 58.3374 125.886C58.5206 126.069 58.6122 126.344 58.7953 126.527L58.8869 126.619C58.9785 126.802 59.1617 126.985 59.2533 127.076C59.3449 127.168 59.3448 127.168 59.4364 127.26L59.8028 127.626L59.986 127.809C60.0775 127.901 60.2607 128.084 60.3523 128.175L60.5355 128.359L60.9018 128.725L61.085 128.908L61.6345 129.458L61.7261 129.549C61.9092 129.732 62.0924 129.916 62.2756 130.007L62.4588 130.19L62.9167 130.557C63.0083 130.648 63.0999 130.74 63.1915 130.74L63.4662 131.473L63.741 131.656L64.1989 132.022L64.3821 132.205L65.0232 132.663L65.1148 132.755L65.7559 133.213L65.939 133.304L66.397 133.671L66.6717 133.854L67.1296 134.129L67.4044 134.312L67.8623 134.586L68.1371 134.77L68.6866 135.136L68.8698 135.228L69.6025 135.594L69.7856 135.686L70.3351 135.96L70.6099 136.052L71.0678 136.327L71.3426 136.418L71.8005 136.693L72.0753 136.785L72.6248 137.059L72.8995 137.151L73.7238 137.517L73.907 137.609L74.5481 137.884L74.8228 137.975L75.3724 138.158L75.6471 138.25L76.1966 138.433L76.4714 138.525L77.0209 138.708L77.2957 138.799C77.5704 138.891 77.8452 138.983 78.1199 139.074L79.0358 139.349L79.3105 139.441L79.9516 139.624L80.318 139.715L80.8675 139.807L81.2338 139.898L81.8749 139.99L82.1497 140.082L82.8824 140.173H83.0656L83.9814 140.356H84.2562L84.8973 140.448H85.4468L86.0879 140.54H86.3626L87.0037 140.631H87.2785L88.0112 140.723H88.2859L89.2018 140.814H89.385H90.1177H90.484H91.1251H93.5063H94.5138H94.6054H95.338H95.5212H95.796L96.5287 140.723H96.8034L97.5361 140.631H97.8109C98.1772 140.631 98.452 140.54 98.8183 140.54H99.0015L99.8257 140.448H100.192L100.925 140.356L101.2 140.265L102.207 140.082L102.756 139.99L103.306 139.898L103.764 139.807L104.497 139.715L104.771 139.624C105.412 139.532 106.145 139.349 106.786 139.166L107.794 138.891H107.885H108.068L109.076 138.616H109.167C109.534 138.525 109.9 138.433 110.267 138.25L110.541 138.158L111.64 137.792L112.739 137.426L112.831 137.334L113.014 137.242L114.022 136.876H113.838" fill="#111927"/>
<path d="M119.425 131.29L122.356 138.891L119.15 134.312L116.22 126.71L119.425 131.29Z" fill="#357C03"/>
<path d="M143.604 111.874C138.841 118.01 132.98 123.322 126.386 127.444L123.18 122.865C139.024 112.699 148.549 96.4878 146.168 80.9183C144.977 72.9503 140.581 65.8982 134.17 61.1357L128.95 66.3561C134.17 70.3859 137.742 76.2474 138.75 82.8416C141.497 100.792 125.378 119.842 102.756 125.429C80.1348 131.016 59.528 120.941 56.7804 102.99C56.7804 102.716 56.6888 102.532 56.6888 102.258L49.0872 103.357C49.0872 103.815 49.1788 104.364 49.2704 104.822C52.4759 126.07 76.8377 137.976 103.672 131.382C107.977 130.283 112.19 128.818 116.22 126.894L119.425 131.474C114.663 133.763 109.717 135.595 104.497 136.877C86.5458 141.273 69.6024 138.434 57.8795 130.466L51.7432 135.595C65.2063 144.937 84.8057 148.325 105.504 143.197C124.462 138.526 140.49 127.719 150.564 114.347L143.604 111.874Z" fill="#9FEF00"/>
<path d="M147.817 128.358L148.183 127.992L148.366 127.809L148.916 127.259L149.007 127.168L149.465 126.71C149.557 126.618 149.557 126.618 149.648 126.527L150.015 126.16C150.106 126.069 150.106 125.977 150.198 125.886L150.473 125.519L150.656 125.245L150.931 124.878L151.114 124.603L151.388 124.237L151.572 123.962L151.846 123.596L152.03 123.413L152.396 122.863L152.487 122.772L152.945 122.222L153.403 121.581L150.473 113.979L149.923 114.621C149.74 114.804 149.648 114.987 149.465 115.17L149.374 115.262L149.007 115.811L148.824 115.994L148.549 116.361L148.366 116.635L148.091 117.002L147.908 117.277L147.633 117.643L147.45 117.918L147.175 118.284L146.992 118.559L146.718 118.925L146.534 119.108L146.168 119.566L146.076 119.658L145.527 120.207C145.435 120.299 145.435 120.299 145.344 120.39C145.252 120.482 145.069 120.665 144.977 120.757L144.794 120.94L144.428 121.306L144.245 121.581L143.878 121.947L143.604 122.222L143.237 122.589L142.963 122.772L142.596 123.138C142.505 123.23 142.413 123.23 142.413 123.321L142.23 123.504L141.772 123.962L141.497 124.146L141.039 124.512L140.764 124.695L140.398 125.061L140.215 125.245L139.482 125.886H139.391L138.75 126.435L138.475 126.618C138.292 126.71 138.109 126.893 137.925 126.985C137.834 127.076 137.742 127.168 137.651 127.168L137.193 127.534L136.918 127.717L136.368 128.175L136.185 128.267L135.819 128.725L135.544 128.908L135.086 129.274L134.811 129.457L134.353 129.824L134.17 130.007L133.621 130.373L133.438 130.465C132.98 130.831 132.522 131.106 131.972 131.472L131.881 131.564L131.24 131.93L130.965 132.113L130.507 132.388L129.866 132.846C129.683 133.029 129.408 133.121 129.133 133.304L128.858 133.487L128.4 133.762L128.126 133.945L127.759 134.22L127.485 134.403L127.118 134.678L126.752 134.861L126.386 135.044L126.019 135.227L125.653 135.411L125.287 135.594L124.829 135.777L124.554 135.96L124.096 136.143L123.821 136.326L123.363 136.601L123.088 136.784L122.631 137.059L122.356 137.151L121.715 137.425C121.715 137.425 121.623 137.425 121.623 137.517L120.89 137.883L120.616 137.975L120.066 138.25L119.791 138.341L119.333 138.524L118.967 138.616L118.509 138.799L118.143 138.982L117.685 139.166L117.319 139.257L116.861 139.44L116.494 139.532L116.036 139.715L115.762 139.807L115.212 139.99L115.029 140.081L114.205 140.356H114.113L113.38 140.631L113.106 140.723L112.556 140.906L112.19 140.997L111.732 141.18L111.365 141.272L110.908 141.455L110.541 141.547L110.083 141.73L109.717 141.822L109.259 141.913L108.893 142.005L108.435 142.096L108.068 142.188L107.61 142.279L107.244 142.371L106.695 142.554L106.42 142.646L105.596 142.829L104.68 143.012L104.405 143.104L103.764 143.287L103.489 143.379C102.94 143.47 102.298 143.653 101.749 143.745H101.474L100.833 143.836H100.558L99.7341 144.02H99.6425L98.7266 144.203L98.2687 144.294L97.536 144.386L97.1697 144.478L96.5286 144.569L96.1622 144.661L95.5211 144.752L95.1548 144.844L94.4221 144.935H94.0558L93.0483 145.027H92.8652L91.9493 145.119H91.583H90.9419H90.3923H90.2092H89.3849H89.2017H88.5606H85.4467H84.8056H84.5309H83.7066H83.615H82.8823H82.6076H81.9665H81.6917H80.8674L80.0432 145.027H79.86L79.2189 144.935H78.9441L78.2114 144.844H78.1199L77.2956 144.752H77.1124L76.4713 144.661H76.1966L75.5555 144.569H75.3723L74.6396 144.478H74.4564L73.8153 144.386H73.5406L72.8995 144.294H72.7163L71.9836 144.111H71.8004L71.1593 144.02L70.8846 143.928L70.3351 143.836L70.1519 143.745L69.4192 143.562H69.8771L69.236 143.379L69.0529 143.287L68.5034 143.104L68.3202 143.012L67.5875 142.829H67.4959L66.8548 142.646L66.6716 142.554L66.1221 142.371L65.939 142.279L64.5652 141.822L64.382 141.73L63.8325 141.547L63.6493 141.455L63.0082 141.18H62.9166L62.1839 140.906L62.0008 140.814L61.5428 140.631L61.3597 140.539L60.8101 140.265L60.7186 140.173L60.0775 139.898L59.8943 139.807L59.4364 139.532L59.2532 139.44L58.7953 139.166L58.6121 139.074L57.971 138.799C57.8794 138.799 57.8794 138.708 57.7878 138.708L57.3299 138.433L57.1467 138.341L56.6888 138.067L56.5056 137.975L55.8645 137.609L55.7729 137.517L55.315 137.242L55.1318 137.151L54.6739 136.876L54.4907 136.784L53.9412 136.418H53.8496L53.3001 136.052L53.117 135.96L52.4758 136.052L52.2927 135.96L51.7432 135.594L54.6739 143.195L55.2234 143.562L55.4066 143.653L55.8645 143.928L56.0477 144.02L56.5972 144.386L56.6888 144.478L57.3299 144.844L57.5131 144.935L57.971 145.21L58.1542 145.302L58.7037 145.577L58.7953 145.668L59.4364 146.035L59.6195 146.126L60.0775 146.401L60.2606 146.492L60.7186 146.767L60.9017 146.859L61.5428 147.225L61.726 147.317L62.2755 147.591L62.4587 147.683L62.9166 147.958L63.0998 148.049L63.7409 148.324H63.8325L64.382 148.599L64.5652 148.69L65.0231 148.874L65.2063 148.965L65.939 149.24H66.0305L66.6716 149.515L66.8548 149.606L67.4043 149.79L67.5875 149.881L68.9613 150.339L69.1445 150.431L69.694 150.614L69.8771 150.705L70.5182 150.889H70.6098L71.3425 151.072L71.5257 151.163L72.0752 151.346L72.2584 151.438L72.8995 151.621H72.9911L73.7237 151.804L73.9069 151.896L74.4564 151.988L74.6396 152.079L75.3723 151.621H75.5555L76.2881 151.804H76.4713L77.1124 151.896L77.3872 151.988L78.0283 152.079H78.2114L78.9441 152.171H79.1273L79.7684 152.262H80.0432L80.6843 152.354H80.8674L81.6917 152.446H81.7833L82.516 152.537H82.7907L83.4318 152.629H83.7066L84.5309 152.72L85.3551 152.812H85.6299H86.271H86.5457H87.2784H87.37H88.1943H91.2166H91.8577H92.1325H92.7736H92.9567H93.781H93.9642H94.4221H94.6053V152.812H94.9716L95.8875 152.72H96.0707L97.0781 152.629H97.3529L98.0855 152.537H98.4519L99.093 152.446L99.5509 152.354L100.192 152.262L100.558 152.171L101.291 152.079L101.657 151.988L102.573 151.804H102.665L103.489 151.621H103.764L104.405 151.53L104.68 151.438L105.596 151.255L106.42 151.072L106.695 150.98L107.336 150.797L107.61 150.705L108.526 150.522L109.351 150.339L109.625 150.247L109.992 150.156H110.175L110.541 150.064L110.999 149.973L111.365 149.881L111.823 149.79L112.19 149.698L112.648 149.606L113.014 149.515L113.472 149.423L113.838 149.332L114.296 149.148L114.754 148.874L115.212 148.69L115.578 148.599L116.036 148.416L116.403 148.324H116.494L117.044 148.141L117.227 148.049L118.051 147.775L118.326 147.683L118.876 147.5L119.15 147.408L119.608 147.225L119.975 147.134L120.432 146.95L120.799 146.859L121.257 146.676L121.623 146.584L122.081 146.401L122.447 146.309L122.539 146.218L122.905 146.035L123.18 145.943L123.73 145.668L123.913 145.577L124.645 145.21H124.737L125.378 144.935L125.653 144.844L126.111 144.569L126.386 144.386L126.843 144.111L127.118 143.928L127.576 143.653L127.851 143.47L128.034 143.379L128.309 143.287L128.584 143.104L128.95 142.921L129.316 142.737L129.683 142.463L130.049 142.279L130.415 142.005L130.69 141.822L131.148 141.547L131.423 141.364L131.881 141.089L132.155 140.906L133.529 140.081L133.987 139.807L134.262 139.623L134.811 139.257L134.995 139.166C135.453 138.799 135.91 138.524 136.46 138.158L136.643 138.067L137.193 137.7L137.376 137.517L137.834 137.151L138.109 136.968L138.566 136.601L138.841 136.418L139.208 136.143L139.391 136.052L139.94 135.594L140.215 135.411L140.673 135.044L140.948 134.861L141.406 134.495L141.68 134.312L142.321 133.762L142.413 133.67L143.146 133.029L143.329 132.846L143.787 132.388L144.062 132.205L144.52 131.839L144.794 131.656L145.252 131.198L145.435 131.106C145.435 131.106 145.435 131.106 145.527 131.014L145.802 130.831L146.168 130.557C146.26 130.465 146.351 130.373 146.443 130.282L146.809 130.007L147.084 129.732L147.45 129.366C147.542 129.274 147.633 129.183 147.725 129.091L148.091 128.725L148.275 128.542" fill="#357C03"/>
<path d="M90.3008 86.9624L93.2315 94.4724L86.6373 92.6407L83.7066 85.0391L90.3008 86.9624Z" fill="#111927"/>
<path d="M116.219 88.2449C117.41 96.3044 110.175 104.822 100.009 107.295C89.8428 109.768 80.5926 105.28 79.402 97.2203C79.1273 95.2054 79.3104 93.1905 79.9515 91.2672L86.5457 93.1905C86.4541 93.9232 86.4541 94.7474 86.5457 95.4801C87.2784 100.426 92.9567 103.173 99.1845 101.708C105.412 100.243 109.9 94.9306 109.076 89.985C108.252 85.0394 102.665 82.2918 96.437 83.8487C94.1473 84.3983 92.0409 85.4973 90.3007 86.9627L83.7066 85.0394C86.9121 81.6507 90.9418 79.2695 95.5211 78.1704C105.687 75.6976 114.937 80.1853 116.219 88.2449Z" fill="white"/>
<path fill-rule="evenodd" clip-rule="evenodd" d="M108.893 89.1603C107.702 84.7642 102.299 82.3829 96.4371 83.8483C94.1474 84.3978 92.0409 85.4968 90.3008 86.9622L91.2167 89.2519L93.2316 94.4722L93.3231 94.3807L93.4147 94.2891L93.5063 94.1975L93.5979 94.1059L93.6895 94.0143L93.7811 93.9227L93.8727 93.8311L93.9642 93.7396H94.0558H94.1474L94.239 93.648L94.3306 93.5564L94.4222 93.4648L94.7885 93.19L95.0633 93.0069L95.4296 92.7321L95.5212 92.6405H95.6128H95.7044H95.5212L95.6128 92.5489L95.796 92.4574H95.8875H95.9791H96.0707H96.1623H96.2539H96.3455H96.4371V92.4574H96.5286H96.6202H96.7118H96.8034H96.895H96.9866H97.0782H97.1697H97.2613H97.3529V92.4574H97.4445L97.6277 92.3658H97.7193H97.8108H97.9024H97.994H98.0856L98.2688 92.2742H98.4519H98.5435H98.6351L98.9099 92.1826L99.1846 92.091L100.1 90.4425L100.375 90.3509H100.65H100.925C101.2 90.3509 101.474 90.2593 101.657 90.2593H101.932H103.398H103.581H103.672H103.856H103.947H104.13H104.222H104.405H104.497H104.68H104.771H104.955H105.046H105.229H105.321H105.504H105.596H105.687H105.779H105.596H105.687H105.87L106.054 90.3509H106.145H106.328H106.42H106.511H106.603H106.695L106.878 90.4425L107.061 90.5341L107.244 90.6256H107.336L107.427 90.7172H107.519L107.611 90.8088H107.702L107.885 90.9004L108.068 90.992L108.16 91.0836H108.252L108.343 91.1752V91.1752L108.435 91.2667H108.526L108.618 91.3583L108.71 91.4499C108.893 90.5341 108.984 89.6182 108.801 88.7023C108.71 88.4276 108.71 88.1528 108.618 87.8781" fill="#111927"/>
<path fill-rule="evenodd" clip-rule="evenodd" d="M86.1794 19.3719L104.863 85.5884C103.672 90.4425 101.291 98.2273 98.5435 99.3263C96.5286 100.059 93.8726 98.0441 91.7661 95.846L71.4341 23.8596C65.2063 21.2952 62.2755 14.1515 64.8399 8.01529C67.4043 1.87905 74.548 -1.14328 80.6842 1.42112C86.8205 3.98552 89.8428 11.1292 87.2784 17.2655C87.0037 17.9981 86.6373 18.6392 86.1794 19.3719Z" fill="#111927"/>
<path fill-rule="evenodd" clip-rule="evenodd" d="M77.2039 25.9667L79.9514 15.5259L99.0928 83.4825C100.283 91.7252 97.078 96.4877 97.078 96.4877L77.2039 25.9667Z" fill="#647392"/>
<path fill-rule="evenodd" clip-rule="evenodd" d="M76.0132 6.2749C79.5851 6.2749 82.4242 9.11406 82.4242 12.6859C82.4242 16.2577 79.5851 19.0969 76.0132 19.0969C72.4414 19.0969 69.6022 16.2577 69.6022 12.6859C69.6022 9.11406 72.533 6.2749 76.0132 6.2749Z" fill="#8D98B1"/>
<path fill-rule="evenodd" clip-rule="evenodd" d="M74.7313 8.01562C76.7462 8.01562 78.3947 9.66417 78.3947 11.6791C78.3947 13.6939 76.7462 15.3425 74.7313 15.3425C72.7164 15.3425 71.0679 13.6939 71.0679 11.6791C71.0679 9.66417 72.6248 8.01562 74.7313 8.01562Z" fill="white"/>
<path fill-rule="evenodd" clip-rule="evenodd" d="M85.7213 35.8575L80.5009 17.2656C80.1346 17.632 79.7683 17.9067 79.3103 18.1815L77.2039 25.9663L80.4094 37.4145L82.5158 44.7413L84.256 50.8776L84.8971 53.1672C85.0802 52.2514 85.2634 51.3355 85.5382 50.4197C86.1793 47.9468 86.9119 45.5656 87.7362 43.1844L85.7213 35.8575Z" fill="#A4B1CD"/>
<path fill-rule="evenodd" clip-rule="evenodd" d="M104.68 21.7529C102.482 14.5176 92.2241 18.7306 87.0953 21.0202C86.0879 21.4781 85.3552 21.7529 84.8057 21.9361L88.1944 34.8496L89.8429 40.8027C90.6672 40.2532 91.4914 39.7037 92.2241 38.971C95.6128 36.315 101.749 31.7357 104.588 33.2927C104.955 33.4759 105.138 33.8422 105.229 34.3001L105.138 32.56L104.68 21.7529Z" fill="#357C03"/>
</g>
<defs>
<clipPath id="clip0">
<rect width="150.475" height="165.495" fill="white" transform="translate(25 0.504395)"/>
</clipPath>
</defs>
</svg>
