<svg width="200" height="167" viewBox="0 0 200 167" fill="none" xmlns="http://www.w3.org/2000/svg">
<path d="M47.5523 118.407V118.409C47.5523 118.409 50.449 119.483 52.1408 121.653C53.8326 123.823 53.9798 125.184 54.9728 126.508C55.9658 127.832 58.3202 127.832 64.6456 138.35C70.9716 148.869 74.5023 157.475 80.8283 162.256C87.1548 167.038 96.2764 165.18 99.1452 163.673C102.014 162.164 102.529 161.687 103.595 162.055C104.662 162.422 111.688 167.387 121.104 165.622C130.519 163.856 140.082 153.852 145.378 142.23C150.674 130.608 150.38 127.077 151.116 112.807C151.851 98.536 150.969 98.8303 152.293 92.2101C153.617 85.5899 153.066 84.2659 157.259 78.7485C161.451 73.2317 161.157 72.4231 161.01 67.4207C160.863 62.4192 162.776 59.9913 164.983 51.5322C167.19 43.0726 166.307 36.2322 160.717 34.2457C155.126 32.2601 150.419 39.6159 148.58 46.8245C146.741 54.0332 146.962 57.5639 146.005 60.1385C145.049 62.713 143.725 62.4923 141.518 67.7149C139.312 72.9375 139.753 78.9692 139.238 80.8817C138.723 82.7942 136.075 85.5159 133.279 82.4264C130.485 79.337 133.647 77.6452 135.413 69.6274C137.178 61.6096 135.339 58.5197 135.928 56.1663C136.516 53.8125 138.944 47.7808 138.87 44.25C138.796 40.7192 137.914 41.3812 138.428 38.5861C138.944 35.7909 143.358 22.2558 139.091 15.4149C134.826 8.57403 127.322 9.97163 124.968 14.9735C122.614 19.9755 123.865 36.1582 122.468 42.7048C121.07 49.2519 120.702 48.7365 121.217 51.3851C121.732 54.0332 122.063 58.0416 120.739 62.2344C119.415 66.4271 119.819 71.5399 119.635 72.5692C119.451 73.599 117.281 73.4887 117.87 71.0613C118.458 68.6339 119.709 57.7841 119.304 55.5406C118.9 53.2976 118.311 52.9661 118.568 52.0466C118.826 51.1271 120.261 38.9529 120.481 32.4062C120.702 25.8596 119.526 25.4913 120.04 24.0202C120.555 22.549 120.997 19.2394 121.511 15.9288C122.026 12.6187 124.453 0.923057 113.567 0.0403638C102.68 -0.84233 101.945 12.9865 102.68 18.5769C103.416 24.1673 103.563 28.4336 103.122 30.4932C102.68 32.5529 103.121 43.7336 102.386 49.4711C101.651 55.2086 101.356 56.2384 102.239 58.4452C103.122 60.6519 102.827 66.3158 102.827 69.0375C102.827 71.7591 103.122 73.5245 101.356 73.5245C99.5909 73.5245 99.5909 71.3913 99.738 68.2283C99.8851 65.0653 98.5611 61.6081 98.2669 59.8428C97.9726 58.0774 99.4438 55.0615 98.9289 52.9283C98.414 50.7952 96.2073 48.5149 96.2073 45.7932C96.2073 43.0716 96.5015 35.348 97.0164 34.6125C97.5313 33.8769 99.1501 26.6677 97.6053 16.9581C96.0601 7.24852 89.2193 1.87881 82.1577 6.36583C75.0962 10.8528 78.0385 26.8884 78.8476 28.8745C79.6573 30.8605 79.1419 30.6399 78.701 33.1408C78.2597 35.6418 79.1419 52.0451 80.0986 53.3692C81.0544 54.6932 80.2457 55.6495 80.0251 56.9735C79.8044 58.2975 79.8407 68.2278 81.1647 69.9202C82.4888 71.612 84.5851 73.4877 84.2909 74.1129C83.9967 74.7382 81.6061 76.6502 81.8267 81.3579C82.0474 86.0656 79.2522 87.0223 79.4729 90.4055C79.6936 93.7891 82.6359 96.5843 82.2681 97.0992C81.9003 97.6146 80.5767 98.2031 80.209 100.41C79.8412 102.617 77.2666 102.984 75.4277 105.706C73.5888 108.427 72.3903 109.782 71.4448 107.339V107.339C74.1659 103.296 75.7548 98.4267 75.7548 93.1864C75.7548 79.1713 64.3926 67.8095 50.3774 67.8095C36.3617 67.8095 25 79.1713 25 93.1864C25 106.247 34.8665 117.001 47.5523 118.407Z" fill="#111827"/>
<path d="M61.1033 120.877C61.1033 120.877 60.5149 122.44 61.3608 123.543C62.2067 124.647 62.4274 125.236 62.446 125.989C62.4642 126.744 64.4139 126.817 70.4457 137.409C76.4779 148.002 80.2288 154.548 81.7 155.725C83.1711 156.902 86.849 159.035 91.1894 158.741C95.5293 158.447 98.9125 157.27 101.193 155.799C103.474 154.328 104.209 154.843 105.606 156.093C107.004 157.344 113.625 161.095 119.877 160.286C126.13 159.477 138.193 147.34 141.503 137.778C144.813 128.215 146.287 123.506 146.139 109.825C145.992 96.143 147.43 85.2188 150.078 81.3938C152.725 77.5688 154.932 73.5231 155.668 71.537C156.404 69.551 155.962 65.5789 152.211 64.9168C148.459 64.2548 146.106 67.2707 145.37 70.4337C144.634 73.5966 144.266 78.7457 144.193 82.4236C144.12 86.1014 141.545 91.6918 136.764 92.1332C131.983 92.5745 127.643 89.4115 126.319 85.8808C124.995 82.35 125.215 81.9827 120.728 81.2471C116.241 80.5111 115.358 78.0101 112.122 77.7159C108.885 77.4216 102.854 79.2606 99.5436 78.2308C96.2335 77.2015 96.0859 75.8034 94.5417 75.6563C92.997 75.5091 89.7967 75.9137 88.2888 78.8928C86.7809 81.8719 87.6268 81.026 86.8544 84.2257C86.0821 87.4255 85.0336 87.4804 85.751 89.7612C86.4685 92.0415 88.7669 93.825 89.0979 96.6942C89.4289 99.5625 86.7441 99.8567 86.4866 101.328C86.2292 102.8 85.7138 106.955 83.3232 107.691C80.9325 108.426 81.0061 107.838 79.7556 109.713C78.5051 111.59 78.9833 113.98 78.1006 115.23C77.2179 116.481 75.2323 115.12 73.5768 116.665C71.9217 118.21 72.4734 119.239 70.708 118.982C68.9426 118.724 67.6921 116.739 67.6921 116.739C67.6921 116.739 65.9263 119.166 63.9775 119.57C62.0282 119.975 61.4025 119.938 61.1033 120.877Z" fill="#283751"/>
<path d="M86.9997 68.7048C86.9997 68.7048 90.3098 72.5298 91.266 72.7504C92.2223 72.9711 93.1785 72.3826 93.4728 70.0288C93.767 67.6749 93.1785 60.3927 93.767 58.3331C94.3555 56.2735 95.7531 54.8754 95.0175 53.1841C94.2819 51.4923 93.105 46.4168 90.8983 45.8283C88.6915 45.2399 85.3079 46.6375 84.5723 49.3591C83.8367 52.0807 87.1468 52.4485 86.7055 54.4346C86.2641 56.4206 85.1608 56.4942 84.9401 58.5538C84.7194 60.6134 86.117 62.7466 86.1906 64.5855C86.2641 66.4245 86.0435 67.8956 86.9997 68.7048Z" fill="#293851"/>
<path d="M83.5416 34.132C83.5416 34.132 84.2772 42.1498 85.0128 42.5912C85.7484 43.0325 88.47 43.5479 90.3825 41.6354C92.295 39.7229 91.7065 36.7801 92.295 34.132C92.8835 31.484 94.4282 30.234 94.3546 28.395C94.2811 26.5561 94.5753 18.6844 92.0743 14.1239C89.5739 9.56279 86.4839 9.41616 83.6888 11.6229C80.8941 13.8296 81.482 17.3977 82.144 20.8916C82.8061 24.3856 82.6222 26.8498 83.3577 27.8796C84.0933 28.9094 84.4984 30.638 84.0933 31.9984C83.6888 33.3597 83.5416 34.132 83.5416 34.132Z" fill="#293851"/>
<path d="M106.2 57.4493C106.862 58.994 107.414 59.6928 107.487 62.5616C107.561 65.4303 107.009 67.3065 107.451 68.5202C107.892 69.7339 108.48 71.9769 110.246 72.308C112.011 72.639 113.188 69.145 113.851 65.2832C114.512 61.4214 115.064 58.1118 114.99 56.2361C114.916 54.3604 113.446 51.344 110.283 51.675C107.247 51.9928 104.656 53.8469 106.2 57.4493Z" fill="#293851"/>
<path d="M107.67 28.467C107.818 28.0257 108.995 23.6858 107.965 21.1113C106.935 18.5367 106.714 10.4454 107.965 7.94394C109.215 5.44347 114.438 3.53048 116.497 6.54684C118.557 9.5627 117.821 19.4199 117.086 22.2887C116.35 25.1574 115.468 28.1728 115.983 30.8209C116.497 33.4689 116.718 40.3834 115.835 43.1786C114.953 45.9737 112.011 49.5045 108.627 47.5185C105.243 45.5324 107.23 38.3973 107.156 33.7632C107.082 29.129 107.67 28.467 107.67 28.467Z" fill="#293851"/>
<path d="M125.252 75.4705C125.252 75.4705 123.266 75.1027 123.193 71.6455C123.119 68.1883 124.149 64.3633 124.811 59.7292C125.473 55.095 124.296 53.9917 124.664 50.5344C125.032 47.0772 126.725 42.1479 126.946 33.2474C127.166 24.3469 126.651 17.7998 129.226 15.7402C131.801 13.6806 135.773 15.7402 136.214 21.6984C136.655 27.6565 134.228 39.3527 134.154 42.6623C134.081 45.9724 134.375 46.782 133.714 49.0623C133.051 51.3426 132.757 50.4599 132.757 54.0637C132.757 57.6681 131.065 59.4334 130.771 61.7137C130.476 63.9945 130.772 63.994 130.552 68.1868C130.33 72.3801 128.639 74.3662 127.756 75.1017C126.874 75.8373 125.252 75.4705 125.252 75.4705Z" fill="#293851"/>
<path d="M72.2189 126.077C72.2189 126.077 70.38 129.828 72.2189 133.286C74.0579 136.743 81.5603 150.057 86.4151 152.705C91.2699 155.353 95.9781 155.941 99.0675 150.866C102.157 145.79 99.3617 139.685 94.3593 135.639C89.3574 131.594 83.6939 128.946 79.5747 126.592C75.4555 124.238 72.9545 124.606 72.2189 126.077Z" fill="#4B5C79"/>
<path d="M125.699 108.496C125.699 108.496 118.491 124.532 113.636 134.978C108.781 145.423 108.34 153.956 118.196 152.632C128.053 151.308 137.174 137.038 138.057 127.77C138.939 118.501 136.733 115.853 136.439 110.262C136.145 104.671 134.967 101.141 132.614 100.405C130.26 99.6695 127.171 104.524 125.699 108.496Z" fill="#4B5C79"/>
<path d="M91.9347 80.9126C91.9347 80.9126 91.9347 81.098 91.9028 81.4241C91.8234 82.2229 91.5502 83.8657 90.6102 85.6939C89.2866 88.2684 90.0217 89.666 91.64 92.9025C93.2582 96.1391 92.7438 97.978 95.0977 98.4193C97.4515 98.8607 98.702 95.7713 100.247 94.3001C101.791 92.829 101.644 85.7674 99.1433 83.4136C96.6424 81.0597 94.2145 80.1035 93.3318 79.8093C92.4491 79.515 91.9347 80.9126 91.9347 80.9126Z" fill="#4B5C79"/>
<path d="M105.505 82.5307C105.505 82.5307 103.004 85.3259 104.402 88.4153C105.8 91.5048 106.462 93.2702 109.036 92.9754C111.611 92.6817 111.537 88.8567 113.376 90.1072C115.215 91.3577 114.627 92.6817 117.642 92.6817C120.658 92.6817 123.38 91.0634 122.644 87.8269C121.909 84.5903 121.541 82.825 118.451 83.4134C115.362 84.0019 114.332 84.5163 112.934 82.7514C111.537 80.986 109.771 79.9562 108.006 80.4711C106.241 80.986 105.505 82.5307 105.505 82.5307Z" fill="#4B5C79"/>
<path d="M85.9765 13.8989C85.9765 13.8989 84.4686 14.708 84.2111 17.1359C83.9537 19.5628 84.1744 21.4753 85.2409 23.9763C86.3075 26.4773 87.3373 29.1994 87.1172 31.1487C86.8965 33.0975 86.2438 33.9532 86.207 34.6608C86.1702 35.3689 85.8853 40.0859 86.7317 40.7479C87.5771 41.41 89.8206 41.9249 89.5632 37.4378C89.3062 32.9508 89.6735 32.3624 89.7839 28.8316C89.8942 25.3008 89.269 25.779 89.931 23.8297C90.593 21.8804 90.593 17.6503 89.4901 15.7378C88.3868 13.8253 86.9519 13.5679 85.9765 13.8989Z" fill="#4B5C79"/>
<path d="M111.448 9.1179C111.448 9.1179 110.05 9.92704 110.124 14.2669C110.197 18.6068 111.521 21.402 111.081 24.9328C110.639 28.4636 109.315 30.4496 109.462 33.7597C109.609 37.0698 108.138 43.028 108.947 44.7198C109.757 46.4116 113.507 46.5588 113.582 42.2189C113.655 37.879 112.478 34.4217 112.625 29.8612C112.772 25.3006 114.096 18.6804 114.758 14.0463C115.42 9.41214 113.287 7.79387 111.448 9.1179Z" fill="#4B5C79"/>
<path d="M88.3886 58.1437C88.3886 58.1437 87.1749 58.2908 87.5427 60.2769C87.9105 62.2629 88.1312 62.8146 88.0944 64.8742C88.0576 66.9338 90.0437 68.8831 90.9264 68.4785C91.8091 68.074 91.7355 59.3206 91.4045 58.1069C91.0735 56.8932 88.9403 58.0334 88.3886 58.1437Z" fill="#4B5C79"/>
<path d="M131.088 18.8633C131.088 18.8633 129.727 19.1207 129.543 21.2171C129.359 23.3135 128.954 27.3965 129.653 29.0147C130.352 30.6325 132.339 30.4486 133.074 27.4328C133.81 24.4169 133.553 23.4969 133.259 21.3638C132.965 19.2306 131.088 18.8633 131.088 18.8633Z" fill="#4B5C79"/>
<path d="M129.949 32.5807C129.949 32.5807 129.361 32.36 129.066 33.868C128.773 35.3759 128.405 37.3252 129.324 38.3918C130.244 39.4584 131.788 38.7228 132.303 37.5091C132.818 36.2954 133.076 33.9783 132.487 33.1692C131.899 32.36 129.949 32.5807 129.949 32.5807Z" fill="#4B5C79"/>
<path d="M129.767 41.7753C129.767 41.7753 128.406 41.9592 128.038 43.2832C127.67 44.6073 126.272 50.97 126.787 52.5515C127.302 54.133 129.067 54.8691 130.759 52.6986C132.451 50.5287 131.862 44.6808 131.679 43.0993C131.495 41.5178 129.767 41.7753 129.767 41.7753Z" fill="#4B5C79"/>
<path d="M127.709 58.3993C127.709 58.3993 126.937 58.9509 126.679 60.606C126.422 62.261 124.84 70.1685 125.282 71.1983C125.723 72.2281 127.305 73.0372 128.298 68.4767C129.291 63.9161 129.879 60.2755 129.401 59.2824C128.923 58.2894 128.371 57.9211 127.709 58.3993Z" fill="#4B5C79"/>
<path d="M157.242 40.818C157.242 40.818 154.593 41.5536 153.784 44.4959C152.975 47.4382 151.357 50.2334 151.283 53.2492C151.21 56.2651 153.748 58.0677 156.323 57.2586C158.897 56.4495 159.595 52.4033 159.963 51.0425C160.331 49.6817 161.693 45.4148 161.472 43.4288C161.251 41.4427 158.162 40.4865 157.242 40.818Z" fill="#293851"/>
<path d="M148.804 67.8874C148.804 67.8874 147.664 69.3217 147.186 71.933C146.708 74.5443 146.267 78.1854 147.039 78.7739C147.811 79.3624 149.503 78.921 151.379 75.1328C153.254 71.3446 153.696 69.947 152.703 68.2184C151.71 66.4898 149.54 67.115 148.804 67.8874Z" fill="#4B5C79"/>
<path d="M157.116 44.8259C157.116 44.8259 155.866 44.311 155.093 46.1132C154.321 47.9153 153.181 50.3059 153.438 51.8139C153.696 53.3218 156.97 54.7199 157.963 51.9615C158.955 49.2031 159.801 46.4074 159.287 45.6718C158.771 44.9362 157.116 44.8259 157.116 44.8259Z" fill="#4B5C79"/>
<path d="M88.5627 119.634C88.5627 119.634 88.0473 122.43 91.431 123.901C94.8147 125.372 102.465 129.27 105.407 128.167C108.349 127.064 117.985 108.968 118.868 105.585C119.751 102.201 116.515 98.5968 110.189 101.097C103.863 103.599 103.053 107.865 98.7868 110.219C94.5204 112.573 90.5488 110.513 88.5627 119.634Z" fill="#4B5C79"/>
<path d="M94.1918 84.951C94.1918 84.951 92.8309 87.6917 93.033 89.1629C93.2355 90.634 94.688 93.006 96.141 92.4357C97.5935 91.8659 98.4213 89.7146 98.0349 88.2253C97.649 86.7355 96.3249 84.9142 95.5893 84.5464C94.8538 84.1786 94.2835 84.3257 94.1918 84.951Z" fill="white"/>
<path d="M108.258 83.8296C108.185 83.9399 106.842 84.547 106.86 85.9441C106.878 87.3417 106.934 89.1258 108.662 89.2729C110.391 89.42 110.924 87.8934 110.943 86.3119C110.961 84.7309 109.306 83.0205 108.258 83.8296Z" fill="white"/>
<path d="M116.682 86.1465C116.682 86.1465 115.247 86.6246 115.321 87.526C115.395 88.4263 116.406 89.3276 117.546 89.309C118.686 89.2909 120.121 89.0157 120.047 87.857C119.974 86.6987 120.102 86.3848 118.815 86.1828C117.528 85.9808 116.682 86.1465 116.682 86.1465Z" fill="white"/>
<path d="M117.659 140.505C117.953 139.843 122.661 131.531 125.824 123.807C128.987 116.084 129.207 114.539 130.09 117.334C130.973 120.13 132.149 125.499 129.649 133.37C127.148 141.241 122.513 145.14 119.498 145.066C116.482 144.992 116.776 142.785 117.659 140.505Z" fill="white"/>
<path d="M88.5477 48.1718C88.5477 48.1718 86.9843 48.7235 86.8191 49.6616C86.6533 50.5992 87.7199 51.9414 88.8968 52.9163C90.0737 53.8912 91.8391 53.7068 91.821 51.4819C91.8024 49.2565 90.1841 47.3445 88.5477 48.1718Z" fill="#4B5D79"/>
<path d="M108.903 54.2031C108.903 54.2031 108.02 54.1663 107.947 55.5825C107.873 56.9983 108.737 57.4582 108.995 59.8121C109.252 62.1659 108.811 63.4713 110.135 63.7474C111.459 64.023 111.937 63.692 112.489 61.2465C113.041 58.8004 113.518 56.9433 112.856 55.3986C112.194 53.8539 110.448 53.7249 108.903 54.2031Z" fill="#4B5D79"/>
<path d="M86.4709 18.1413C86.4709 18.1413 85.2562 20.2009 86.084 21.8927C86.9117 23.585 88.8615 23.1986 88.5123 20.4583C88.1627 17.7185 86.949 17.4611 86.4709 18.1413Z" fill="white"/>
<path d="M149.308 70.5502C149.308 70.5502 148.389 72.5363 148.462 73.8971C148.536 75.2579 149.713 75.1108 150.632 72.9776C151.552 70.8444 150.816 69.7043 149.308 70.5502Z" fill="white"/>
<path d="M110.737 39.8858C110.737 39.8858 110.213 41.6512 110.406 42.8095C110.599 43.9682 111.436 44.0884 111.647 42.8654C111.859 41.6428 111.519 40.0148 111.299 39.6558C111.077 39.2973 110.737 39.8858 110.737 39.8858Z" fill="white"/>
<path d="M61.0998 120.877C61.0998 120.877 60.5113 122.44 61.3572 123.543C62.2031 124.647 62.4238 125.236 62.4424 125.989C62.4606 126.744 64.4104 126.817 70.4421 137.409C76.4743 148.002 80.2253 154.548 81.6964 155.725C83.1676 156.902 86.8454 159.035 91.1858 158.741C95.5257 158.447 98.9089 157.27 101.189 155.799C103.47 154.328 104.205 154.843 105.603 156.093C107.001 157.344 113.621 161.095 119.874 160.286C126.126 159.477 138.19 147.34 141.5 137.778C144.81 128.215 146.283 123.506 146.136 109.825C145.989 96.143 147.426 85.2188 150.074 81.3938C152.722 77.5688 154.928 73.5231 155.664 71.537C156.4 69.551 155.959 65.5789 152.207 64.9168C148.456 64.2548 146.102 67.2707 145.366 70.4337C144.63 73.5966 144.263 78.7457 144.19 82.4236C144.116 86.1014 141.541 91.6918 136.76 92.1332C131.979 92.5745 127.639 89.4115 126.315 85.8808C124.991 82.35 125.212 81.9827 120.724 81.2471C116.238 80.5111 115.354 78.0101 112.118 77.7159C108.882 77.4216 102.85 79.2606 99.54 78.2308C96.2299 77.2015 96.0823 75.8034 94.5381 75.6563C92.9934 75.5091 89.7932 75.9137 88.2852 78.8928C86.7773 81.8719 87.6232 81.026 86.8508 84.2257C86.0785 87.4255 85.03 87.4804 85.7475 89.7612C86.4649 92.0415 88.7633 93.825 89.0944 96.6942C89.4254 99.5625 86.7405 99.8567 86.4831 101.328C86.2256 102.8 85.7102 106.955 83.3196 107.691C80.929 108.426 81.0025 107.838 79.752 109.713C78.5016 111.59 78.9797 113.98 78.097 115.23C77.2143 116.481 75.2287 115.12 73.5732 116.665C71.9181 118.21 72.4698 119.239 70.7044 118.982C68.9391 118.724 67.6886 116.739 67.6886 116.739C67.6886 116.739 65.9227 119.166 63.9739 119.57C62.0246 119.975 61.3989 119.938 61.0998 120.877Z" fill="#9FEE00"/>
<path d="M86.9961 68.7048C86.9961 68.7048 90.3062 72.5298 91.2625 72.7504C92.2187 72.9711 93.175 72.3826 93.4692 70.0288C93.7634 67.6749 93.175 60.3927 93.7634 58.3331C94.3519 56.2735 95.7495 54.8754 95.0139 53.1841C94.2783 51.4923 93.1014 46.4168 90.8947 45.8283C88.6879 45.2399 85.3043 46.6375 84.5687 49.3591C83.8331 52.0807 87.1432 52.4485 86.7019 54.4346C86.2605 56.4206 85.1572 56.4942 84.9365 58.5538C84.7158 60.6134 86.1134 62.7466 86.187 64.5855C86.2605 66.4245 86.0399 67.8956 86.9961 68.7048Z" fill="#9FEE00"/>
<path d="M83.5381 34.132C83.5381 34.132 84.2736 42.1498 85.0092 42.5912C85.7448 43.0325 88.4664 43.5479 90.3789 41.6354C92.2914 39.7229 91.703 36.7801 92.2914 34.132C92.8799 31.484 94.4246 30.234 94.351 28.395C94.2775 26.5561 94.5717 18.6844 92.0708 14.1239C89.5703 9.56279 86.4804 9.41616 83.6852 11.6229C80.8905 13.8296 81.4785 17.3977 82.1405 20.8916C82.8025 24.3856 82.6186 26.8498 83.3542 27.8796C84.0898 28.9094 84.4948 30.638 84.0898 31.9984C83.6852 33.3597 83.5381 34.132 83.5381 34.132Z" fill="#9FEE00"/>
<path d="M106.197 57.4493C106.859 58.994 107.411 59.6928 107.484 62.5616C107.557 65.4303 107.006 67.3065 107.447 68.5202C107.888 69.7339 108.477 71.9769 110.242 72.308C112.008 72.639 113.185 69.145 113.847 65.2832C114.509 61.4214 115.06 58.1118 114.987 56.2361C114.913 54.3604 113.442 51.344 110.279 51.675C107.243 51.9928 104.653 53.8469 106.197 57.4493Z" fill="#9FEE00"/>
<path d="M107.667 28.467C107.815 28.0257 108.991 23.6858 107.962 21.1113C106.931 18.5367 106.711 10.4454 107.962 7.94394C109.212 5.44347 114.435 3.53048 116.494 6.54684C118.553 9.5627 117.818 19.4199 117.082 22.2887C116.347 25.1574 115.464 28.1728 115.979 30.8209C116.494 33.4689 116.715 40.3834 115.832 43.1786C114.95 45.9737 112.007 49.5045 108.623 47.5185C105.24 45.5324 107.226 38.3973 107.152 33.7632C107.078 29.129 107.667 28.467 107.667 28.467Z" fill="#9FEE00"/>
<path d="M125.248 75.4705C125.248 75.4705 123.263 75.1027 123.189 71.6455C123.115 68.1883 124.145 64.3633 124.808 59.7292C125.469 55.095 124.293 53.9917 124.66 50.5344C125.028 47.0772 126.721 42.1479 126.942 33.2474C127.163 24.3469 126.648 17.7998 129.222 15.7402C131.797 13.6806 135.769 15.7402 136.21 21.6984C136.652 27.6565 134.225 39.3527 134.151 42.6623C134.078 45.9724 134.371 46.782 133.71 49.0623C133.047 51.3426 132.754 50.4599 132.754 54.0637C132.754 57.6681 131.061 59.4334 130.768 61.7137C130.473 63.9945 130.769 63.994 130.548 68.1868C130.327 72.3801 128.635 74.3662 127.752 75.1017C126.87 75.8373 125.248 75.4705 125.248 75.4705Z" fill="#9FEE00"/>
<path d="M72.2154 126.077C72.2154 126.077 70.3764 129.828 72.2154 133.286C74.0543 136.743 81.5567 150.057 86.4115 152.705C91.2663 155.353 95.9745 155.941 99.0639 150.866C102.154 145.79 99.3582 139.685 94.3557 135.639C89.3538 131.594 83.6904 128.946 79.5711 126.592C75.4519 124.238 72.951 124.606 72.2154 126.077Z" fill="#D0FF73"/>
<path d="M125.696 108.496C125.696 108.496 118.487 124.532 113.632 134.978C108.777 145.423 108.336 153.956 118.193 152.632C128.05 151.308 137.171 137.038 138.053 127.77C138.936 118.501 136.73 115.853 136.435 110.262C136.141 104.671 134.964 101.141 132.61 100.405C130.257 99.6695 127.167 104.524 125.696 108.496Z" fill="#D0FF73"/>
<path d="M91.9311 80.9126C91.9311 80.9126 91.9311 81.098 91.8992 81.4241C91.8198 82.2229 91.5467 83.8657 90.6066 85.6939C89.283 88.2684 90.0181 89.666 91.6364 92.9025C93.2547 96.1391 92.7403 97.978 95.0941 98.4193C97.4479 98.8607 98.6984 95.7713 100.243 94.3001C101.788 92.829 101.641 85.7674 99.1398 83.4136C96.6388 81.0597 94.2109 80.1035 93.3282 79.8093C92.4455 79.515 91.9311 80.9126 91.9311 80.9126Z" fill="#D0FF73"/>
<path d="M105.502 82.5307C105.502 82.5307 103 85.3259 104.399 88.4153C105.796 91.5048 106.458 93.2702 109.033 92.9754C111.607 92.6817 111.534 88.8567 113.373 90.1072C115.211 91.3577 114.623 92.6817 117.639 92.6817C120.654 92.6817 123.376 91.0634 122.641 87.8269C121.905 84.5903 121.537 82.825 118.448 83.4134C115.359 84.0019 114.329 84.5163 112.931 82.7514C111.534 80.986 109.768 79.9562 108.003 80.4711C106.237 80.986 105.502 82.5307 105.502 82.5307Z" fill="#D0FF73"/>
<path d="M85.9729 13.8989C85.9729 13.8989 84.465 14.708 84.2076 17.1359C83.9501 19.5628 84.1708 21.4753 85.2374 23.9763C86.3039 26.4773 87.3338 29.1994 87.1136 31.1487C86.8929 33.0975 86.2402 33.9532 86.2034 34.6608C86.1666 35.3689 85.8817 40.0859 86.7281 40.7479C87.5736 41.41 89.8171 41.9249 89.5596 37.4378C89.3026 32.9508 89.6699 32.3624 89.7803 28.8316C89.8906 25.3008 89.2654 25.779 89.9274 23.8297C90.5894 21.8804 90.5894 17.6503 89.4865 15.7378C88.3832 13.8253 86.9483 13.5679 85.9729 13.8989Z" fill="#D0FF73"/>
<path d="M111.445 9.1179C111.445 9.1179 110.047 9.92704 110.121 14.2669C110.194 18.6068 111.518 21.402 111.077 24.9328C110.636 28.4636 109.311 30.4496 109.458 33.7597C109.605 37.0698 108.135 43.028 108.943 44.7198C109.753 46.4116 113.504 46.5588 113.578 42.2189C113.651 37.879 112.475 34.4217 112.621 29.8612C112.768 25.3006 114.092 18.6804 114.755 14.0463C115.417 9.41214 113.284 7.79387 111.445 9.1179Z" fill="#D0FF73"/>
<path d="M88.3851 58.1437C88.3851 58.1437 87.1714 58.2908 87.5391 60.2769C87.9069 62.2629 88.1276 62.8146 88.0908 64.8742C88.0541 66.9338 90.0401 68.8831 90.9228 68.4785C91.8055 68.074 91.7319 59.3206 91.4009 58.1069C91.0699 56.8932 88.9367 58.0334 88.3851 58.1437Z" fill="#D0FF73"/>
<path d="M131.085 18.8633C131.085 18.8633 129.723 19.1207 129.54 21.2171C129.356 23.3135 128.951 27.3965 129.65 29.0147C130.349 30.6325 132.336 30.4486 133.071 27.4328C133.806 24.4169 133.549 23.4969 133.255 21.3638C132.961 19.2306 131.085 18.8633 131.085 18.8633Z" fill="#D0FF73"/>
<path d="M129.945 32.5807C129.945 32.5807 129.357 32.36 129.063 33.868C128.769 35.3759 128.401 37.3252 129.321 38.3918C130.24 39.4584 131.785 38.7228 132.3 37.5091C132.815 36.2954 133.072 33.9783 132.484 33.1692C131.895 32.36 129.945 32.5807 129.945 32.5807Z" fill="#6FA800"/>
<path d="M129.763 41.7753C129.763 41.7753 128.402 41.9592 128.034 43.2832C127.667 44.6073 126.269 50.97 126.783 52.5515C127.299 54.133 129.064 54.8691 130.756 52.6986C132.448 50.5287 131.859 44.6808 131.675 43.0993C131.491 41.5178 129.763 41.7753 129.763 41.7753Z" fill="#D0FF73"/>
<path d="M127.706 58.3993C127.706 58.3993 126.933 58.9509 126.675 60.606C126.418 62.261 124.836 70.1685 125.278 71.1983C125.72 72.2281 127.301 73.0372 128.294 68.4767C129.287 63.9161 129.876 60.2755 129.397 59.2824C128.919 58.2894 128.368 57.9211 127.706 58.3993Z" fill="#6FA800"/>
<path d="M157.238 40.818C157.238 40.818 154.59 41.5536 153.781 44.4959C152.972 47.4382 151.353 50.2334 151.28 53.2492C151.206 56.2651 153.744 58.0677 156.319 57.2586C158.893 56.4495 159.592 52.4033 159.96 51.0425C160.327 49.6817 161.689 45.4148 161.468 43.4288C161.248 41.4427 158.159 40.4865 157.238 40.818Z" fill="#9FEE00"/>
<path d="M148.801 67.8874C148.801 67.8874 147.661 69.3217 147.183 71.933C146.705 74.5443 146.263 78.1854 147.035 78.7739C147.808 79.3624 149.5 78.921 151.375 75.1328C153.251 71.3446 153.692 69.947 152.699 68.2184C151.706 66.4898 149.536 67.115 148.801 67.8874Z" fill="#D0FF73"/>
<path d="M157.113 44.8259C157.113 44.8259 155.862 44.311 155.09 46.1132C154.318 47.9153 153.178 50.3059 153.435 51.8139C153.692 53.3218 156.966 54.7199 157.959 51.9615C158.952 49.2031 159.798 46.4074 159.283 45.6718C158.768 44.9362 157.113 44.8259 157.113 44.8259Z" fill="#D0FF73"/>
<path d="M88.5592 119.634C88.5592 119.634 88.0438 122.43 91.4274 123.901C94.8111 125.372 102.461 129.27 105.403 128.167C108.346 127.064 117.982 108.968 118.865 105.585C119.748 102.201 116.511 98.5968 110.186 101.097C103.859 103.599 103.05 107.865 98.7832 110.219C94.5168 112.573 90.5452 110.513 88.5592 119.634Z" fill="#6FA800"/>
<path d="M94.1882 84.951C94.1882 84.951 92.8274 87.6917 93.0294 89.1629C93.2319 90.634 94.6844 93.006 96.1375 92.4357C97.59 91.8659 98.4177 89.7146 98.0313 88.2253C97.6454 86.7355 96.3214 84.9142 95.5858 84.5464C94.8502 84.1786 94.2799 84.3257 94.1882 84.951Z" fill="white"/>
<path d="M108.254 83.8296C108.181 83.9399 106.838 84.547 106.856 85.9441C106.875 87.3417 106.93 89.1258 108.659 89.2729C110.388 89.42 110.92 87.8934 110.939 86.3119C110.958 84.7309 109.303 83.0205 108.254 83.8296Z" fill="white"/>
<path d="M116.678 86.1465C116.678 86.1465 115.244 86.6246 115.318 87.526C115.391 88.4263 116.402 89.3276 117.543 89.309C118.682 89.2909 120.118 89.0157 120.043 87.857C119.97 86.6987 120.099 86.3848 118.812 86.1828C117.524 85.9808 116.678 86.1465 116.678 86.1465Z" fill="white"/>
<path d="M117.655 140.505C117.95 139.843 122.657 131.531 125.82 123.807C128.983 116.084 129.204 114.539 130.086 117.334C130.969 120.13 132.146 125.499 129.645 133.37C127.144 141.241 122.51 145.14 119.494 145.066C116.478 144.992 116.772 142.785 117.655 140.505Z" fill="white"/>
<path d="M88.5441 48.1718C88.5441 48.1718 86.9807 48.7235 86.8155 49.6616C86.6497 50.5992 87.7163 51.9414 88.8932 52.9163C90.0702 53.8912 91.8355 53.7068 91.8174 51.4819C91.7988 49.2565 90.1805 47.3445 88.5441 48.1718Z" fill="#6FA800"/>
<path d="M108.899 54.2031C108.899 54.2031 108.017 54.1663 107.944 55.5825C107.87 56.9983 108.734 57.4582 108.991 59.8121C109.249 62.1659 108.807 63.4713 110.131 63.7474C111.455 64.023 111.933 63.692 112.485 61.2465C113.037 58.8004 113.515 56.9433 112.853 55.3986C112.191 53.8539 110.444 53.7249 108.899 54.2031Z" fill="#D0FF73"/>
<path d="M86.4673 18.1413C86.4673 18.1413 85.2526 20.2009 86.0804 21.8927C86.9082 23.585 88.8579 23.1986 88.5088 20.4583C88.1591 17.7185 86.9454 17.4611 86.4673 18.1413Z" fill="white"/>
<path d="M149.305 70.5502C149.305 70.5502 148.385 72.5363 148.459 73.8971C148.533 75.2579 149.709 75.1108 150.629 72.9776C151.548 70.8444 150.813 69.7043 149.305 70.5502Z" fill="white"/>
<path d="M110.733 39.8858C110.733 39.8858 110.21 41.6512 110.402 42.8095C110.596 43.9682 111.432 44.0884 111.644 42.8654C111.855 41.6428 111.515 40.0148 111.295 39.6558C111.074 39.2973 110.733 39.8858 110.733 39.8858Z" fill="white"/>
<path d="M48.1519 70.9628C54.2881 70.3474 60.0938 72.2776 64.5188 75.8963C68.9441 79.5139 71.989 84.8211 72.6044 90.9573C73.22 97.0941 71.2898 102.9 67.6711 107.325C64.0529 111.75 58.7462 114.794 52.61 115.41C46.4732 116.025 40.6676 114.095 36.2426 110.477C31.8177 106.859 28.7729 101.552 28.1574 95.4154C27.5419 89.2792 29.472 83.473 33.0903 79.0486C36.7085 74.6232 42.0151 71.5784 48.1519 70.9628ZM63.1991 77.5101C59.1876 74.2299 53.9239 72.4795 48.36 73.0376C42.796 73.5956 37.9848 76.3566 34.7046 80.3682C31.424 84.3797 29.674 89.6434 30.2321 95.2073C30.7901 100.771 33.5506 105.583 37.5627 108.863C41.5743 112.143 46.8379 113.893 52.4019 113.335C57.9658 112.777 62.777 110.017 66.0572 106.005C69.3373 101.993 71.0878 96.7294 70.5297 91.1654C69.9717 85.6015 67.2107 80.7903 63.1991 77.5101Z" fill="#9FEE00"/>
<path d="M36.9567 105.827C34.1369 102.822 32.4982 99.0434 32.1067 95.1399C31.639 90.4772 32.9504 85.6365 36.1512 81.7226C38.2948 79.101 41.0151 77.2274 43.979 76.1357L44.1227 77.5683C41.5153 78.5927 39.1266 80.2798 37.2271 82.6028C34.2696 86.2198 33.0573 90.6927 33.4895 95.0012C33.8453 98.549 35.3168 101.986 37.8448 104.74L36.9567 105.827ZM53.2743 75.2393L53.4184 76.6758C56.1271 77.1769 58.7512 78.3479 61.0345 80.2149C64.6514 83.1724 66.7279 87.316 67.16 91.624C67.5922 95.9325 66.3805 100.406 63.4225 104.023C60.465 107.64 56.3213 109.715 52.0128 110.147C48.465 110.503 44.8045 109.745 41.6029 107.813L40.7149 108.9C44.22 111.067 48.249 111.922 52.1525 111.53C56.8147 111.062 61.2991 108.816 64.4988 104.902C67.6996 100.989 69.0104 96.147 68.5428 91.4853C68.0752 86.8226 65.8291 82.3392 61.9147 79.1385C59.3328 77.0269 56.3464 75.7375 53.2743 75.2393Z" fill="#6FA800"/>
<path d="M153.837 126.572C161.818 126.572 168.328 120.063 168.328 112.081C168.328 104.1 161.818 97.5898 153.837 97.5898C145.855 97.5898 139.345 104.1 139.345 112.081C139.345 120.063 145.855 126.572 153.837 126.572Z" fill="#111827"/>
<path d="M146.235 104.394C147.942 102.704 150.21 101.58 152.735 101.324V104.585C151.105 104.823 149.643 105.579 148.523 106.682L146.235 104.394Z" fill="#9FEF00"/>
<path d="M143.025 111.933C143.056 109.513 143.884 107.285 145.257 105.499L147.573 107.815C146.77 108.993 146.29 110.407 146.261 111.933H143.025Z" fill="#9FEF00"/>
<path d="M145.792 119.306C144.349 117.701 143.38 115.66 143.105 113.405H146.375C146.616 114.768 147.22 116.006 148.085 117.013L145.792 119.306Z" fill="#9FEF00"/>
<path d="M152.732 122.839C150.499 122.612 148.468 121.707 146.846 120.332L149.145 118.032C150.162 118.835 151.39 119.382 152.732 119.578V122.839Z" fill="#9FEF00"/>
<path d="M160.419 120.659C158.686 121.991 156.539 122.809 154.204 122.887V119.648C155.646 119.58 156.981 119.108 158.102 118.342L160.419 120.659Z" fill="#9FEF00"/>
<path d="M164.569 113.406C164.272 115.842 163.165 118.027 161.525 119.685L159.236 117.397C160.289 116.327 161.026 114.947 161.298 113.406H164.569Z" fill="#9FEF00"/>
<path d="M162.087 105.092C163.656 106.942 164.613 109.327 164.648 111.934H161.411C161.379 110.22 160.777 108.646 159.788 107.391L162.087 105.092Z" fill="#9FEF00"/>
<path d="M154.204 101.275C156.837 101.363 159.231 102.392 161.06 104.037L158.768 106.33C157.529 105.267 155.944 104.597 154.204 104.513V101.275Z" fill="#9FEF00"/>
<path d="M44.1903 87.8293C42.8584 87.947 41.7251 88.482 40.814 89.4197C40.0485 90.2126 39.5865 91.1502 39.41 92.2703C39.2967 92.972 39.3413 94.092 39.5002 94.6624C39.6679 95.2601 39.8489 95.6774 40.1573 96.1536C40.9547 97.3855 42.2184 98.2284 43.6871 98.505C44.2942 98.6183 45.3951 98.5727 45.939 98.4143C46.9178 98.124 47.7245 97.5939 48.8754 96.4836L49.3785 95.9987L49.3064 95.8859C49.1976 95.7181 47.8196 94.0597 47.7789 94.0464C47.7608 94.0415 47.4204 94.3318 47.0217 94.6942C46.4328 95.2376 46.2381 95.3876 45.939 95.5323C44.5929 96.1894 42.9888 95.5146 42.5269 94.1053C42.0919 92.7822 42.8442 91.2728 44.1447 90.8609C44.5296 90.7388 45.1416 90.729 45.5545 90.8334C45.7173 90.879 46.016 90.9918 46.2244 91.0963C46.6726 91.3135 47.2532 91.8441 47.8564 92.587C48.3271 93.1623 50.0258 95.2199 50.6153 95.9266C52.1688 97.7846 53.7464 98.5732 55.9261 98.5732C57.1766 98.5732 58.1329 98.3054 59.0617 97.6983C60.267 96.9142 61.0688 95.6819 61.3454 94.1955C61.4636 93.5752 61.4229 92.4012 61.2596 91.8078C60.8834 90.4034 59.9998 89.2117 58.8081 88.5002C57.9205 87.9701 56.7235 87.7121 55.6584 87.8249C54.9925 87.898 54.5442 88.0201 53.996 88.2829C53.3845 88.5821 52.7769 89.0484 52.0433 89.7919L51.4406 90.3989L51.9158 91.0105C52.4689 91.7269 52.9309 92.2889 52.9858 92.307C53.0035 92.3154 53.2114 92.1437 53.4379 91.9304C54.7291 90.7255 55.6407 90.3901 56.6921 90.7344C57.2899 90.9291 57.7881 91.3915 58.0922 92.0211C58.5811 93.05 58.4271 94.0827 57.6749 94.8399C56.85 95.6686 55.6452 95.8457 54.503 95.3111C53.7734 94.9664 53.257 94.4544 52.1379 92.9499C50.6879 91.0065 50.3608 90.6029 49.7448 89.9821C48.1413 88.3643 46.2881 87.6484 44.1903 87.8293Z" fill="white"/>
<path d="M44.2544 130.121H175.55L168.218 150.438H36.9232L44.2544 130.121Z" fill="#111827"/>
<path d="M54.265 135.945H55.6386V145.213H52.8914V143.153H50.8313V145.213H48.0847V135.945H49.4583V134.915H54.265V135.945ZM52.8914 137.961H50.8313V141.094H52.8914V137.961Z" fill="white"/>
<path d="M60.542 138.005V142.124H63.9752V145.213H58.4819V144.184H57.1088V135.945H58.4819V134.916H63.9752V138.005H60.542Z" fill="white"/>
<path d="M68.8754 138.005V142.124H72.3085V145.213H66.8152V144.184H65.4422V135.945H66.8152V134.916H72.3085V138.005H68.8754Z" fill="white"/>
<path d="M79.9601 134.915V136.975H77.2134V139.034H78.5865V141.094H77.2134V143.153H79.9601V145.213H73.7798V134.915H79.9601Z" fill="white"/>
<path d="M86.234 138.005V136.975H84.86V139.035H87.637V140.123H88.9807V144.184H88.2937V145.213H82.1138V144.184H81.4273V142.124H83.4869V143.153H84.86V141.094H82.1138V140.064H81.4273V135.945H82.1138V134.916H88.2937V135.945H88.9807V138.005H86.234Z" fill="white"/>
<path d="M95.2585 138.005V136.975H93.8845V139.035H96.6615V140.123H98.0052V144.184H97.3181V145.213H91.1383V144.184H90.4518V142.124H92.5114V143.153H93.8845V141.094H91.1383V140.064H90.4518V135.945H91.1383V134.916H97.3181V135.945H98.0052V138.005H95.2585Z" fill="white"/>
<path d="M110.826 135.945H112.199V139.035H109.727V138.005H109.04H107.667V139.035V141.094V142.124H109.04H109.727V141.094H109.04V140.064H112.199V144.184H110.826V145.213H106.019V144.184H104.646V135.945H106.019V134.915H110.826V135.945Z" fill="white"/>
<path d="M119.847 140.225V142.124H121.22V145.213H117.787V142.227V142.124H116.413V142.227V145.213H113.666V134.915H119.847V135.945H121.22V140.225H119.847ZM118.473 137.49H116.413V139.549H118.473V137.49Z" fill="white"/>
<path d="M128.871 135.945H130.244V145.213H127.497V143.153H125.438V145.213H122.691V135.945H124.064V134.915H128.871V135.945ZM127.497 137.961H125.438V141.094H127.497V137.961Z" fill="white"/>
<path d="M138.58 134.915V145.213H135.833V143.153H135.147V141.094H134.46V145.213H131.713V134.915H134.46V136.975H135.147V139.034H135.833V134.915H138.58Z" fill="white"/>
<path d="M145.544 134.915V138.004H144.171V145.213H141.424V138.004H140.051V134.915H145.544Z" fill="white"/>
<path d="M153.193 134.915V136.975H150.446V139.034H151.819V141.094H150.446V143.153H153.193V145.213H147.013V134.915H153.193Z" fill="white"/>
<path d="M160.843 135.945H162.216V144.183H160.843V145.213H154.662V134.915H160.843V135.945ZM159.469 138.004H157.41V142.123H159.469V138.004Z" fill="white"/>
<path d="M43.1843 148.875H88.6674L87.5184 151.695H42.0353L43.1843 148.875Z" fill="#E84344"/>
<path d="M143.224 128.73H167.022L165.961 131.55H142.162L143.224 128.73Z" fill="#E84344"/>
</svg>
