<svg width="200" height="167" viewBox="0 0 200 167" fill="none" xmlns="http://www.w3.org/2000/svg">
<path d="M74.4474 90.9346C74.0269 90.9346 73.6314 91.0446 73.2889 91.2361L70.5009 89.3286L72.7859 85.9896C72.8494 85.9946 72.9134 85.9971 72.9784 85.9971C74.2904 85.9971 75.3534 84.9336 75.3534 83.6221C75.3534 82.3101 74.2904 81.2471 72.9784 81.2471C71.6669 81.2471 70.6034 82.3101 70.6034 83.6221C70.6034 84.0356 70.7094 84.4246 70.8954 84.7636L63.0944 96.1656L64.9544 97.4351L69.2294 91.1871L72.0789 93.1371C72.0749 93.1941 72.0724 93.2516 72.0724 93.3096C72.0724 94.6216 73.1354 95.6846 74.4474 95.6846C75.7589 95.6846 76.8224 94.6216 76.8224 93.3096C76.8224 91.9981 75.7589 90.9346 74.4474 90.9346Z" fill="#111927"/>
<path d="M125.766 72.3077L122.482 74.7872L125.729 79.185L121.441 82.4262C121.367 82.3858 121.299 82.3395 121.22 82.3066C120.012 81.804 118.617 82.3791 118.115 83.5867C117.612 84.7942 118.187 86.1898 119.395 86.6924C120.602 87.195 121.997 86.6195 122.5 85.4119C122.67 85.0043 122.707 84.5769 122.649 84.1686L128.678 79.611L125.431 75.2143L133.38 69.2127L132.105 67.5216L127.456 71.0316L123.964 66.4061L123.124 67.0105C123.081 67.042 107.695 78.1332 107.512 78.169L107.924 80.2478C108.527 80.1295 120.256 71.6916 123.522 69.3358L125.766 72.3077Z" fill="#111927"/>
<path d="M66.4168 96.6997C66.4168 95.3917 65.3498 94.3247 64.0418 94.3247C62.7338 94.3247 61.6668 95.3917 61.6668 96.6997C61.6668 98.0077 62.7338 99.0747 64.0418 99.0747C65.3498 99.0747 66.4168 98.0077 66.4168 96.6997Z" fill="#111927"/>
<path d="M135.61 69.1122C136.112 67.9046 135.537 66.5095 134.33 66.0069C133.122 65.5042 131.727 66.0793 131.224 67.2869C130.722 68.4945 131.297 69.8896 132.504 70.3922C133.712 70.8948 135.107 70.3197 135.61 69.1122Z" fill="#111927"/>
<path d="M110.735 80.0497C111.237 78.8421 110.662 77.447 109.455 76.9444C108.247 76.4417 106.852 77.0168 106.349 78.2244C105.847 79.432 106.422 80.8271 107.629 81.3297C108.837 81.8323 110.232 81.2572 110.735 80.0497Z" fill="#111927"/>
<path d="M121.86 132.925C122.362 131.717 121.787 130.322 120.58 129.819C119.372 129.317 117.977 129.892 117.474 131.099C116.972 132.307 117.547 133.702 118.754 134.205C119.962 134.707 121.357 134.132 121.86 132.925Z" fill="#111927"/>
<path d="M134.136 116.263C132.828 116.263 131.761 117.33 131.761 118.638C131.761 119.027 131.865 119.389 132.032 119.714L128.369 124.786L124.844 122.645L124.28 123.475C124.266 123.495 119.482 130.571 118.875 131.234L120.437 132.662C121.043 132 124.174 127.41 125.47 125.501L128.943 127.61L133.736 120.972C133.867 120.995 133.999 121.013 134.136 121.013C135.444 121.013 136.511 119.946 136.511 118.638C136.511 117.33 135.444 116.263 134.136 116.263Z" fill="#111927"/>
<path d="M54.5356 83.3821L53.0066 84.243L49.6534 78.2861L48.9093 78.7045L48.0484 77.175L50.3215 75.8957L54.5356 83.3821Z" fill="#9FEF00"/>
<path d="M58.135 79.3348L58.8369 78.9394L56.3479 74.518L55.6455 74.9134L58.135 79.3348ZM57.4693 81.7312L53.2557 74.2448L57.0165 72.1277L61.2307 79.6141L57.4693 81.7312Z" fill="#9FEF00"/>
<path d="M136.702 87.0886L135.012 86.6157L136.853 80.0328L136.031 79.8029L136.504 78.1124L139.016 78.8153L136.702 87.0886Z" fill="#9FEF00"/>
<path d="M139.219 96.3599L139.782 96.9361L143.409 93.3874L142.845 92.8117L139.219 96.3599ZM136.732 96.3378L142.872 90.3299L145.891 93.4145L139.75 99.4224L136.732 96.3378Z" fill="#9FEF00"/>
<path d="M144.166 101.18L144.73 101.756L148.356 98.2072L147.793 97.6316L144.166 101.18ZM141.679 101.158L147.82 95.1497L150.838 98.2343L144.697 104.243L141.679 101.158Z" fill="#9FEF00"/>
<path d="M64.8779 42.5033L65.5715 42.9139L68.1562 38.5478L67.4627 38.1372L64.8779 42.5033ZM62.4705 43.1256L66.8468 35.7329L70.5606 37.9315L66.1843 45.3242L62.4705 43.1256Z" fill="#9FEF00"/>
<path d="M143.653 117.72L142.124 118.58L138.771 112.623L138.027 113.042L137.166 111.513L139.439 110.233L143.653 117.72Z" fill="white"/>
<path d="M52.164 62.9711L52.9442 62.7711L51.6847 57.8561L50.904 58.0561L52.164 62.9711ZM50.9011 65.1135L48.7681 56.7917L52.9491 55.7202L55.082 64.042L50.9011 65.1135Z" fill="white"/>
<path d="M154.009 89.3549L152.815 90.6405L147.808 85.9866L147.226 86.6118L145.941 85.4172L147.717 83.5064L154.009 89.3549Z" fill="white"/>
<path d="M77.6667 123.122L77.6708 124.876L70.8349 124.892L70.8364 125.745L69.0813 125.749L69.0757 123.141L77.6667 123.122Z" fill="#111927"/>
<path d="M75.8934 118.003L75.8914 117.197L70.8176 117.209L70.8193 118.015L75.8934 118.003ZM77.659 119.754L69.0683 119.773L69.0586 115.457L77.6496 115.438L77.659 119.754Z" fill="#111927"/>
<path d="M121.047 53.2409L119.808 54.4844L114.964 49.6618L114.362 50.2667L113.118 49.0281L114.959 47.1798L121.047 53.2409Z" fill="#111927"/>
<path d="M130.365 55.5745L131.144 55.3642L129.819 50.4662L129.041 50.6768L130.365 55.5745ZM129.131 57.7336L126.889 49.4402L131.055 48.314L133.297 56.607L129.131 57.7336Z" fill="#111927"/>
<path d="M136.988 53.6138L137.766 53.4032L136.441 48.5052L135.664 48.7154L136.988 53.6138ZM135.753 55.7722L133.511 47.4792L137.677 46.353L139.92 54.6463L135.753 55.7722Z" fill="#111927"/>
<path d="M47.0518 94.1229L47.749 93.7184L45.2024 89.3299L44.5053 89.7344L47.0518 94.1229ZM46.4185 96.5275L42.1066 89.097L45.8394 86.9309L50.1514 94.3614L46.4185 96.5275Z" fill="#111927"/>
<path d="M151.168 62.1412L151.172 63.8959L144.337 63.9111L144.339 64.7651L142.583 64.7689L142.577 62.1603L151.168 62.1412Z" fill="white"/>
<path d="M58.6982 115.217L58.9049 114.439L54.0011 113.136L53.7941 113.915L58.6982 115.217ZM59.9503 117.366L51.6474 115.161L52.7553 110.989L61.0583 113.194L59.9503 117.366Z" fill="white"/>
<path d="M131.48 39.2472L132.018 40.9176L125.511 43.0125L125.773 43.8252L124.102 44.3632L123.303 41.88L131.48 39.2472Z" fill="white"/>
<path d="M117.311 125.562L118.693 126.643L114.477 132.025L115.149 132.552L114.067 133.933L112.014 132.325L117.311 125.562Z" fill="#111927"/>
<path d="M112.192 123.79L111.558 123.294L108.429 127.288L109.064 127.785L112.192 123.79ZM114.661 123.486L109.363 130.249L105.965 127.588L111.263 120.824L114.661 123.486Z" fill="#111927"/>
<path d="M89.2195 48.2571L89.4309 49.9992L82.6455 50.8239L82.7484 51.6713L81.0058 51.8829L80.6915 49.2934L89.2195 48.2571Z" fill="#111927"/>
<path d="M96.8163 42.3769L97.1322 41.6353L92.464 39.6473L92.1485 40.3887L96.8163 42.3769ZM97.7497 44.6821L89.8459 41.3152L91.537 37.3449L99.4406 40.7113L97.7497 44.6821Z" fill="#111927"/>
<path d="M99.3698 35.9602L99.6853 35.2187L95.0171 33.2308L94.7015 33.9718L99.3698 35.9602ZM100.303 38.2651L92.399 34.8987L94.0901 30.9283L101.994 34.2946L100.303 38.2651Z" fill="#111927"/>
<path d="M75.5911 131.689L75.7042 130.891L70.6807 130.179L70.5675 130.977L75.5911 131.689ZM77.0891 133.674L68.5832 132.468L69.1893 128.195L77.6952 129.401L77.0891 133.674Z" fill="#111927"/>
<path d="M114.841 30.0899L116.222 31.1718L112.007 36.5534L112.679 37.0799L111.597 38.4616L109.543 36.8532L114.841 30.0899Z" fill="white"/>
<path d="M99.3698 135.581L98.8858 134.937L94.8298 137.985L95.3139 138.629L99.3698 135.581ZM101.833 135.925L94.9654 141.087L92.3723 137.637L99.2396 132.475L101.833 135.925Z" fill="white"/>
<path d="M84.6738 31.4053L86.3192 32.0155L83.9417 38.4246L84.7421 38.7217L84.1319 40.3671L81.6861 39.4599L84.6738 31.4053Z" fill="white"/>
<path d="M3.67166 85.3662C-0.921853 93.8738 -1.02535 100.825 2.35916 104.395C5.74417 107.966 24.1897 119.36 27.6377 121.129C31.0858 122.899 54.6963 143.402 57.8908 145.022C58.2693 145.214 58.7898 145.436 59.4163 145.682C64.0814 147.509 74.6329 150.585 76.2624 151.395C78.1109 152.313 87.1964 159.203 90.1695 159.038C93.1425 158.873 115.814 157.368 119.281 155.787C122.747 154.205 121.793 147.314 119.139 145.132C116.485 142.951 107.384 142.394 107.384 142.394C106.651 142.422 106.136 142.349 106.366 142.071C106.595 141.792 106.934 141.651 109.611 140.563C112.288 139.475 117.084 137.553 117.639 137.236C118.193 136.92 119.137 136.254 119.779 134.585C120.422 132.915 121.246 129.356 116.782 125.478C112.318 121.6 104.185 125.217 103.126 124.908C102.817 124.818 102.66 124.686 102.588 124.545C103.352 123.739 104.266 122.571 105.498 120.791C106.437 119.924 107.237 119.214 107.88 118.675C108.087 118.501 108.285 118.339 108.468 118.196C109.097 117.702 109.528 117.433 109.908 117.195C110.007 117.132 110.099 117.074 110.185 117.02C112.182 115.743 113.429 113.544 113.519 111.139C113.628 108.243 111.971 105.659 109.296 104.555C108.06 104.044 106.726 103.785 105.331 103.785C101.301 103.785 98.2455 105.895 97.9105 106.135C97.507 106.425 96.991 106.786 96.404 107.197C96.1895 107.347 95.981 107.494 95.7735 107.64C96.3095 106.122 96.3465 104.442 95.8165 102.861C95.112 100.759 93.486 99.4043 90.984 98.8343C90.9485 98.8263 90.913 98.8188 90.877 98.8103C90.1959 98.5503 89.472 98.4183 88.7224 98.4183C86.8639 98.4183 84.9374 99.2373 82.8329 100.922C81.8909 101.676 80.5574 102.908 79.8984 103.898C79.7469 104.125 79.2854 104.666 78.8919 105.125C78.3219 105.288 77.7424 105.315 77.2454 105.179C75.8764 104.806 75.4259 103.32 73.4984 101.711C71.5709 100.102 68.7694 99.6858 66.0294 97.4278C63.2894 95.1698 59.3458 88.8928 54.2548 86.9692C49.1638 85.0457 47.4943 87.3447 44.9103 86.4262C42.3263 85.5077 25.1757 73.8772 21.4017 73.5967C19.0167 73.4192 14.4002 74.7697 10.1657 77.9342C9.37718 74.7952 8.96768 70.8197 10.0902 66.7532C12.2397 58.9662 17.3522 56.8301 23.2982 54.3461C24.0892 54.0156 24.8922 53.6801 25.6077 53.3706C29.9657 51.4846 32.7933 49.0821 34.5518 46.4166C36.3723 43.6571 37.0028 40.6956 36.9648 37.7561C36.8868 31.7181 35.0203 30.0221 35.0148 30.0171C33.8473 28.9306 32.0198 28.9971 30.9338 30.1646C28.8237 31.6386 32.9818 38.3141 29.7312 43.2406C28.5652 45.0081 26.5532 46.6611 23.3192 48.0606C22.4982 48.4156 21.7812 48.7151 21.0762 49.0096C13.7362 52.0756 7.42567 54.7131 4.52317 65.2277C2.68016 71.9032 4.07466 78.3182 5.54167 82.4802C4.86016 83.3702 4.23066 84.3312 3.67166 85.3662Z" fill="#111927"/>
<path d="M79.7364 115.824C80.4254 118.558 80.7714 118.943 81.0634 119.061C81.1614 119.1 81.5414 119.079 82.0004 119.033C82.6554 118.937 83.3954 118.826 84.0274 118.662C84.5719 118.52 85.0359 118.339 85.2859 118.091C85.8149 117.566 86.5314 114.923 86.9994 112.993C87.5974 111.786 88.2579 110.497 88.8439 109.455C89.0049 109.168 89.1604 108.9 89.3075 108.658C89.9655 107.572 90.449 106.979 90.766 106.554C91.2295 105.932 91.3 105.121 91.0755 104.451C90.828 103.713 89.891 103.815 89.1195 103.493C87.7074 102.905 84.4839 106.034 84.0609 106.67C83.2809 107.842 81.4329 109.635 80.0609 111.733C79.9609 111.887 79.8604 112.04 79.7609 112.194C79.5329 112.852 79.2959 114.076 79.7364 115.824Z" fill="#7E8BA3"/>
<path d="M22.3982 94.5837C21.3272 96.5907 20.1117 98.2007 18.8807 99.4947L27.1823 104.299C27.4768 104.469 27.5773 104.846 27.4073 105.14C27.3858 105.178 27.3608 105.212 27.3333 105.243L25.2488 107.573L36.3308 114.34C36.6203 114.517 36.7118 114.896 36.5348 115.186C36.3578 115.475 35.9793 115.566 35.6898 115.389L24.0178 108.263C23.9708 108.239 23.9268 108.209 23.8858 108.172C23.6322 107.945 23.6102 107.555 23.8373 107.301L25.9093 104.986L17.9702 100.391C14.3112 103.77 10.7447 104.512 10.4667 104.583C10.0637 104.687 27.6363 114.375 33.4103 118.303C39.1843 122.231 59.0994 139.509 60.6969 140.319C62.2944 141.129 78.7344 146.59 80.2049 147.325C81.6754 148.061 89.3345 153.559 91.1625 154.111C92.9905 154.663 113.545 152.541 113.545 152.541C113.545 152.541 114.212 152.46 114.734 151.899C114.731 151.892 113.972 149.793 109.511 149.51C105.043 149.227 93.7 149.49 92.788 149.254C92.174 149.096 87.204 144.9 84.0235 142.176C83.6755 142.263 83.3984 142.319 83.2759 142.314C82.8254 142.298 66.3719 137.349 64.1794 136.123C61.9869 134.897 53.4258 128.59 54.0953 128.144C54.7649 127.699 63.4374 133.059 65.0234 133.666C66.6094 134.272 82.2189 138.757 83.423 139.098C84.6265 139.44 88.0705 137.452 89.8785 136.902C91.6245 136.371 96.533 137.226 98.8605 136.402C99.167 136.11 99.345 135.806 99.197 135.547C98.7445 134.755 89.1105 134.881 87.9725 134.985C86.8345 135.089 84.875 135.852 83.4289 135.565C81.9829 135.277 72.1094 131.822 69.0639 129.213C66.0184 126.605 60.2919 111.031 55.3864 106.564C50.4808 102.098 41.6298 101.609 41.6298 101.609C41.6298 101.609 26.0213 93.4877 25.6888 93.3837C25.3563 93.2797 24.3478 94.5117 22.3982 94.5837Z" fill="#A4B1CD"/>
<path d="M79.2039 124.933C73.8239 123.144 67.7559 114.05 65.0184 109.314C65.0184 109.314 65.9319 117.827 73.2084 123.796C80.4849 129.765 89.9575 128.912 90.849 128.781C91.7405 128.65 92.7855 128.347 95.356 129.021C97.9265 129.695 101.888 133.17 101.888 133.17C101.904 132.596 101.745 131.95 101.369 131.219C100.041 128.637 98.0255 127.646 95.722 126.63C93.4185 125.614 92.3755 125.222 91.1625 125.453C89.9495 125.684 86.571 127.384 79.2039 124.933Z" fill="#9FEF00"/>
<path d="M60.1263 103.033C62.8868 104.187 66.5928 104.717 70.3033 108.269C74.0138 111.822 73.6369 116.122 73.6369 116.122C74.4994 117.234 75.2214 118.125 75.4484 118.359C76.0119 118.941 76.9144 112.394 73.0588 107.706C69.2033 103.018 65.1993 102.995 62.7193 101.009C60.2393 99.0223 59.0628 94.7573 53.7093 92.5218C48.3558 90.2863 43.9797 91.6733 43.0567 91.2343C42.1337 90.7953 25.0912 80.2803 25.0912 80.2803C25.0912 80.2803 25.8402 82.0443 25.4577 85.3913C29.6707 87.7963 43.1977 95.5143 43.6217 95.6978C44.1242 95.9148 49.4273 95.7838 54.1608 98.6258C58.8938 101.468 57.3658 101.879 60.1263 103.033Z" fill="#9FEF00"/>
<path d="M98.2979 142.341C98.2979 142.341 104.399 138.44 108.471 136.271C107.966 136.342 107.407 136.433 106.79 136.548C105.082 136.865 103.656 137.248 102.52 137.614C100.275 139.46 97.7569 139.926 96.0059 140.058C93.9309 140.214 93.6464 140.229 92.7999 140.44C91.9534 140.65 92.0644 140.44 92.6639 140.938C93.2634 141.435 96.3269 142.899 96.6164 142.965C96.9059 143.03 98.2979 142.341 98.2979 142.341ZM105.223 132.678L105.219 132.735L105.223 132.678ZM105.217 132.763C105.206 132.893 105.192 133.026 105.174 133.159C105.192 133.026 105.206 132.893 105.217 132.763Z" fill="#A4B1CD"/>
<path d="M110.307 131.45C112.629 131.173 114.14 131.528 115.058 131.937C115.331 130.849 115.036 129.692 113.988 129.101C111.359 127.617 105.066 129.241 105.011 129.344C104.915 129.524 105.349 130.954 105.224 132.678C106.441 132.214 108.163 131.705 110.307 131.45Z" fill="#9FEF00"/>
<path d="M115.058 131.938C114.139 131.529 112.629 131.174 110.306 131.451C108.163 131.706 106.44 132.215 105.223 132.679C105.135 133.899 104.766 135.267 103.73 136.442C103.34 136.885 102.935 137.274 102.52 137.615C103.656 137.249 105.082 136.866 106.79 136.548C107.407 136.434 107.966 136.343 108.471 136.271C108.889 136.049 109.286 135.844 109.652 135.664C111.292 134.858 112.337 134.516 113.051 134.246C114.096 133.852 114.81 132.924 115.058 131.938Z" fill="#7E8BA3"/>
<path d="M113.545 152.542C113.545 152.542 114.212 152.461 114.734 151.899C114.734 151.899 113.981 149.794 109.512 149.511C105.043 149.228 93.7 149.49 92.788 149.255C92.174 149.096 87.2044 144.9 84.0239 142.176C83.6754 142.263 83.3984 142.318 83.2759 142.314C82.8254 142.298 66.3719 137.349 64.1794 136.123C63.3574 135.663 61.6404 134.49 59.8499 133.178C59.8499 133.178 61.3469 137.029 66.3924 139.609C71.4379 142.188 80.2299 144.559 82.3344 145.668C84.4384 146.777 90.973 151.153 92.0635 151.664C93.154 152.176 107.102 153.169 107.102 153.169C110.736 152.832 113.545 152.542 113.545 152.542Z" fill="#7E8BA3"/>
<path d="M33.4103 118.305C39.1843 122.233 59.0994 139.51 60.6969 140.32C61.2729 140.612 63.7784 141.509 66.8164 142.571C66.8164 142.571 61.5944 139.304 60.5674 138.462C59.5404 137.62 40.7913 120.769 36.1168 117.515C32.3278 114.878 18.2467 106.692 13.0472 103.686C11.6117 104.336 10.6087 104.548 10.4667 104.584C10.0637 104.688 27.6363 114.377 33.4103 118.305Z" fill="white"/>
<path d="M29.4263 108.306C28.8243 108.34 28.3103 107.888 28.2773 107.298C28.2443 106.707 28.7058 106.202 29.3073 106.168C29.9088 106.135 30.4233 106.586 30.4563 107.177C30.4893 107.767 30.0278 108.273 29.4263 108.306Z" fill="#111927"/>
<path d="M5.60266 95.5474C6.88317 99.7279 12.5097 96.0899 14.3117 94.4729C15.5047 93.4024 17.3137 93.7124 18.2557 93.0459C19.1977 92.3794 22.4012 86.3814 20.6597 82.0029C18.9182 77.6244 14.2242 80.6279 14.2242 80.6279C20.4057 81.4209 13.2627 99.0164 5.60266 95.5474Z" fill="#7E8BA3"/>
<path d="M10.9057 89.6645C10.9057 89.6645 11.9112 89.882 13.3037 87.8155C14.6962 85.749 14.4447 83.4255 13.4082 82.8795C12.3717 82.3335 10.4907 83.895 10.4907 83.895C13.9212 84.2635 12.3017 87.9985 10.9057 89.6645Z" fill="#7E8BA3"/>
<path d="M20.5507 88.6453C19.8512 90.9043 18.9212 92.2563 18.1602 93.3048C17.1177 94.7408 16.6452 95.0198 15.6892 95.9813C13.7517 97.9304 6.88317 99.7284 5.60266 95.5478C9.87668 97.4839 13.9907 92.8603 15.7177 88.2573C16.1527 88.9178 16.9462 89.7348 18.1562 89.5888C19.0307 89.4833 19.8772 89.0723 20.5507 88.6453Z" fill="#A4B1CD"/>
<path d="M95.0465 146.073C94.3155 145.786 88.5145 141.758 88.0915 141.495C87.6685 141.233 87.2604 141.235 86.7579 141.386C86.3924 141.495 84.9534 141.945 84.0234 142.176C87.2039 144.9 92.174 149.097 92.788 149.255C93.7 149.491 105.043 149.228 109.511 149.511C113.98 149.794 114.734 151.899 114.734 151.899C115.085 151.521 115.371 150.926 115.344 149.991C115.276 147.666 113.337 146.957 111.574 146.85C109.812 146.744 95.7775 146.359 95.0465 146.073Z" fill="#9FEF00"/>
<path d="M40.2763 107.119C40.2763 107.119 45.1273 106.196 50.0083 109.738C54.8893 113.28 62.6003 126.578 60.9713 126.669C59.3423 126.759 40.8433 113.406 38.7378 110.8C36.6323 108.193 38.8763 107.415 40.2763 107.119Z" fill="#DAE1F3"/>
<path d="M89.7305 120.957C90.296 121.211 92.562 121.187 93.3145 121.125C94.067 121.063 97.1915 122.156 98.2875 121.666C98.968 121.362 100.572 119.143 101.692 117.503C102.678 116.585 103.751 115.612 104.667 114.844C104.919 114.633 105.16 114.437 105.383 114.262C106.382 113.479 107.043 113.095 107.49 112.809C108.143 112.391 108.496 111.658 108.522 110.952C108.552 110.173 108.16 109.496 107.387 109.177C104.59 108.022 101.445 109.754 100.825 110.199C97.919 112.284 89.411 117.946 89.312 119.794C89.2145 120.202 89.357 120.789 89.7305 120.957Z" fill="#7E8BA3"/>
<path d="M89.7309 120.957C90.0019 121.079 90.6644 121.136 91.3629 121.157C91.4314 121.09 91.4974 121.022 91.5724 120.96C96.664 116.799 102.203 112.609 108.504 110.605C108.421 109.976 108.042 109.448 107.387 109.177C104.59 108.022 101.445 109.754 100.825 110.199C97.9195 112.284 89.4114 117.946 89.3124 119.794C89.2149 120.202 89.3574 120.789 89.7309 120.957Z" fill="#9FEF00"/>
<path d="M79.7364 115.823C80.4254 118.558 80.7714 118.943 81.0634 119.06C81.1534 119.096 81.4844 119.08 81.8924 119.043C82.1419 114.683 84.2619 110.825 87.0444 107.505C88.0514 106.304 89.2019 105.024 90.4759 103.881C90.0814 103.728 89.5734 103.682 89.1194 103.493C87.7074 102.905 84.4834 106.034 84.0604 106.67C83.2804 107.842 81.4324 109.635 80.0604 111.733C79.9604 111.886 79.8604 112.04 79.7609 112.194C79.5329 112.852 79.2959 114.075 79.7364 115.823Z" fill="#9FEF00"/>
<path d="M196.328 81.6747C200.922 73.1671 201.025 66.2161 197.641 62.6456C194.256 59.0751 175.81 47.681 172.362 45.9115C168.914 44.142 145.304 23.639 142.109 22.019C141.731 21.827 141.21 21.6045 140.584 21.359C135.919 19.532 125.367 16.4559 123.738 15.6459C121.889 14.7274 112.804 7.83791 109.831 8.00292C106.858 8.16792 84.186 9.67242 80.7195 11.2539C77.2529 12.8354 78.2074 19.727 80.8615 21.9085C83.5155 24.09 92.616 24.6465 92.616 24.6465C93.3495 24.6185 93.864 24.6915 93.6345 24.97C93.405 25.2485 93.066 25.39 90.389 26.478C87.712 27.566 82.916 29.488 82.3615 29.8045C81.807 30.121 80.8635 30.7865 80.221 32.456C79.5785 34.1255 78.7544 37.685 83.2185 41.563C87.6825 45.441 95.8145 41.824 96.8735 42.133C97.1825 42.223 97.34 42.355 97.4115 42.496C96.648 43.3015 95.734 44.4695 94.502 46.25C93.563 47.1165 92.763 47.827 92.1205 48.3661C91.913 48.5401 91.7155 48.7016 91.5325 48.8451C90.9035 49.3386 90.4725 49.6081 90.0925 49.8461C89.993 49.9086 89.901 49.9666 89.8155 50.0211C87.8185 51.2981 86.5715 53.4971 86.481 55.9021C86.372 58.7976 88.0295 61.3816 90.704 62.4861C91.94 62.9966 93.274 63.2556 94.669 63.2556C98.699 63.2556 101.755 61.1461 102.09 60.9056C102.493 60.6161 103.009 60.2551 103.596 59.8441C103.811 59.6936 104.019 59.5471 104.227 59.4011C103.691 60.9186 103.654 62.5991 104.184 64.1801C104.888 66.2821 106.514 67.6366 109.016 68.2066C109.052 68.2146 109.087 68.2221 109.123 68.2306C109.804 68.4906 110.528 68.6226 111.278 68.6226C113.136 68.6226 115.063 67.8036 117.167 66.1191C118.109 65.3651 119.443 64.1326 120.102 63.1431C120.253 62.9156 120.715 62.3746 121.108 61.9161C121.678 61.7526 122.258 61.7261 122.755 61.8616C124.124 62.2351 124.574 63.7211 126.502 65.3296C128.429 66.9386 131.231 67.3551 133.971 69.6131C136.711 71.8711 140.654 78.1482 145.745 80.0717C150.836 81.9952 152.506 79.6962 155.09 80.6147C157.674 81.5332 174.824 93.1637 178.598 93.4442C180.983 93.6217 185.6 92.2712 189.834 89.1067C190.623 92.2457 191.032 96.2212 189.91 100.288C187.76 108.075 182.648 110.211 176.702 112.695C175.911 113.025 175.108 113.361 174.392 113.67C170.034 115.556 167.207 117.959 165.448 120.624C163.628 123.384 162.997 126.345 163.035 129.285C163.113 135.323 164.98 137.019 164.985 137.024C166.153 138.11 167.98 138.044 169.066 136.876C171.176 135.402 167.018 128.727 170.269 123.8C171.435 122.033 173.447 120.38 176.681 118.98C177.502 118.625 178.219 118.326 178.924 118.031C186.264 114.965 192.574 112.328 195.477 101.813C197.32 95.1377 195.925 88.7227 194.458 84.5607C195.14 83.6707 195.769 82.7097 196.328 81.6747Z" fill="#111927"/>
<path d="M120.264 51.2186C119.575 48.4841 119.229 48.0991 118.937 47.9816C118.839 47.9421 118.459 47.9636 118 48.0091C117.345 48.1051 116.605 48.2161 115.973 48.3806C115.428 48.5226 114.964 48.7036 114.714 48.9516C114.185 49.4761 113.469 52.1191 113.001 54.0496C112.403 55.2566 111.742 56.5451 111.156 57.5876C110.995 57.8741 110.84 58.1421 110.693 58.3846C110.035 59.4706 109.551 60.0632 109.234 60.4882C108.771 61.1102 108.7 61.9212 108.925 62.5912C109.172 63.3297 110.109 63.2277 110.881 63.5492C112.293 64.1372 115.516 61.0082 115.939 60.3727C116.719 59.2006 118.567 57.4071 119.939 55.3091C120.039 55.1556 120.14 55.0021 120.239 54.8481C120.467 54.1901 120.704 52.9666 120.264 51.2186Z" fill="#7E8BA3"/>
<path d="M177.602 72.4577C178.673 70.4507 179.888 68.8407 181.119 67.5467L172.818 62.7427C172.523 62.5727 172.423 62.1957 172.593 61.9012C172.614 61.8637 172.639 61.8292 172.667 61.7982L174.751 59.4682L163.669 52.7012C163.38 52.5242 163.288 52.1452 163.465 51.8557C163.642 51.5662 164.021 51.4751 164.31 51.6521L175.982 58.7787C176.029 58.8027 176.073 58.8327 176.114 58.8692C176.368 59.0962 176.39 59.4867 176.163 59.7402L174.091 62.0557L182.03 66.6502C185.689 63.2712 189.255 62.5297 189.533 62.4582C189.936 62.3542 172.364 52.6662 166.59 48.7381C160.816 44.8101 140.901 27.5321 139.303 26.7221C137.706 25.9121 121.266 20.4515 119.795 19.716C118.325 18.9805 110.666 13.482 108.838 12.93C107.01 12.378 86.4555 14.5 86.4555 14.5C86.4555 14.5 85.7885 14.581 85.2665 15.1425C85.269 15.1495 86.028 17.2485 90.489 17.531C94.9575 17.814 106.3 17.5515 107.212 17.787C107.826 17.9455 112.796 22.1416 115.977 24.8656C116.325 24.7786 116.602 24.7226 116.724 24.7276C117.175 24.7436 133.628 29.6921 135.821 30.9186C138.013 32.1446 146.574 38.4516 145.905 38.8971C145.235 39.3426 136.563 33.9821 134.977 33.3756C133.391 32.7691 117.781 28.2846 116.577 27.9431C115.374 27.6016 111.93 29.5896 110.122 30.1396C108.376 30.6706 103.467 29.8156 101.14 30.6396C100.833 30.9311 100.655 31.2351 100.803 31.4946C101.256 32.2866 110.89 32.1601 112.028 32.0561C113.166 31.9521 115.125 31.1891 116.571 31.4766C118.017 31.7641 127.891 35.2191 130.936 37.8281C133.982 40.4366 139.708 56.0107 144.614 60.4772C149.519 64.9437 158.37 65.4327 158.37 65.4327C158.37 65.4327 173.979 73.5537 174.311 73.6577C174.644 73.7617 175.652 72.5297 177.602 72.4577Z" fill="#A4B1CD"/>
<path d="M120.796 42.1086C126.176 43.8981 132.244 52.9911 134.982 57.7272C134.982 57.7272 134.068 49.2146 126.792 43.2456C119.515 37.2766 110.043 38.1296 109.151 38.2611C108.26 38.3921 107.215 38.6951 104.644 38.0211C102.074 37.3466 98.1125 33.8721 98.1125 33.8721C98.096 34.4456 98.255 35.0921 98.631 35.8231C99.959 38.4046 101.975 39.3956 104.278 40.4116C106.582 41.4276 107.625 41.8196 108.838 41.5886C110.051 41.3576 113.429 39.6581 120.796 42.1086Z" fill="#9FEF00"/>
<path d="M139.874 64.0083C137.113 62.8543 133.407 62.3248 129.697 58.7722C125.986 55.2197 126.363 50.9197 126.363 50.9197C125.501 49.8077 124.779 48.9167 124.552 48.6822C123.988 48.1007 123.086 54.6472 126.941 59.3352C130.797 64.0233 134.801 64.0463 137.281 66.0328C139.761 68.0193 140.937 72.2843 146.291 74.5198C151.644 76.7553 156.02 75.3683 156.943 75.8073C157.866 76.2463 174.909 86.7613 174.909 86.7613C174.909 86.7613 174.16 84.9973 174.542 81.6503C170.329 79.2453 156.802 71.5273 156.378 71.3438C155.876 71.1268 150.573 71.2578 145.839 68.4158C141.106 65.5738 142.634 65.1623 139.874 64.0083Z" fill="#9FEF00"/>
<path d="M101.702 24.7002C101.702 24.7002 95.601 28.6012 91.5285 30.7702C92.034 30.6987 92.593 30.6077 93.2095 30.4932C94.918 30.1757 96.3435 29.7927 97.48 29.4267C99.725 27.5807 102.243 27.1147 103.994 26.9832C106.069 26.8272 106.354 26.8117 107.2 26.6012C108.047 26.3907 107.936 26.6012 107.336 26.1032C106.737 25.6057 103.673 24.1417 103.384 24.0762C103.094 24.0107 101.702 24.7002 101.702 24.7002ZM94.7765 34.3627L94.781 34.3057L94.7765 34.3627ZM94.783 34.2782C94.7935 34.1477 94.808 34.0152 94.826 33.8822C94.808 34.0152 94.7935 34.1477 94.783 34.2782Z" fill="#A4B1CD"/>
<path d="M89.6935 35.5913C87.371 35.8678 85.8605 35.5133 84.942 35.1043C84.669 36.1918 84.964 37.3493 86.012 37.9403C88.6415 39.4238 94.934 37.8003 94.989 37.6973C95.085 37.5173 94.6515 36.0873 94.7765 34.3633C93.5595 34.8273 91.837 35.3363 89.6935 35.5913Z" fill="#9FEF00"/>
<path d="M84.9419 35.1043C85.8604 35.5133 87.3709 35.8683 89.6935 35.5918C91.837 35.3368 93.5595 34.8278 94.7765 34.3638C94.865 33.1432 95.234 31.7752 96.2695 30.6002C96.6595 30.1577 97.065 29.7687 97.48 29.4277C96.3435 29.7937 94.918 30.1767 93.2095 30.4942C92.593 30.6087 92.034 30.6997 91.5285 30.7712C91.111 30.9937 90.714 31.1982 90.348 31.3782C88.708 32.1842 87.6624 32.5267 86.9484 32.7962C85.9039 33.1902 85.1894 34.1183 84.9419 35.1043Z" fill="#7E8BA3"/>
<path d="M86.4555 14.4996C86.4555 14.4996 85.788 14.5806 85.266 15.1421C85.266 15.1421 86.0195 17.2476 90.4885 17.5306C94.957 17.8136 106.3 17.5511 107.212 17.7866C107.826 17.9451 112.796 22.1411 115.976 24.8651C116.325 24.7786 116.602 24.7231 116.724 24.7271C117.175 24.7431 133.628 29.6921 135.821 30.9186C136.643 31.3786 138.36 32.5516 140.15 33.8631C140.15 33.8631 138.653 30.0121 133.608 27.4326C128.562 24.8531 119.77 22.4821 117.666 21.3731C115.562 20.2646 109.027 15.8886 107.937 15.3771C106.846 14.8656 92.8985 13.8721 92.8985 13.8721C89.2645 14.2096 86.4555 14.4996 86.4555 14.4996Z" fill="#7E8BA3"/>
<path d="M166.59 48.7382C160.816 44.8102 140.901 27.5327 139.303 26.7227C138.727 26.4307 136.222 25.5342 133.184 24.4722C133.184 24.4722 138.406 27.7387 139.433 28.5807C140.46 29.4227 159.209 46.2742 163.883 49.5283C167.672 52.1653 181.753 60.3508 186.953 63.3573C188.388 62.7068 189.391 62.4953 189.533 62.4588C189.936 62.3548 172.364 52.6663 166.59 48.7382Z" fill="white"/>
<path d="M170.574 58.7351C171.176 58.7016 171.69 59.1531 171.723 59.7437C171.756 60.3342 171.294 60.8397 170.693 60.8732C170.091 60.9067 169.577 60.4552 169.544 59.8647C169.511 59.2742 169.972 58.7686 170.574 58.7351Z" fill="#111927"/>
<path d="M194.397 71.4941C193.117 67.3136 187.49 70.9516 185.688 72.5686C184.495 73.6391 182.686 73.3291 181.744 73.9956C180.802 74.6621 177.599 80.6601 179.34 85.0386C181.082 89.4171 185.776 86.4136 185.776 86.4136C179.594 85.6206 186.737 68.0251 194.397 71.4941Z" fill="#7E8BA3"/>
<path d="M189.094 77.3767C189.094 77.3767 188.089 77.1592 186.696 79.2257C185.304 81.2922 185.555 83.6157 186.592 84.1617C187.628 84.7077 189.509 83.1462 189.509 83.1462C186.079 82.7777 187.698 79.0427 189.094 77.3767Z" fill="#7E8BA3"/>
<path d="M179.449 78.3961C180.149 76.1371 181.079 74.7851 181.84 73.7366C182.882 72.3006 183.355 72.0216 184.311 71.06C186.248 69.111 193.117 67.313 194.397 71.4935C190.123 69.5575 186.009 74.1811 184.282 78.7841C183.847 78.1236 183.054 77.3066 181.844 77.4526C180.969 77.5581 180.123 77.9691 179.449 78.3961Z" fill="#A4B1CD"/>
<path d="M104.954 20.9696C105.685 21.2561 111.486 25.2846 111.909 25.5471C112.332 25.8096 112.74 25.8071 113.242 25.6566C113.608 25.5471 115.047 25.0971 115.977 24.8661C112.796 22.1421 107.826 17.9456 107.212 17.7871C106.3 17.5516 94.9575 17.8141 90.489 17.5311C86.02 17.2481 85.2665 15.1431 85.2665 15.1431C84.915 15.5211 84.629 16.1166 84.6565 17.0516C84.7245 19.3761 86.6635 20.0856 88.426 20.1921C90.1885 20.2986 104.223 20.6836 104.954 20.9696Z" fill="#9FEF00"/>
<path d="M159.724 59.9226C159.724 59.9226 154.873 60.8456 149.992 57.3036C145.111 53.7616 137.4 40.4635 139.029 40.373C140.658 40.2825 159.157 53.6356 161.262 56.2421C163.368 58.8486 161.124 59.6271 159.724 59.9226Z" fill="#DAE1F3"/>
<path d="M110.27 46.0851C109.704 45.8306 107.438 45.8546 106.686 45.9166C105.933 45.9786 102.809 44.8861 101.713 45.3756C101.032 45.6796 99.428 47.8986 98.3085 49.5391C97.3225 50.4566 96.2495 51.4296 95.333 52.1976C95.081 52.4091 94.8405 52.6046 94.6175 52.7796C93.6185 53.5631 92.957 53.9466 92.5105 54.2326C91.857 54.6506 91.5045 55.3841 91.478 56.0901C91.4485 56.8686 91.8405 57.5456 92.613 57.8646C95.41 59.0196 98.555 57.2881 99.175 56.8431C102.081 54.7576 110.589 49.0956 110.688 47.2476C110.786 46.8396 110.643 46.2531 110.27 46.0851Z" fill="#7E8BA3"/>
<path d="M110.269 46.0848C109.998 45.9628 109.336 45.9053 108.637 45.8848C108.569 45.9513 108.503 46.0198 108.428 46.0813C103.336 50.2428 97.797 54.4323 91.4965 56.4368C91.5795 57.0653 91.9575 57.5938 92.6125 57.8643C95.4095 59.0193 98.5545 57.2878 99.1745 56.8428C102.081 54.7573 110.589 49.0953 110.688 47.2473C110.785 46.8393 110.643 46.2528 110.269 46.0848Z" fill="#9FEF00"/>
<path d="M120.264 51.2196C119.575 48.4851 119.229 48.1001 118.937 47.9826C118.847 47.9466 118.516 47.9626 118.108 48.0001C117.858 52.3601 115.738 56.2176 112.956 59.5376C111.949 60.7391 110.798 62.0187 109.524 63.1617C109.919 63.3152 110.427 63.3607 110.881 63.5497C112.293 64.1377 115.517 61.0086 115.94 60.3731C116.72 59.2011 118.568 57.4081 119.94 55.3101C120.04 55.1566 120.14 55.0031 120.239 54.8491C120.467 54.1911 120.704 52.9676 120.264 51.2196Z" fill="#E84344"/>
<path d="M120.956 113.695C120.956 113.904 120.954 114.112 120.95 114.318C120.95 114.318 120.95 114.318 120.95 114.32C120.95 114.342 120.949 114.364 120.949 114.385C120.858 114.563 120.099 114.729 118.811 114.877C115.415 115.269 108.344 115.539 100.17 115.539C91.9795 115.539 84.8441 115.269 81.4278 114.876C80.1328 114.726 79.3719 114.559 79.2904 114.382C79.2889 114.363 79.2875 114.342 79.2889 114.321C79.2875 114.32 79.2889 114.32 79.2889 114.32C79.2831 114.114 79.2816 113.904 79.2816 113.695C79.2816 110.699 79.5275 107.942 79.9742 105.416C80.015 105.188 80.0572 104.959 80.1008 104.734C80.1881 104.282 80.2827 103.837 80.3831 103.401C80.434 103.184 80.4849 102.967 80.5388 102.752C80.5926 102.538 80.6464 102.326 80.7032 102.115C80.7599 101.904 80.8167 101.696 80.8763 101.488C80.936 101.282 80.9971 101.076 81.0582 100.873C81.1208 100.67 81.1848 100.469 81.2488 100.269C81.3463 99.9705 81.4467 99.6765 81.55 99.3856C81.6198 99.1923 81.6897 98.999 81.761 98.8088C82.0476 98.0498 82.3546 97.3179 82.6805 96.6165C83.699 94.4241 84.8994 92.5178 86.2133 90.8864C86.529 90.4949 86.852 90.1178 87.1794 89.7582C89.6937 86.9954 92.5411 85.1531 95.3085 84.1592C95.4104 84.1224 95.4948 84.0649 95.5588 83.9946C95.5748 83.977 95.5908 83.9578 95.6053 83.937C95.7538 83.7277 95.7581 83.4385 95.617 83.2244C95.5995 83.1972 95.5806 83.1732 95.5588 83.1509C95.537 83.1253 95.5137 83.1045 95.4889 83.0854C95.4628 83.0646 95.4351 83.0454 95.4046 83.0294C95.3755 83.0135 95.3434 82.9991 95.3085 82.9863C87.6057 80.2187 79.2831 70.8821 79.2831 53.4505C79.2831 52.0316 79.3733 50.667 79.5479 49.3599H120.694C120.869 50.667 120.957 52.0316 120.957 53.4505C120.957 64.6183 117.541 72.4625 113.061 77.3856C112.952 77.5055 112.841 77.6253 112.731 77.7419C112.51 77.9752 112.287 78.2021 112.061 78.4211C111.836 78.6416 111.607 78.8541 111.379 79.0586C111.264 79.1609 111.148 79.2616 111.033 79.3622C110.57 79.7601 110.1 80.1308 109.626 80.4744C109.39 80.6454 109.151 80.8115 108.911 80.9697C108.673 81.1279 108.433 81.2797 108.193 81.4251C107.109 82.0787 106.013 82.5964 104.93 82.9863C104.382 83.1828 104.382 83.9626 104.93 84.1592C112.633 86.9251 120.956 96.2633 120.956 113.695Z" fill="#A4B1CD"/>
<path d="M74.9238 112.193L74.8671 117.271C74.8545 118.405 86.007 119.448 99.7771 119.602C113.547 119.756 124.72 118.961 124.733 117.828L124.79 112.749L74.9238 112.193Z" fill="#141D2B"/>
<path d="M76.1072 112.206L76.0435 117.912C75.2778 117.705 74.8647 117.491 74.8671 117.272L74.9238 112.193L76.1072 112.206Z" fill="#141D2B"/>
<path d="M124.79 112.749L124.733 117.828C124.731 118.047 124.313 118.252 123.543 118.442L123.606 112.736L124.79 112.749Z" fill="#141D2B"/>
<path d="M74.8944 114.823C74.8818 115.956 86.0343 117 99.8044 117.153C113.575 117.307 124.748 116.513 124.76 115.379" stroke="#141D2B" stroke-width="1.5" stroke-linecap="round" stroke-linejoin="round"/>
<path d="M124.79 112.75C124.777 113.884 113.604 114.678 99.8338 114.525C86.0637 114.371 74.9112 113.328 74.9238 112.194C74.9365 111.06 86.1095 110.266 99.8796 110.42C113.65 110.573 124.802 111.617 124.79 112.75Z" fill="#141D2B"/>
<path d="M121.286 112.711C121.286 112.722 121.283 112.734 121.277 112.744C121.182 112.91 120.397 113.057 119.068 113.182C115.563 113.51 108.271 113.682 99.8443 113.588C91.4013 113.494 84.0486 113.159 80.5309 112.75C79.1975 112.594 78.4148 112.43 78.3327 112.262C78.3268 112.252 78.3239 112.243 78.324 112.232C78.3241 112.223 78.3257 112.214 78.3318 112.205C78.3303 112.204 78.3318 112.204 78.3318 112.204C78.4131 112.041 79.1708 111.895 80.4638 111.771C83.9597 111.437 91.3632 111.261 99.8692 111.356C108.359 111.451 115.692 111.789 119.157 112.202C120.444 112.354 121.197 112.517 121.279 112.681C121.279 112.681 121.279 112.681 121.279 112.683C121.283 112.692 121.286 112.702 121.286 112.711Z" fill="#141D2B"/>
<path d="M121.286 112.711C121.286 112.722 121.283 112.734 121.277 112.744C121.182 112.91 120.397 113.057 119.068 113.182C115.563 113.51 108.271 113.682 99.8443 113.588C91.4013 113.494 84.0486 113.159 80.5309 112.75C79.1975 112.594 78.4148 112.43 78.3327 112.262C78.3268 112.252 78.3239 112.243 78.324 112.232C78.3241 112.223 78.3257 112.214 78.3318 112.205C78.3303 112.204 78.3318 112.204 78.3318 112.204C78.4131 112.041 79.1708 111.895 80.4638 111.771C83.9597 111.437 91.3632 111.261 99.8692 111.356C108.359 111.451 115.692 111.789 119.157 112.202C120.444 112.354 121.197 112.517 121.279 112.681C121.279 112.681 121.279 112.681 121.279 112.683C121.283 112.692 121.286 112.702 121.286 112.711Z" fill="#141D2B"/>
<path d="M114.195 74.1353C114.195 74.1353 118.08 69.5909 114.85 70.5712C113.424 71.0038 112.073 71.154 110.157 72.1743C106.694 74.0182 104.577 73.8519 100.965 73.0403C99.3231 72.7067 97.9574 73.7333 95.3911 73.6311C91.8322 73.6636 89.2052 69.9565 86.3265 71.3883C84.9723 71.9627 85.0769 73.4261 88.2811 76.7038C92.392 80.8659 94.6155 81.6807 96.6201 82.5816C97.6067 83.0251 99.1013 95.8512 99.243 97.1965C100.171 105.27 99.1963 105.768 98.9703 107.659C98.1363 115.635 84.6737 108.23 83.8368 111.986C83.5419 113.252 115.844 113.857 115.805 112.141C115.757 108.569 101.146 116.134 101.575 105.951C101.376 101.602 102.757 83.0278 103.972 82.54C108.351 80.7821 112.361 77.8671 114.195 74.1353Z" fill="#9FEF00"/>
<path d="M98.2731 80.6023C94.9782 79.6188 88.9434 76.5637 89.8415 74.4885C90.8465 72.1663 95.1023 74.4904 97.9084 76.1255C101.339 78.3642 106.467 76.0092 108.145 77.4441C110.041 79.0938 100.606 81.1281 98.2731 80.6023Z" fill="#8BCA0D"/>
<g opacity="0.6">
<path opacity="0.6" d="M99.9315 112.819C90.6757 112.759 91.0378 111.477 92.2065 111.816C97.6128 110.891 99.0061 111.271 108.227 111.947C109.515 111.751 107.284 112.874 99.9315 112.819Z" fill="#5D8018"/>
</g>
<g opacity="0.7">
<path opacity="0.7" d="M99.6231 75.8282C97.8339 76.646 95.9085 76.3768 95.8901 75.7922C95.8712 75.2333 96.792 73.5411 99.4338 73.6322C101.214 73.694 102.418 73.6399 102.432 74.1982C102.447 74.7565 101.503 74.97 99.6231 75.8282Z" fill="#D4FF7D"/>
</g>
<path d="M96.4115 80.9268C98.1665 81.2766 98.6083 83.4085 98.5787 84.7083" stroke="#CEFF6B" stroke-width="1.65934" stroke-linecap="round" stroke-linejoin="round"/>
<path d="M76.816 48.647L76.7543 54.1877C75.9879 54.0336 75.5742 53.8745 75.576 53.7125L75.6326 48.6338L76.816 48.647Z" fill="#824D2A"/>
<path d="M125.499 49.19L125.442 54.2687C125.44 54.4306 125.023 54.5805 124.253 54.7174L124.315 49.1768L125.499 49.19Z" fill="#824D2A"/>
<path d="M125.499 49.19L125.442 54.2687C125.433 55.1041 114.263 55.6561 100.492 55.5025C89.3763 55.3785 79.9648 54.8325 76.7543 54.1877C75.9879 54.0336 75.5742 53.8745 75.576 53.7125L75.6326 48.6338L125.499 49.19Z" fill="#141D2B"/>
<path d="M76.816 48.647L76.7543 54.1877C75.9879 54.0336 75.5742 53.8745 75.576 53.7125L75.6326 48.6338L76.816 48.647Z" fill="#141D2B"/>
<path d="M125.499 49.19L125.442 54.2687C125.44 54.4306 125.023 54.5805 124.253 54.7174L124.315 49.1768L125.499 49.19Z" fill="#141D2B"/>
<path d="M75.6026 51.3218C75.5933 52.1566 86.7486 52.9579 100.519 53.1115C114.289 53.265 125.459 52.7128 125.469 51.8779" stroke="#141D2B" stroke-width="1.5" stroke-linecap="round" stroke-linejoin="round"/>
<path d="M125.498 49.1913C125.489 50.0262 114.319 50.5784 100.549 50.4248C86.7785 50.2713 75.6233 49.47 75.6326 48.6351C75.6419 47.8003 86.8122 47.248 100.582 47.4016C114.352 47.5552 125.508 48.3565 125.498 49.1913Z" fill="#141D2B"/>
<path d="M104.348 47.461L98.9868 50.4029C94.4213 50.3355 90.188 50.1953 86.6154 50.0099L91.3622 47.4047C94.2143 47.3675 97.3256 47.3647 100.582 47.401C101.863 47.4153 103.12 47.4353 104.348 47.461Z" fill="#141D2B"/>
<path d="M113.414 47.7605L108.545 50.4333L108.544 50.4333C106.914 50.4481 105.209 50.4531 103.448 50.4455L108.682 47.5727C110.346 47.6272 111.93 47.6899 113.414 47.7605Z" fill="#141D2B"/>
<path d="M75.6326 48.6339C75.6233 49.4694 86.7781 50.2704 100.549 50.4239C106.107 50.4859 111.24 50.4322 115.388 50.2924C111.874 50.3477 107.854 50.3554 103.585 50.3078C89.8141 50.1542 78.6579 49.4792 78.6654 48.8013C78.673 48.1218 89.8415 47.6973 103.612 47.8509C111.629 47.9403 118.759 48.2059 123.316 48.5462C119.416 47.9777 110.705 47.5145 100.582 47.4016C86.8118 47.248 75.6419 47.8 75.6326 48.6339Z" fill="#141D2B"/>
<path d="M87.6799 97.291C86.0343 100.352 84.8214 104.203 84.8424 108.929" stroke="white" stroke-opacity="0.4" stroke-width="10.5" stroke-linecap="round" stroke-linejoin="round"/>
<path d="M92.568 90.9112C92.2638 91.2038 91.9512 91.5174 91.6343 91.8524" stroke="white" stroke-opacity="0.4" stroke-width="10.5" stroke-linecap="round" stroke-linejoin="round"/>
<path d="M84.1519 99.0331C83.8684 99.7305 83.6126 100.461 83.3906 101.224" stroke="white" stroke-width="1.8" stroke-linecap="round" stroke-linejoin="round"/>
<path d="M85.5663 96.1606C85.3831 96.4745 85.2049 96.797 85.0326 97.1281" stroke="white" stroke-width="1.8" stroke-linecap="round" stroke-linejoin="round"/>
<path d="M85.8292 60.7869C85.8292 60.7869 85.5543 67.73 90.853 73.6738" stroke="white" stroke-opacity="0.4" stroke-width="10.5" stroke-linecap="round" stroke-linejoin="round"/>
<path d="M105.081 84.1865C104.517 83.9957 104.525 83.2638 105.093 83.0856C106.213 82.7321 107.348 82.2587 108.472 81.6577C108.721 81.524 108.97 81.3842 109.218 81.2385C109.467 81.0928 109.715 80.9395 109.959 80.7817C110.452 80.4632 110.94 80.1221 111.421 79.754C111.541 79.6608 111.662 79.5676 111.782 79.473C112.019 79.2821 112.257 79.0852 112.492 78.8823C112.727 78.6779 112.958 78.469 113.189 78.2526C113.304 78.1444 113.419 78.0331 113.533 77.9219C118.203 73.3522 121.807 66.0284 121.924 55.5455C121.938 54.2136 121.861 52.9316 121.695 51.7027L79.279 51.2296C79.0853 52.4545 78.978 53.7344 78.9632 55.0664C78.7807 71.4289 87.2624 80.2886 95.174 82.975C95.2098 82.9874 95.2427 83.0012 95.2725 83.0166C95.3038 83.0319 95.3321 83.0502 95.3589 83.07C95.3842 83.0883 95.408 83.1081 95.4302 83.1323C95.4525 83.1551 95.4717 83.1778 95.4895 83.202C95.6327 83.4046 95.6252 83.6761 95.47 83.8708C95.4548 83.8902 95.4396 83.908 95.4214 83.9243C95.3547 83.9896 95.2671 84.0426 95.1617 84.0759C92.2985 84.977 89.3438 86.6737 86.7231 89.2381C86.3803 89.5718 86.0449 89.9206 85.7153 90.286C84.3423 91.8023 83.0864 93.5779 82.0135 95.624C81.6702 96.2787 81.3461 96.9622 81.0426 97.6713C80.9672 97.849 80.8931 98.0297 80.8191 98.2104C80.7096 98.4822 80.603 98.757 80.4994 99.0364C80.4313 99.2231 80.3632 99.4114 80.2966 99.6011C80.2315 99.7909 80.1663 99.9837 80.1026 100.177C80.039 100.371 79.9783 100.565 79.9176 100.763C79.8569 100.96 79.7992 101.159 79.7414 101.359C79.6837 101.559 79.6289 101.763 79.5742 101.966C79.4661 102.375 79.3639 102.79 79.2692 103.214C79.2219 103.425 79.176 103.639 79.1316 103.853C78.6447 106.219 78.3623 108.804 78.331 111.616C78.3288 111.813 78.3281 112.009 78.3319 112.203C78.3319 112.203 78.3304 112.203 78.3319 112.204C78.3302 112.224 78.3315 112.243 78.3328 112.261C78.4149 112.429 79.1976 112.593 80.531 112.749C80.5016 112.426 80.4797 112.101 80.4639 111.77C80.4407 111.296 80.4325 110.814 80.438 110.324C80.5887 96.8157 87.536 88.3111 96.338 84.5961C97.3282 84.1781 97.3591 82.8853 96.3616 82.4797C87.7196 78.9751 80.8918 69.7708 81.0425 56.2626C81.0557 55.0792 81.1493 53.9432 81.3205 52.8545L119.616 53.2816C119.765 54.3738 119.833 55.5117 119.82 56.6951C119.669 70.2033 113.613 78.0203 103.918 82.564C102.947 83.0182 102.905 84.2613 103.895 84.6803C112.801 88.4474 119.366 97.2482 119.215 110.756C119.21 111.245 119.191 111.727 119.157 112.2C119.135 112.532 119.105 112.858 119.068 113.18C120.397 113.056 121.182 112.908 121.277 112.743C121.277 112.724 121.279 112.703 121.279 112.682C121.279 112.68 121.279 112.68 121.279 112.68C121.286 112.487 121.289 112.292 121.291 112.095C121.474 95.7326 112.992 86.8714 105.081 84.1865Z" stroke="#141D2B" stroke-width="2"/>
<path d="M105.081 84.1865C104.517 83.9957 104.525 83.2638 105.093 83.0856C106.213 82.7321 107.348 82.2587 108.472 81.6577C108.721 81.524 108.97 81.3842 109.218 81.2385C109.467 81.0928 109.715 80.9395 109.959 80.7817C110.452 80.4632 110.94 80.1221 111.421 79.754C111.541 79.6608 111.662 79.5676 111.782 79.473C112.019 79.2821 112.257 79.0852 112.492 78.8823C112.727 78.6779 112.958 78.469 113.189 78.2526C113.304 78.1444 113.419 78.0331 113.533 77.9219C118.203 73.3522 121.807 66.0284 121.924 55.5455C121.938 54.2136 121.861 52.9316 121.695 51.7027L79.279 51.2296C79.0853 52.4545 78.978 53.7344 78.9632 55.0664C78.7807 71.4289 87.2624 80.2886 95.174 82.975C95.2098 82.9874 95.2427 83.0012 95.2725 83.0166C95.3038 83.0319 95.3321 83.0502 95.3589 83.07C95.3842 83.0883 95.408 83.1081 95.4302 83.1323C95.4525 83.1551 95.4717 83.1778 95.4895 83.202C95.6327 83.4046 95.6252 83.6761 95.47 83.8708C95.4548 83.8902 95.4396 83.908 95.4214 83.9243C95.3547 83.9896 95.2671 84.0426 95.1617 84.0759C92.2985 84.977 89.3438 86.6737 86.7231 89.2381C86.3803 89.5718 86.0449 89.9206 85.7153 90.286C84.3423 91.8023 83.0864 93.5779 82.0135 95.624C81.6702 96.2787 81.3461 96.9622 81.0426 97.6713C80.9672 97.849 80.8931 98.0297 80.8191 98.2104C80.7096 98.4822 80.603 98.757 80.4994 99.0364C80.4313 99.2231 80.3632 99.4114 80.2966 99.6011C80.2315 99.7909 80.1663 99.9837 80.1026 100.177C80.039 100.371 79.9783 100.565 79.9176 100.763C79.8569 100.96 79.7992 101.159 79.7414 101.359C79.6837 101.559 79.6289 101.763 79.5742 101.966C79.4661 102.375 79.3639 102.79 79.2692 103.214C79.2219 103.425 79.176 103.639 79.1316 103.853C78.6447 106.219 78.3623 108.804 78.331 111.616C78.3288 111.813 78.3281 112.009 78.3319 112.203C78.3319 112.203 78.3304 112.203 78.3319 112.204C78.3302 112.224 78.3315 112.243 78.3328 112.261C78.4149 112.429 79.1976 112.593 80.531 112.749C80.5016 112.426 80.4797 112.101 80.4639 111.77C80.4407 111.296 80.4325 110.814 80.438 110.324C80.5887 96.8157 87.536 88.3111 96.338 84.5961C97.3282 84.1781 97.3591 82.8853 96.3616 82.4797C87.7196 78.9751 80.8918 69.7708 81.0425 56.2626C81.0557 55.0792 81.1493 53.9432 81.3205 52.8545L119.616 53.2816C119.765 54.3738 119.833 55.5117 119.82 56.6951C119.669 70.2033 113.613 78.0203 103.918 82.564C102.947 83.0182 102.905 84.2613 103.895 84.6803C112.801 88.4474 119.366 97.2482 119.215 110.756C119.21 111.245 119.191 111.727 119.157 112.2C119.135 112.532 119.105 112.858 119.068 113.18C120.397 113.056 121.182 112.908 121.277 112.743C121.277 112.724 121.279 112.703 121.279 112.682C121.279 112.68 121.279 112.68 121.279 112.68C121.286 112.487 121.289 112.292 121.291 112.095C121.474 95.7326 112.992 86.8714 105.081 84.1865Z" fill="#141D2B"/>
</svg>
